<?xml version="1.0" encoding="UTF-8"?> <svg xmlns="http://www.w3.org/2000/svg" width="146" height="17" viewBox="0 0 146 17" fill="none"><g clip-path="url(#clip0_353_691)"><path d="M106.742 8.25526C106.766 5.218 108.585 2.35688 111.229 1.24637C114.419 -0.0939792 117.813 0.945647 119.843 3.88195C122.1 7.15334 121.439 11.9391 118.395 14.3319C114.488 17.4057 108.959 15.7947 107.262 11.0842C107.118 10.6825 107.002 10.2679 106.929 9.84692C106.837 9.32066 106.802 8.78366 106.744 8.25311L106.742 8.25526ZM118.346 8.48724C118.335 7.15334 118.03 6.11801 117.418 5.18363C115.783 2.68337 112.458 2.58671 110.686 4.98816C109.189 7.01372 109.24 9.82329 110.808 11.8166C112.054 13.3975 114.239 13.8379 115.955 12.7918C117.611 11.7823 118.285 10.2056 118.343 8.48724H118.346Z" fill="white"></path><path d="M87.533 0.676261C90.7593 0.684853 93.5817 3.06053 94.4044 6.46509C95.3087 10.2026 93.3948 14.0346 89.9215 15.4372C86.8757 16.668 83.4604 15.5446 81.5208 12.6728C79.1279 9.13075 80.1117 4.12808 83.6816 1.78462C84.8415 1.02209 86.1346 0.648337 87.533 0.676261ZM91.7946 8.71833C91.801 7.19326 91.5089 6.16223 90.9032 5.21926C89.3523 2.80277 86.1368 2.56434 84.3368 4.73381C82.6592 6.75507 82.6334 9.7687 84.2745 11.8157C85.5998 13.4675 87.8466 13.8563 89.6015 12.6706C91.1094 11.6525 91.7452 10.1467 91.7924 8.71619L91.7946 8.71833Z" fill="white"></path><path d="M70.104 0.648438C71.4572 0.710729 72.8019 0.620514 74.0821 0.867532C76.2988 1.29498 77.7573 2.72125 78.3566 4.90575C78.9494 7.06233 78.3201 8.92679 76.7606 10.4841C76.5029 10.7418 76.4449 10.918 76.5931 11.2531C77.1859 12.5891 77.7466 13.9423 78.3158 15.2891C78.3974 15.4825 78.4661 15.6801 78.5563 15.9206C77.6821 15.9206 76.8594 15.9421 76.041 15.9035C75.8757 15.8949 75.6523 15.6908 75.5771 15.5211C75.1239 14.5137 74.7071 13.4891 74.2733 12.471C74.1916 12.2755 74.0971 12.0865 74.0241 11.9232C73.9682 11.8996 73.9511 11.8846 73.936 11.8867C73.23 11.9683 72.8771 12.3714 72.8771 13.096C72.8771 14.0218 72.8771 14.9455 72.8771 15.897H70.104V0.648438ZM72.9071 9.38431C73.9296 9.38431 74.6835 8.92679 75.2055 8.12344C75.9229 7.02367 75.9208 5.85946 75.2828 4.72962C74.7802 3.8382 74.0048 3.32913 72.905 3.31624V9.38431H72.9071Z" fill="white"></path><path d="M11.1606 3.222H9.65273C9.51311 1.46925 11.079 -0.00642294 12.9606 2.10253e-05C16.0194 0.010761 16.6788 2.83537 16.0537 4.80078C15.796 5.61272 15.2439 6.21415 14.6425 6.78122C14.5007 6.91655 14.3504 7.04757 14.2279 7.20223C13.8929 7.62109 14.0389 8.07216 14.5459 8.19675C18.0686 9.05809 21.5891 9.93018 25.1161 10.77C25.6467 10.8968 25.8872 11.1116 25.8228 11.6743C25.7755 12.0803 25.8164 12.497 25.8142 12.9073C25.8099 13.4787 25.6939 13.5689 25.1462 13.4207C23.3784 12.9481 21.6106 12.4734 19.8449 12.0008C17.8387 11.4638 15.8346 10.9097 13.8198 10.4006C13.4633 10.3104 13.0423 10.3276 12.6814 10.4199C8.90308 11.4015 5.13336 12.4111 1.35934 13.4078C0.777239 13.5624 0.695616 13.4958 0.693468 12.903C0.69132 12.4734 0.73428 12.0395 0.682728 11.6163C0.618288 11.0858 0.856715 10.8989 1.33142 10.7851C3.82524 10.1858 6.31261 9.56287 8.80428 8.94854C9.87612 8.68434 10.948 8.41155 12.022 8.15808C12.3506 8.08076 12.5181 7.93899 12.4795 7.57598C12.4086 6.89721 12.7265 6.37311 13.1926 5.91773C13.4096 5.70508 13.633 5.49887 13.8521 5.28837C14.5888 4.58168 14.8186 3.73323 14.5716 2.74945C14.3805 1.98906 13.9831 1.6776 13.1582 1.63679C12.2454 1.58953 11.5644 1.95254 11.3217 2.62701C11.2573 2.80959 11.2229 3.00291 11.1649 3.2263L11.1606 3.222Z" fill="white"></path><path d="M99.2795 12.004V15.8897H96.4785V0.733469C97.5675 0.733469 98.6566 0.658289 99.7327 0.748505C102.748 0.997671 104.849 3.06189 105.049 6.07337C105.255 9.18366 102.826 11.7333 99.9969 11.9589C99.7843 11.976 99.5738 11.9868 99.2816 12.004H99.2795ZM99.3246 9.39631C100.45 9.35765 101.238 8.83354 101.748 7.92279C102.375 6.79724 102.302 5.65022 101.612 4.57622C101.097 3.77287 100.349 3.31106 99.3246 3.32394V9.39631Z" fill="white"></path><path d="M142.81 7.93815C142.454 7.13695 142.112 6.37227 141.756 5.57321C141.906 5.51951 142.05 5.48085 142.181 5.42071C142.692 5.18872 142.967 4.69039 142.858 4.21354C142.722 3.62714 142.243 3.25338 141.648 3.2899C140.862 3.33716 140.282 3.72379 139.981 4.44337C139.674 5.17798 139.773 5.92548 140.31 6.499C140.791 7.01451 141.378 7.43982 141.953 7.85868C142.645 8.36345 143.397 8.78661 144.078 9.30427C145.353 10.2773 145.957 11.5747 145.532 13.1621C145.113 14.7301 143.899 15.4969 142.387 15.8041C141.062 16.0726 139.786 15.8685 138.617 15.164C137.973 14.7752 137.507 14.2146 137.2 13.4434C138.05 13.0633 138.903 12.6831 139.756 12.3029C140.121 13.2695 141.167 13.6711 142.217 13.132C142.918 12.7711 143.025 12.1181 142.413 11.6284C141.732 11.085 140.933 10.6919 140.248 10.1527C139.44 9.51478 138.592 8.87897 137.949 8.08851C136.493 6.29709 136.658 3.64002 138.272 2.07843C139.614 0.778901 141.253 0.409447 143.029 0.95074C144.64 1.44048 145.736 2.94837 145.667 4.48203C145.598 5.99852 144.615 7.47418 142.81 7.9403V7.93815Z" fill="white"></path><path d="M51.0298 0.738281H57.8539V3.26861H53.8909V9.41186H57.4501V11.9787H53.878V13.3083H57.8432V15.8859H51.0298V0.738281Z" fill="white"></path><path d="M65.3652 15.8986H62.5191C62.5191 15.6537 62.5191 15.4282 62.5191 15.2048C62.5191 11.448 62.5106 7.69113 62.532 3.93429C62.5342 3.43167 62.4203 3.23405 61.8876 3.26842C61.1788 3.31353 60.4635 3.27916 59.7354 3.27916V0.740234H68.1168V3.25768H65.3652V15.8964V15.8986Z" fill="white"></path><path d="M49.133 15.9209C48.1685 15.9209 47.275 15.9015 46.3836 15.9295C45.9518 15.9423 45.9991 15.6137 45.9411 15.3925C44.8478 11.3156 43.7652 7.23654 42.6804 3.15536C42.4699 2.36704 42.2573 1.57873 42.0317 0.743164H45.4363C46.665 5.78449 47.8893 10.8172 49.133 15.9187V15.9209Z" fill="white"></path><path d="M37.0488 0.738281H40.3932C41.6262 5.76458 42.8656 10.8081 44.1136 15.8923H41.0935C39.7574 10.8811 38.4107 5.83546 37.0488 0.738281Z" fill="white"></path><path d="M132.322 0.732422H135.112V15.8822H132.322V0.732422Z" fill="white"></path><path d="M125.79 0.745117V15.8863H122.977V0.745117H125.79Z" fill="white"></path><path d="M39.1881 15.8923H33.9556C34.4088 11.3944 34.8577 6.93305 35.3067 2.46953L35.4098 2.4502C36.662 6.90942 37.9165 11.3708 39.1859 15.8923H39.1881Z" fill="white"></path><path d="M24.3066 14.99C20.8204 15.3401 17.3321 15.6924 13.8008 16.0468V11.9141C17.3235 12.9064 20.8118 13.8902 24.3002 14.874C24.3002 14.9127 24.3044 14.9513 24.3066 14.99Z" fill="white"></path><path d="M2.20136 14.8677C5.67681 13.8883 9.15226 12.9066 12.6793 11.9121V16.047C9.17803 15.6947 5.68325 15.3446 2.18848 14.9945C2.19277 14.9515 2.19707 14.9107 2.20136 14.8677Z" fill="white"></path><path d="M126.577 15.8838V13.3643H130.403V15.8838H126.577Z" fill="white"></path></g><defs><clipPath id="clip0_353_691"><rect width="145" height="16.0476" fill="white" transform="translate(0.669922)"></rect></clipPath></defs></svg> 