<?xml version="1.0" encoding="UTF-8"?> <svg xmlns="http://www.w3.org/2000/svg" width="147" height="35" viewBox="0 0 147 35" fill="none"><g clip-path="url(#clip0_299_46670)"><path fill-rule="evenodd" clip-rule="evenodd" d="M16.9343 2.34248L6.63903 5.37747L6.63782 5.37513C6.55031 5.40116 6.45834 5.41026 6.36718 5.40191C6.27602 5.39355 6.18747 5.3679 6.10661 5.32645C6.02574 5.28498 5.95417 5.22852 5.89598 5.1603C5.8378 5.09207 5.79415 5.01343 5.76755 4.92889C5.74094 4.84434 5.73191 4.75557 5.74095 4.66764C5.75001 4.57973 5.77696 4.49439 5.82027 4.41655C5.8636 4.33871 5.92241 4.26989 5.99337 4.21403C6.06433 4.15819 6.14601 4.11641 6.23375 4.0911L16.7322 0.998924C16.8639 0.959994 17.0047 0.959994 17.1363 0.998924L27.8635 4.15881C28.0393 4.21109 28.1864 4.32842 28.2727 4.48512C28.359 4.64182 28.3775 4.82512 28.324 4.99493C28.2706 5.16473 28.1496 5.30718 27.9877 5.39113C27.8256 5.47507 27.6357 5.49367 27.4595 5.44284L16.9343 2.34248ZM26.5559 17.8369L31.322 8.27671C31.3764 8.9039 31.4002 9.53343 31.3932 10.1632C31.392 12.3755 31.1155 14.5795 30.5694 16.7281C29.831 19.6472 28.5447 22.411 26.7745 24.8829C24.9228 27.4525 22.3239 29.9839 18.6503 32.1047L26.5426 17.8626L26.5559 17.8369ZM2.55098 8.1754L15.2771 32.1413C11.5701 30.013 8.95274 27.4673 7.08936 24.8829C5.31907 22.411 4.03286 19.6472 3.29437 16.7281C2.74844 14.5799 2.47184 12.3762 2.47053 10.1644C2.46313 9.50029 2.49001 8.83648 2.55098 8.1754ZM31.6278 5.32796C31.7051 5.32004 31.7833 5.32473 31.8592 5.34191C31.9482 5.36207 32.0322 5.39902 32.1063 5.45064C32.1805 5.50226 32.2433 5.56752 32.2911 5.64267C32.339 5.71781 32.371 5.80136 32.3852 5.88849L32.568 6.95425C32.725 8.01778 32.7982 9.09129 32.7869 10.1655C32.786 12.4864 32.496 14.7986 31.9231 17.0527C31.1439 20.1302 29.7872 23.044 27.9201 25.6499C25.757 28.6487 22.6238 31.5962 18.121 33.9377L17.2658 34.3825C17.1649 34.4352 17.052 34.4627 16.9373 34.4627C16.8226 34.4627 16.7098 34.4352 16.6089 34.3825L15.7524 33.9377C11.2449 31.5973 8.11281 28.6487 5.9534 25.6499C4.08532 23.0438 2.72775 20.1296 1.94791 17.0515C1.37502 14.7974 1.08502 12.4852 1.08415 10.1644C1.07279 9.09011 1.14599 8.01661 1.30312 6.95307L1.47613 5.94369C1.47962 5.88952 1.48996 5.83583 1.50699 5.78384C1.53461 5.69953 1.57929 5.62135 1.63845 5.55382C1.69761 5.48629 1.77007 5.43077 1.85163 5.39046C1.93319 5.35014 2.02223 5.32585 2.11359 5.31897C2.20496 5.3121 2.29683 5.32279 2.38387 5.35043C2.47093 5.37806 2.55143 5.42209 2.62071 5.47995C2.69001 5.53782 2.7467 5.60838 2.78752 5.68754L8.97944 17.3422H25.0334C25.1059 17.3422 25.1772 17.3531 25.2449 17.3741L25.317 17.2439L31.0686 5.69688C31.1499 5.53891 31.2925 5.41829 31.4655 5.36124C31.5185 5.34378 31.5729 5.33271 31.6278 5.32796ZM24.5224 18.6787H9.68952L16.9522 32.3489L24.5224 18.6787ZM43.7236 12.9123H54.4013V11.5233H43.7236C43.4419 11.522 43.1627 11.5746 42.9021 11.6781C42.6416 11.7816 42.4049 11.9337 42.2057 12.1259C42.0065 12.3182 41.8488 12.5466 41.7415 12.798C41.6343 13.0493 41.5798 13.3187 41.5811 13.5905V21.8597C41.5798 22.1314 41.6343 22.4008 41.7415 22.6522C41.8488 22.9036 42.0065 23.132 42.2057 23.3242C42.4049 23.5164 42.6416 23.6686 42.9021 23.7721C43.1627 23.8755 43.4419 23.9281 43.7236 23.9269H54.4013V22.5262H43.7236C43.5392 22.5249 43.3626 22.4537 43.2322 22.3279C43.1019 22.2021 43.028 22.0317 43.0268 21.8538V13.5847C43.0277 13.4066 43.1014 13.2362 43.2319 13.1103C43.3624 12.9844 43.5391 12.9132 43.7236 12.9123ZM74.4513 12.917V11.5162H62.715V23.9246H74.4501V22.5238H64.1668V18.4231H72.4333V17.0107H64.168V12.917H74.4513ZM95.6264 13.5998V17.2348C95.6281 17.5066 95.5735 17.7758 95.4658 18.0272C95.3582 18.2784 95.2011 18.5068 95.0014 18.699C94.8027 18.8912 94.5657 19.0433 94.3053 19.1469C94.0449 19.2504 93.7654 19.3032 93.4841 19.3021H91.5206L95.5552 23.9187H93.6447L89.6274 19.3021H84.909C84.6757 19.2906 84.443 19.2676 84.2122 19.2332V23.9187H82.7604V11.5325H93.4728C93.7549 11.5314 94.0336 11.5842 94.294 11.6877C94.5553 11.7912 94.7914 11.9434 94.991 12.1356C95.1898 12.3278 95.3478 12.5562 95.4545 12.8074C95.5622 13.0588 95.6169 13.328 95.616 13.5998H95.6264ZM84.9139 17.8896H93.4841C93.5735 17.8907 93.6621 17.8746 93.7454 17.842C93.8279 17.8095 93.9034 17.7613 93.9667 17.7003C94.0301 17.6392 94.0796 17.5666 94.1134 17.4867C94.1473 17.4067 94.1638 17.321 94.1629 17.2348V13.5998C94.1638 13.5123 94.1473 13.4253 94.1143 13.3439C94.0805 13.2626 94.0301 13.1885 93.9667 13.1259C93.9051 13.0619 93.8305 13.011 93.7471 12.9768C93.6638 12.9426 93.5735 12.9258 93.4832 12.9274H84.9127C84.7281 12.9284 84.5515 12.9995 84.4209 13.1254C84.2905 13.2513 84.2168 13.4218 84.2158 13.5998V17.2348C84.2139 17.3222 84.2312 17.409 84.2667 17.4895C84.3022 17.57 84.3549 17.6423 84.4214 17.7017C84.4864 17.763 84.5634 17.8113 84.648 17.8435C84.7325 17.8758 84.8229 17.8915 84.9139 17.8896ZM116.154 11.5162H103.304V12.917H109.016V23.9257H110.469V12.917H116.154V11.5162ZM123.943 11.5162V23.9199H125.395V11.5162H123.943ZM146.547 11.5162H144.69L139.908 17.0107H135.766V11.5162H134.301V23.9199H135.763V18.4243H139.905L144.69 23.9199H146.565L141.173 17.7181L146.547 11.5162Z" fill="white"></path></g><defs><clipPath id="clip0_299_46670"><rect width="145.829" height="33.5013" fill="white" transform="translate(0.982422 0.956055)"></rect></clipPath></defs></svg> 