<?xml version="1.0" encoding="UTF-8"?> <svg xmlns="http://www.w3.org/2000/svg" width="121" height="30" viewBox="0 0 121 30" fill="none"><g clip-path="url(#clip0_353_869)"><path d="M11.4767 5.66406C13.0247 5.66406 14.9747 5.91206 16.2967 7.49005C17.3247 8.69605 17.6927 10.492 17.4907 12.132C17.2747 13.896 16.4647 15.4421 15.3227 16.4321C14.6547 17.0061 13.8567 17.41 13.0867 17.656C12.7027 17.778 12.5467 18.238 12.7647 18.576L17.1187 25.348C17.3827 25.76 17.0867 26.3021 16.5987 26.3021H11.4547C11.2247 26.3021 11.0127 26.174 10.9067 25.97L7.83873 20.132C7.55673 19.594 6.75076 19.742 6.67676 20.344L6.01276 25.7561C5.97476 26.066 5.71076 26.3 5.39876 26.3H1.28876C0.916758 26.3 0.628758 25.974 0.674758 25.606L3.05476 6.20806C3.09276 5.89806 3.35676 5.66406 3.66876 5.66406H11.4747H11.4767ZM7.42473 14.22C7.37873 14.59 7.66673 14.9141 8.03873 14.9141H8.36073C9.16473 14.9141 10.3367 14.698 11.0627 14.078C11.5147 13.676 11.8767 12.994 11.9567 12.346C12.0367 11.698 11.8687 11.046 11.4587 10.614C11.0247 10.12 10.1647 9.81005 8.98873 9.81005H8.51473C8.20273 9.81005 7.93873 10.0441 7.90073 10.3541L7.42673 14.22H7.42473Z" fill="white"></path><path d="M33.901 10.2121H28.623C28.311 10.2121 28.047 10.4461 28.009 10.7561L27.739 12.9521C27.693 13.3221 27.981 13.6461 28.353 13.6461H32.987C33.359 13.6461 33.647 13.9721 33.601 14.3401L33.195 17.6501C33.157 17.9601 32.893 18.1941 32.581 18.1941H27.643C27.331 18.1941 27.067 18.4281 27.029 18.7381L26.745 21.0581C26.699 21.4281 26.987 21.7521 27.359 21.7521H32.333C32.705 21.7521 32.993 22.0781 32.947 22.4461L32.541 25.7561C32.503 26.0661 32.239 26.3001 31.927 26.3001H21.447C21.075 26.3001 20.787 25.9741 20.833 25.6061L23.215 6.20611C23.253 5.89611 23.517 5.66211 23.829 5.66211H34.309C34.681 5.66211 34.969 5.98811 34.923 6.35608L34.517 9.66608C34.479 9.97608 34.215 10.2101 33.903 10.2101L33.901 10.2121Z" fill="white"></path><path d="M43.1625 20.008L42.3905 26.3021H37.7365C37.3645 26.3021 37.0765 25.976 37.1225 25.608L39.5045 6.20806C39.5425 5.89806 39.8065 5.66406 40.1185 5.66406H48.1105C49.9045 5.66406 51.7205 6.00406 53.1125 7.52005C54.5325 9.06805 54.6285 10.8 54.4145 12.532C54.2125 14.172 53.7605 16.09 51.9585 17.668C50.1565 19.246 48.2105 19.4621 46.6025 19.4621H43.7785C43.4665 19.4621 43.2025 19.696 43.1645 20.0061L43.1625 20.008ZM43.8465 14.438C43.8005 14.8081 44.0885 15.132 44.4605 15.132H45.5545C46.1125 15.132 47.1705 15.0701 47.8925 14.482C48.6105 13.9261 48.7445 13.0901 48.8045 12.5941C48.8725 12.0381 48.9025 11.294 48.4125 10.738C47.8745 10.088 46.8945 9.99605 46.2145 9.99605H44.9365C44.6245 9.99605 44.3605 10.2301 44.3225 10.5401L43.8445 14.438H43.8465Z" fill="white"></path><path d="M65.2886 6.35808L63.4849 21.0581C63.4386 21.4281 63.7268 21.7521 64.0986 21.7521H69.1349C69.5068 21.7521 69.7949 22.0781 69.7486 22.4461L69.343 25.7561C69.3049 26.0661 69.0405 26.3001 68.7286 26.3001H58.1867C57.8147 26.3001 57.5267 25.9741 57.5727 25.6061L59.9547 6.20611C59.9927 5.89611 60.2567 5.66211 60.5687 5.66211H64.6749C65.0468 5.66211 65.3349 5.98811 65.2886 6.35608V6.35808Z" fill="white"></path><path d="M106.818 16.2221L101.286 6.59208C101.048 6.18011 101.346 5.66411 101.823 5.66411H106.825C107.046 5.66411 107.253 5.78211 107.363 5.97611L109.953 10.5001C110.17 10.8801 110.705 10.9201 110.976 10.5761L114.673 5.89811C114.79 5.75011 114.968 5.66211 115.158 5.66211H120.05C120.576 5.66211 120.863 6.27808 120.525 6.68008L112.448 16.2581C112.37 16.3501 112.323 16.4621 112.306 16.5821L111.18 25.7561C111.143 26.0661 110.878 26.3001 110.566 26.3001H106.408C106.036 26.3001 105.748 25.9741 105.794 25.6061L106.9 16.6041C106.916 16.4721 106.89 16.3361 106.823 16.2201L106.818 16.2221Z" fill="white"></path><path d="M81.5586 7.87184L78.5205 1.20982C78.2305 0.577822 77.2205 0.839822 77.1267 1.57782L73.9205 27.6818C73.8305 28.4198 74.7886 28.6878 75.2249 28.0498L79.893 21.4218L81.5567 7.87384L81.5586 7.87184Z" fill="url(#paint0_linear_353_869)"></path><path d="M99.6085 15.4083H92.5404L80.6029 22.3722L75.9785 28.9563C75.8829 29.0782 75.8329 29.2303 75.8366 29.3862C75.8404 29.5422 75.9004 29.6923 76.0029 29.8083C76.1066 29.9243 76.2466 30.0023 76.4004 30.0243C76.5547 30.0483 76.7129 30.0163 76.8447 29.9342L99.8148 16.7483C100.483 16.3643 100.343 15.4062 99.6066 15.4062L99.6085 15.4083Z" fill="url(#paint1_linear_353_869)"></path><path d="M82.787 7.75219L92.7588 14.3302L99.6532 14.3122C100.387 14.3122 100.769 13.3562 100.205 12.9742L80.887 0.112161C80.2807 -0.281839 79.457 0.438161 79.7532 1.09416L82.7851 7.75019L82.787 7.75219Z" fill="url(#paint2_linear_353_869)"></path></g><defs><linearGradient id="paint0_linear_353_869" x1="68.3767" y1="22.5018" x2="84.123" y2="6.75584" gradientUnits="userSpaceOnUse"><stop offset="0.25" stop-color="#5CB847"></stop><stop offset="1" stop-color="#1AA94A"></stop></linearGradient><linearGradient id="paint1_linear_353_869" x1="77.9947" y1="31.8003" x2="97.1385" y2="12.6543" gradientUnits="userSpaceOnUse"><stop offset="0.25" stop-color="#5CB847"></stop><stop offset="1" stop-color="#1AA94A"></stop></linearGradient><linearGradient id="paint2_linear_353_869" x1="86.1388" y1="11.1042" x2="92.2451" y2="4.99816" gradientUnits="userSpaceOnUse"><stop stop-color="#5CB847"></stop><stop offset="1" stop-color="#1AA94A"></stop></linearGradient><clipPath id="clip0_353_869"><rect width="120" height="30" fill="white" transform="translate(0.669922)"></rect></clipPath></defs></svg> 