<?xml version="1.0" encoding="UTF-8"?> <svg xmlns="http://www.w3.org/2000/svg" width="99" height="27" viewBox="0 0 99 27" fill="none"><g clip-path="url(#clip0_353_717)"><path d="M16.4585 23.6108C16.4585 22.1465 16.4174 20.7889 16.486 19.4358C16.502 19.0976 16.7972 18.6867 17.0855 18.4619C19.1701 16.8387 20.1861 14.7705 20.2502 12.1121C20.3623 7.51946 22.6277 4.06646 26.6687 2.00511C30.7052 -0.0539786 34.8241 0.148071 38.7118 2.64077C44.0389 6.05744 46.0685 13.4811 41.8879 19.3586C37.4052 25.663 28.4101 26.0626 23.4858 20.5914C24.218 19.1521 24.9411 17.7241 25.6779 16.2757C26.1768 16.8183 26.655 17.3926 27.1882 17.9102C29.5817 20.2304 33.5243 20.5051 36.3435 18.5663C39.1328 16.6457 40.2861 12.9407 39.0253 9.93724C37.6043 6.55008 34.2337 4.60678 30.7922 5.29465C27.3003 5.99388 24.7466 9.01327 24.7649 12.666C24.7924 17.715 21.0648 22.5846 16.4563 23.613L16.4585 23.6108Z" fill="white"></path><path d="M64.2062 18.5059C64.2062 19.8295 64.2336 20.9623 64.1993 22.0929C64.1535 23.5867 63.3412 24.463 62.0255 24.5016C60.6868 24.5425 59.6731 23.6207 59.6571 22.1428C59.6137 18.0587 59.4992 13.9678 59.6937 9.89274C59.886 5.87219 61.9088 2.86188 65.7713 1.36581C69.3731 -0.0281035 72.7162 0.6348 75.7138 3.03896C80.8853 7.18665 79.5649 16.2584 73.4599 18.8805C70.6613 20.0837 67.9521 20.1723 65.197 18.8624C64.9338 18.7375 64.6455 18.6603 64.2039 18.5037L64.2062 18.5059ZM69.357 5.21383C66.5516 5.22291 64.3 7.48404 64.3206 10.2719C64.3412 13.0393 66.6455 15.2845 69.4417 15.2595C72.1418 15.2368 74.4278 12.9303 74.4095 10.2446C74.3889 7.41594 72.1693 5.20475 69.357 5.21383Z" fill="white"></path><path d="M79.3466 15.1815C81.5456 19.9898 86.7948 20.9456 90.4034 18.5119C93.9044 16.1532 94.6733 11.2268 92.0258 7.91002C89.6918 4.98598 84.4265 3.41272 80.2573 8.02126C79.6463 6.60465 79.0239 5.16533 78.358 3.62612C80.0193 2.06194 82.0902 1.13342 84.4425 0.799701C93.2271 -0.446648 100.46 7.92818 97.6183 16.0419C94.8609 23.9128 86.0374 26.7755 79.1452 21.9854C78.1681 21.3066 77.3878 20.3304 76.5846 19.4336C76.4107 19.2384 76.3764 18.6731 76.532 18.4779C77.413 17.3655 78.3695 16.3121 79.3488 15.1815H79.3466Z" fill="white"></path><path d="M19.2881 8.70832C16.9403 5.64126 13.9015 4.19967 10.0733 5.75931C6.80335 7.08965 5.28853 9.81845 5.52422 13.2488C5.70957 15.9707 7.73467 18.4498 10.5881 19.317C10.5881 18.8426 10.5698 18.409 10.5927 17.9753C10.6591 16.6654 11.5812 15.7097 12.8009 15.6711C13.977 15.6325 15.0639 16.4793 15.1097 17.7233C15.1967 20.1025 15.2012 22.4885 15.1051 24.8654C15.0525 26.1754 14.064 26.9313 12.8146 26.9064C11.5698 26.8814 10.7529 26.0982 10.5927 24.7701C10.5698 24.5862 10.5698 24.4001 10.5561 24.1594C8.39826 23.5692 6.44638 22.6588 4.75537 21.1673C0.636512 17.544 -0.297095 10.6675 2.79891 6.17703C6.35943 1.01228 12.1029 -0.704 17.9082 1.78643C19.1004 2.29723 20.1278 3.20985 21.1804 4.00443C21.3681 4.14745 21.4459 4.69231 21.3292 4.92841C20.6976 6.19973 19.9883 7.43019 19.2881 8.70832Z" fill="white"></path><path d="M51.6142 14.7346C54.6736 12.0921 55.0947 9.08407 52.7629 6.72531C50.4335 4.36883 47.4038 4.76612 44.6671 7.77188C43.8662 6.45743 43.0607 5.13389 42.2393 3.78538C44.1728 1.19734 48.8866 -0.0444729 52.2435 1.20415C57.6415 3.20875 60.0785 8.49381 58.0808 13.8629C57.9893 14.1103 57.868 14.3464 57.7422 14.5803C56.4173 17.0412 56.3761 17.0434 53.9116 15.7608C53.1748 15.3771 52.3922 15.082 51.6119 14.7369L51.6142 14.7346Z" fill="white"></path><path d="M45.4079 14.0918C47.7145 14.875 50.0554 15.5924 52.3367 16.4642C54.5266 17.3019 56.3984 18.6731 57.9979 20.378C59.1603 21.6176 59.1283 22.7776 57.991 23.8469C57.0986 24.6892 55.7577 24.5166 54.6685 23.4405C52.7029 21.4995 50.3849 20.21 47.6298 19.7356C47.4422 19.7038 47.2591 19.6516 47.0738 19.6084C44.2043 18.916 44.1265 18.7775 44.9274 16.0714C45.1402 15.354 45.2821 14.6162 45.4079 14.0941V14.0918Z" fill="white"></path><path d="M30.0843 15.6279C30.0523 15.1738 30.0225 14.9536 30.0225 14.7334C30.018 12.999 30.0225 11.2645 30.0225 9.30078C31.9172 10.3814 33.6654 11.3758 35.6059 12.4836C33.7112 13.562 31.9927 14.5427 30.0889 15.6279H30.0843Z" fill="white"></path><path d="M44.0288 24.3437C42.7886 24.3323 41.8206 23.3538 41.8184 22.1075C41.8184 20.784 42.8023 19.8168 44.1226 19.8464C45.3674 19.8759 46.3445 20.8566 46.3468 22.078C46.3468 23.3425 45.3125 24.3527 44.0288 24.3414V24.3437Z" fill="white"></path></g><defs><clipPath id="clip0_353_717"><rect width="97.2828" height="26.3095" fill="white" transform="translate(0.964844 0.599609)"></rect></clipPath></defs></svg> 