<?xml version="1.0" encoding="UTF-8"?> <svg xmlns="http://www.w3.org/2000/svg" width="160" height="27" viewBox="0 0 160 27" fill="none"><g clip-path="url(#clip0_299_46739)"><path d="M29.1482 12.1291L23.281 1.86081C23.0566 1.47776 22.7372 1.16034 22.3543 0.939858C21.9714 0.719378 21.5381 0.603453 21.0973 0.603516H9.36162C8.91903 0.603607 8.48426 0.721227 8.10096 0.944566C7.71766 1.16791 7.39933 1.4891 7.17793 1.8759L1.31073 12.1405C1.09173 12.5281 0.976562 12.9666 0.976562 13.4128C0.976562 13.8591 1.09173 14.2976 1.31073 14.6852L7.17793 24.9498C7.39836 25.3374 7.71648 25.6593 8.09999 25.8828C8.48351 26.1063 8.91878 26.2234 9.36162 26.2222H21.096C21.5386 26.2221 21.9734 26.1044 22.3567 25.8811C22.74 25.6578 23.0583 25.3366 23.2797 24.9498L29.1469 14.6852C29.3662 14.2957 29.4817 13.8554 29.4819 13.4073C29.4821 12.9593 29.3671 12.5189 29.1482 12.1291ZM15.2288 22.2189V20.4587C16.6107 20.4587 17.9616 20.0451 19.1106 19.2702C20.2596 18.4953 21.1552 17.3939 21.684 16.1053C22.2129 14.8167 22.3512 13.3987 22.0816 12.0307C21.812 10.6628 21.1466 9.40618 20.1694 8.41992C19.1923 7.43365 17.9473 6.762 16.5919 6.48989C15.2366 6.21778 13.8317 6.35744 12.555 6.8912C11.2783 7.42496 10.187 8.32885 9.41928 9.48858C8.65153 10.6483 8.24175 12.0118 8.24175 13.4066C8.23785 14.9446 8.7385 16.4406 9.66557 17.6612L10.9262 16.4215C10.3139 15.5371 9.98752 14.4831 9.99194 13.404C9.99194 12.3564 10.2997 11.3323 10.8764 10.4612C11.4531 9.59011 12.2727 8.91118 13.2317 8.51026C14.1906 8.10935 15.2459 8.00445 16.2639 8.20883C17.2819 8.41322 18.217 8.91771 18.951 9.6585C19.6849 10.3993 20.1848 11.3431 20.3873 12.3706C20.5898 13.3982 20.4858 14.4632 20.0886 15.4311C19.6914 16.399 19.0188 17.2263 18.1557 17.8083C17.2927 18.3904 16.278 18.701 15.24 18.701V16.9408C15.9317 16.9388 16.6072 16.73 17.1813 16.3407C17.7554 15.9514 18.2024 15.3992 18.4657 14.7537C18.729 14.1081 18.7969 13.3983 18.6608 12.7139C18.5246 12.0295 18.1906 11.4011 17.7008 10.9082C17.2111 10.4153 16.5875 10.0799 15.9091 9.94447C15.2306 9.80901 14.5275 9.87953 13.8887 10.1471C13.2499 10.4147 12.704 10.8674 12.3199 11.448C11.9359 12.0286 11.7309 12.711 11.7309 13.4091C11.7288 14.0273 11.89 14.6349 12.1981 15.1693L13.5023 13.8856C13.4588 13.7323 13.4369 13.5736 13.4375 13.4141C13.4375 13.0563 13.5426 12.7065 13.7396 12.4089C13.9366 12.1114 14.2165 11.8795 14.5441 11.7426C14.8716 11.6056 15.2321 11.5698 15.5798 11.6396C15.9275 11.7094 16.2469 11.8817 16.4976 12.1348C16.7483 12.3878 16.919 12.7102 16.9882 13.0611C17.0573 13.4121 17.0218 13.7759 16.8862 14.1065C16.7505 14.4371 16.5207 14.7196 16.2259 14.9184C15.9312 15.1172 15.5846 15.2233 15.2301 15.2233C15.0562 15.2219 14.8838 15.1921 14.7193 15.1353L10.2099 19.5761C10.1678 19.6185 10.1205 19.6552 10.0692 19.6855C10.058 19.6968 10.0368 19.6968 10.0256 19.7069C9.99177 19.7296 9.95539 19.7482 9.9172 19.7622C9.89602 19.7735 9.8736 19.7735 9.85242 19.7836L9.75401 19.8162C9.73298 19.8157 9.71211 19.82 9.69298 19.8288C9.66059 19.8288 9.6282 19.8401 9.60578 19.8401C9.57339 19.8401 9.541 19.8288 9.50737 19.8288C9.48157 19.8298 9.45581 19.8259 9.43138 19.8175L9.33297 19.7848C9.31179 19.7735 9.28937 19.7735 9.26819 19.7634C9.23318 19.7493 9.20011 19.7307 9.16978 19.7081C9.15015 19.6997 9.13171 19.6888 9.11497 19.6754C9.08361 19.6526 9.05442 19.627 9.02778 19.5987C9.01656 19.5874 8.99539 19.5774 8.98418 19.5547C7.57906 18.0975 6.71665 16.1945 6.54324 14.1687C6.36982 12.1428 6.89608 10.1187 8.03274 8.43984C9.1694 6.76096 10.8465 5.53063 12.7795 4.95756C14.7125 4.38449 16.7824 4.50397 18.638 5.29572C20.4937 6.08748 22.0209 7.50276 22.9605 9.30149C23.9001 11.1002 24.1943 13.1716 23.7932 15.1643C23.3921 17.1571 22.3203 18.9484 20.7598 20.2344C19.1992 21.5205 17.246 22.2221 15.2313 22.2202L15.2288 22.2189ZM36.2112 5.15492H41.5789C46.7722 5.0996 50.5977 8.48927 50.5217 13.3801C50.5977 18.173 46.7734 21.7814 41.5789 21.7034H36.2112V5.15492ZM41.5465 18.6558C44.8501 18.6558 47.0661 16.5724 47.0661 13.3915C47.0661 10.1778 44.9036 8.2265 41.5465 8.2265H39.5534V18.662H41.5465V18.6558ZM62.8216 21.7148H59.7361V20.509C59.2455 21.0038 58.66 21.3923 58.0155 21.6506C57.371 21.909 56.681 22.0318 55.9878 22.0115C53.3805 22.0115 51.7387 20.4763 51.7387 18.305C51.7387 16.0682 53.5313 14.6965 56.3889 14.6965H59.4745V14.1484C59.5004 13.8448 59.4582 13.5392 59.351 13.2543C59.2439 12.9695 59.0745 12.7126 58.8554 12.5029C58.6364 12.2932 58.3734 12.136 58.0859 12.043C57.7984 11.95 57.4938 11.9236 57.1949 11.9657C56.5585 11.983 55.9344 12.146 55.3696 12.4424C54.8049 12.7389 54.3143 13.161 53.9349 13.6769L52.1909 11.5935C52.8311 10.7776 53.6497 10.1223 54.5827 9.67884C55.5156 9.2354 56.5376 9.01588 57.5686 9.03745C58.2773 8.9694 58.9922 9.06023 59.6621 9.30344C60.3321 9.54665 60.9405 9.93624 61.4439 10.4444C61.9473 10.9525 62.3333 11.5666 62.5743 12.2427C62.8153 12.9189 62.9052 13.6405 62.8378 14.3558V21.7148H62.8216ZM59.4583 16.9219H56.8348C55.7374 16.9219 55.1183 17.3494 55.1183 18.1717C55.1183 18.994 55.8134 19.5208 56.8784 19.5208C57.2102 19.5397 57.5423 19.4903 57.8545 19.3755C58.1667 19.2608 58.4525 19.083 58.6944 18.8532C58.9364 18.6233 59.1294 18.3461 59.2618 18.0386C59.3942 17.731 59.4632 17.3994 59.4645 17.064L59.4583 16.9219ZM72.4583 22.0115C71.7745 22.0335 71.0937 21.9112 70.4595 21.6525C69.8252 21.3938 69.2514 21.0043 68.7748 20.509V26.2222H65.4114V9.30274H68.497V10.858C68.9594 10.25 69.562 9.76528 70.2524 9.446C70.9428 9.12673 71.7001 8.98259 72.4583 9.02614C73.2776 9.03391 74.0867 9.21002 74.8364 9.54372C75.5861 9.87743 76.2606 10.3617 76.8188 10.9671C77.3769 11.5725 77.8071 12.2863 78.0831 13.0649C78.359 13.8436 78.475 14.6708 78.4239 15.4962C78.4759 16.324 78.3609 17.1538 78.0858 17.9354C77.8107 18.717 77.3813 19.4342 76.8235 20.0433C76.2657 20.6525 75.5913 21.141 74.8409 21.4793C74.0906 21.8176 73.28 21.9987 72.4583 22.0115ZM71.8354 12.0864C71.4015 12.0782 70.9708 12.1631 70.5719 12.3354C70.1729 12.5077 69.8147 12.7635 69.5209 13.086C69.2271 13.4084 69.0045 13.79 68.8677 14.2057C68.7309 14.6214 68.6831 15.0617 68.7274 15.4974C68.683 15.9342 68.7305 16.3756 68.867 16.7926C69.0034 17.2095 69.2257 17.5926 69.5192 17.9168C69.8127 18.2409 70.1708 18.4987 70.57 18.6733C70.9692 18.8479 71.4004 18.9353 71.8354 18.9298C72.2708 18.9316 72.7019 18.843 73.1019 18.6696C73.502 18.4963 73.8625 18.2417 74.161 17.9219C74.4596 17.6021 74.6898 17.2237 74.8375 16.8103C74.9851 16.397 75.0471 15.9574 75.0194 15.5188C75.0527 15.0783 74.995 14.6356 74.8499 14.2187C74.7048 13.8019 74.4755 13.42 74.1765 13.0973C73.8775 12.7746 73.5154 12.5181 73.113 12.3441C72.7107 12.1701 72.2769 12.0823 71.8392 12.0864H71.8354ZM87.4639 22.0115C86.7801 22.0335 86.0993 21.9112 85.465 21.6525C84.8308 21.3938 84.257 21.0043 83.7803 20.509V26.2222H80.417V9.30274H83.5125V10.858C83.974 10.2515 84.575 9.76762 85.2635 9.44841C85.9521 9.12921 86.7073 8.98426 87.4639 9.02614C88.2832 9.03391 89.0923 9.21002 89.842 9.54372C90.5917 9.87743 91.2661 10.3617 91.8243 10.9671C92.3825 11.5725 92.8127 12.2863 93.0887 13.0649C93.3646 13.8436 93.4806 14.6708 93.4295 15.4962C93.4815 16.324 93.3665 17.1538 93.0914 17.9354C92.8163 18.717 92.3869 19.4342 91.8291 20.0433C91.2713 20.6525 90.5968 21.141 89.8465 21.4793C89.0961 21.8176 88.2856 21.9987 87.4639 22.0115ZM86.841 12.0864C86.4071 12.0782 85.9764 12.1631 85.5774 12.3354C85.1784 12.5077 84.8202 12.7635 84.5265 13.086C84.2327 13.4084 84.0101 13.79 83.8733 14.2057C83.7365 14.6214 83.6887 15.0617 83.733 15.4974C83.6885 15.9342 83.7361 16.3756 83.8726 16.7926C84.009 17.2095 84.2313 17.5926 84.5248 17.9168C84.8183 18.2409 85.1764 18.4987 85.5755 18.6733C85.9747 18.8479 86.406 18.9353 86.841 18.9298C87.2764 18.9316 87.7075 18.843 88.1075 18.6696C88.5076 18.4963 88.868 18.2417 89.1666 17.9219C89.4651 17.6021 89.6954 17.2237 89.843 16.8103C89.9907 16.397 90.0526 15.9574 90.025 15.5188C90.0593 15.0781 90.0022 14.6349 89.8575 14.2177C89.7127 13.8004 89.4835 13.4181 89.1843 13.0952C88.8851 12.7723 88.5226 12.5159 88.1198 12.3422C87.717 12.1685 87.2827 12.0814 86.8447 12.0864H86.841ZM105.632 21.7148L101.383 15.8696H98.9279V21.7148H95.5646V5.15492H101.726C105.159 5.15492 107.637 7.31496 107.637 10.4959C107.654 11.4776 107.392 12.4438 106.882 13.2798C106.372 14.1157 105.634 14.7863 104.758 15.212L109.408 21.7047H105.632V21.7148ZM98.918 12.8873H101.725C102.049 12.9221 102.377 12.8855 102.685 12.7801C102.994 12.6747 103.277 12.503 103.514 12.2768C103.75 12.0505 103.936 11.7752 104.057 11.4697C104.178 11.1643 104.232 10.8359 104.216 10.5072C104.226 10.1812 104.168 9.85673 104.044 9.55539C103.92 9.25405 103.734 8.98279 103.499 8.75971C103.263 8.53662 102.983 8.36683 102.677 8.26166C102.371 8.15649 102.046 8.11836 101.725 8.1498H98.9217L98.918 12.8873ZM120.68 21.7148H117.595V20.509C117.104 21.0038 116.519 21.3923 115.874 21.6506C115.23 21.909 114.54 22.0318 113.846 22.0115C111.239 22.0115 109.597 20.4763 109.597 18.305C109.597 16.0682 111.39 14.6965 114.247 14.6965H117.333V14.1484C117.359 13.8445 117.317 13.5387 117.209 13.2536C117.102 12.9685 116.933 12.7116 116.713 12.5018C116.494 12.2921 116.231 12.1349 115.943 12.0421C115.655 11.9493 115.35 11.9232 115.051 11.9657C114.415 11.983 113.79 12.146 113.226 12.4424C112.661 12.7389 112.17 13.161 111.791 13.6769L110.047 11.5935C110.686 10.7792 111.503 10.1249 112.434 9.68179C113.365 9.23863 114.385 9.01855 115.415 9.03871C116.123 8.97066 116.838 9.06149 117.508 9.3047C118.178 9.5479 118.787 9.93749 119.29 10.4456C119.793 10.9537 120.179 11.5678 120.42 12.244C120.661 12.9202 120.751 13.6417 120.684 14.3571V21.716L120.68 21.7148ZM117.317 16.9219H114.687C113.59 16.9219 112.971 17.3494 112.971 18.1717C112.971 18.994 113.666 19.5208 114.731 19.5208C115.062 19.5397 115.395 19.4903 115.707 19.3755C116.019 19.2608 116.305 19.083 116.547 18.8532C116.789 18.6233 116.982 18.3461 117.114 18.0386C117.247 17.731 117.315 17.3994 117.317 17.064V16.9219ZM135.589 2.89556V21.7034H132.503V20.1683C132.041 20.7754 131.44 21.2596 130.75 21.5788C130.061 21.898 129.305 22.0427 128.548 22.0002C127.727 21.9917 126.916 21.8143 126.165 21.4789C125.414 21.1435 124.739 20.6571 124.181 20.0495C123.623 19.4418 123.193 18.7256 122.918 17.9447C122.643 17.1638 122.529 16.3345 122.582 15.5075C122.529 14.6805 122.643 13.8512 122.918 13.0703C123.193 12.2894 123.623 11.5732 124.181 10.9655C124.739 10.3579 125.414 9.87148 126.165 9.53609C126.916 9.20069 127.727 9.02332 128.548 9.01482C129.231 8.9817 129.913 9.09676 130.549 9.35224C131.184 9.60773 131.758 9.99771 132.231 10.4959V2.89556H135.589ZM129.178 12.0864C128.743 12.0846 128.312 12.1732 127.912 12.3466C127.512 12.52 127.151 12.7745 126.853 13.0943C126.554 13.4142 126.324 13.7925 126.176 14.2059C126.029 14.6193 125.967 15.0589 125.994 15.4974C125.96 15.9385 126.017 16.3819 126.162 16.7995C126.307 17.217 126.537 17.5994 126.836 17.9224C127.136 18.2454 127.499 18.5018 127.902 18.6752C128.305 18.8487 128.74 18.9354 129.178 18.9298C129.612 18.938 130.043 18.8531 130.442 18.6808C130.841 18.5085 131.199 18.2527 131.493 17.9303C131.787 17.6079 132.009 17.2262 132.146 16.8105C132.283 16.3948 132.331 15.9545 132.286 15.5188C132.329 15.0824 132.28 14.6417 132.143 14.2256C132.006 13.8094 131.784 13.427 131.49 13.1033C131.197 12.7796 130.84 12.5217 130.442 12.3465C130.043 12.1713 129.613 12.0827 129.178 12.0864ZM148.605 21.7148H145.519V20.509C145.029 21.0038 144.443 21.3923 143.799 21.6506C143.154 21.909 142.464 22.0318 141.771 22.0115C139.164 22.0115 137.522 20.4763 137.522 18.305C137.522 16.0682 139.314 14.6965 142.172 14.6965H145.258V14.1484C145.284 13.8445 145.241 13.5387 145.134 13.2536C145.027 12.9685 144.857 12.7116 144.638 12.5018C144.419 12.2921 144.155 12.1349 143.867 12.0421C143.58 11.9493 143.275 11.9232 142.976 11.9657C142.339 11.983 141.715 12.146 141.15 12.4424C140.586 12.7389 140.095 13.161 139.716 13.6769L137.972 11.5935C138.611 10.7792 139.428 10.1249 140.359 9.68179C141.29 9.23863 142.31 9.01855 143.339 9.03871C144.048 8.97066 144.763 9.06149 145.433 9.3047C146.103 9.5479 146.711 9.93749 147.215 10.4456C147.718 10.9537 148.104 11.5678 148.345 12.244C148.586 12.9202 148.676 13.6417 148.609 14.3571V21.716L148.605 21.7148ZM145.258 16.9219H142.629C141.532 16.9219 140.913 17.3494 140.913 18.1717C140.913 18.994 141.608 19.5208 142.673 19.5208C143.005 19.5397 143.337 19.4903 143.649 19.3755C143.961 19.2608 144.247 19.083 144.489 18.8532C144.731 18.6233 144.924 18.3461 145.056 18.0386C145.189 17.731 145.258 17.3994 145.259 17.064L145.258 16.9219ZM158.765 12.2838H157.874C157.436 12.2324 156.993 12.2798 156.576 12.4228C156.158 12.5657 155.778 12.8005 155.462 13.1102C155.145 13.4198 154.901 13.7966 154.747 14.2132C154.593 14.6298 154.533 15.0757 154.57 15.5188V21.7148H151.207V9.30023H154.293V10.7813C154.695 10.2663 155.208 9.85119 155.794 9.56784C156.38 9.2845 157.023 9.14048 157.672 9.14684C158.044 9.13691 158.415 9.18873 158.77 9.30023V12.2838H158.765Z" fill="white"></path></g><defs><clipPath id="clip0_299_46739"><rect width="158.639" height="25.6186" fill="white" transform="translate(0.556641 0.604492)"></rect></clipPath></defs></svg> 