<?xml version="1.0" encoding="UTF-8"?> <svg xmlns="http://www.w3.org/2000/svg" width="166" height="32" viewBox="0 0 166 32" fill="none"><g clip-path="url(#clip0_353_1203)"><path fill-rule="evenodd" clip-rule="evenodd" d="M15.9383 18.3397C15.5561 18.5526 15.1692 18.768 14.7832 18.9973H14.7819C14.7991 19.0282 14.8177 19.0631 14.8378 19.1006C14.8857 19.1903 14.9417 19.2949 15.0047 19.3963C15.2648 19.8156 15.5249 20.2349 15.7849 20.6541C17.4083 23.2715 19.0316 25.8887 20.6597 28.5039C20.8166 28.7559 20.9591 29.0356 21.1019 29.3158C21.4451 29.9891 21.7898 30.6656 22.3387 30.9693C22.9376 31.2996 23.7832 31.2128 24.6005 31.1288C24.8475 31.1035 25.092 31.0784 25.3262 31.0652C25.6333 31.047 26.0504 30.8061 26.202 30.5431C27.6995 27.9549 29.1844 25.3601 30.6693 22.7653C31.8796 20.6504 33.0898 18.5356 34.3068 16.4244C34.5737 15.9619 34.5517 15.6354 34.2822 15.1949C33.0967 13.2562 31.9163 11.3141 30.7358 9.37197C29.0538 6.60451 27.3716 3.83698 25.6747 1.07885C25.5063 0.804195 25.0464 0.556749 24.7199 0.554158C23.0141 0.541494 21.3083 0.544743 19.6027 0.547991C17.295 0.552386 14.9876 0.556781 12.6806 0.52177C11.764 0.507917 11.372 1.00014 10.8813 1.61623C10.8214 1.69157 10.7599 1.76876 10.6958 1.8471C10.8295 1.8581 10.949 1.86648 11.0588 1.87417C11.2849 1.89002 11.4696 1.90297 11.6519 1.93001C12.0129 1.98406 12.3768 2.02821 12.7409 2.07238C13.5985 2.17643 14.4568 2.28056 15.2781 2.51429C18.6905 3.48464 20.8048 5.71295 21.3787 9.27048C21.8853 12.4108 20.8139 14.9695 18.3096 16.8713C17.5792 17.426 16.7698 17.8768 15.9383 18.3397ZM16.8301 19.7514C16.788 19.6792 16.7443 19.6044 16.698 19.5259H16.6967C25.5529 15.2701 23.861 5.04317 17.8031 1.99997C17.895 1.9883 17.9732 1.97612 18.0425 1.96532C18.1657 1.94615 18.261 1.93131 18.3563 1.93131C18.7359 1.93001 19.1154 1.92809 19.495 1.92618C21.0134 1.91851 22.5318 1.91084 24.0501 1.94297C24.3429 1.94944 24.7484 2.17227 24.9 2.41972C26.4621 4.96338 28.0114 7.51576 29.5607 10.0681C30.6145 11.8043 31.6684 13.5405 32.7263 15.274C32.9685 15.6704 32.9983 15.9645 32.7574 16.3829C31.7079 18.2052 30.664 20.0305 29.6202 21.8558C28.2158 24.3115 26.8115 26.7672 25.3936 29.2151C25.242 29.4768 24.8274 29.6582 24.5023 29.7334C23.4166 29.986 22.7896 29.4963 22.2234 28.5246C21.0509 26.5101 19.8113 24.5344 18.5716 22.5586C18.0717 21.7619 17.5718 20.9652 17.0763 20.1659C16.994 20.0324 16.9151 19.8973 16.8301 19.7514ZM17.062 31.0908L8.37419 15.8774H8.37548C8.57279 15.8774 8.75082 15.8766 8.91638 15.8758C9.215 15.8744 9.47307 15.8732 9.73061 15.8774C11.3435 15.9007 12.9176 15.7427 14.3466 14.9019C16.159 13.8356 17.0374 11.8885 16.6345 9.83635C16.2005 7.62359 14.8298 6.15187 12.6391 5.9692C10.912 5.82536 9.17139 5.83136 7.43214 5.83736C6.88434 5.83925 6.33668 5.84114 5.78961 5.83835C5.6186 5.83835 5.38411 6.05859 5.28176 6.23478C3.53928 9.25466 1.80197 12.2784 0.104828 15.3242C-0.0454532 15.5924 -0.0299069 16.0951 0.124261 16.3684C2.81119 21.1334 5.52662 25.8815 8.26148 30.6179C8.39492 30.8485 8.7771 31.0662 9.04657 31.0701C10.8554 31.098 12.6649 31.0952 14.4741 31.0925C15.0168 31.0916 15.5594 31.0908 16.102 31.0908H17.062ZM14.7319 29.7434C13.4025 27.4174 12.0875 25.1173 10.7731 22.8183C9.19684 20.0611 7.62138 17.3054 6.0228 14.508C6.52999 14.508 7.02092 14.5161 7.50011 14.524C8.59254 14.5419 9.62395 14.5589 10.6478 14.4769C11.6117 14.4005 12.6119 14.1608 13.4902 13.7618C14.9671 13.092 15.6188 11.632 15.3234 10.133C14.9814 8.4035 13.9631 7.38521 12.2258 7.27639C10.6215 7.17633 9.01037 7.17871 7.40088 7.18109C7.15567 7.18145 6.91049 7.18181 6.66539 7.18181C6.47235 7.18181 6.20418 7.39817 6.09535 7.58602C4.58347 10.1952 3.08454 12.8122 1.61153 15.4447C1.49752 15.6481 1.51177 16.0316 1.62837 16.2402C4.09635 20.6113 6.58506 24.972 9.08673 29.325C9.19426 29.5128 9.46373 29.7214 9.66065 29.7253C10.9075 29.75 12.1552 29.7476 13.4747 29.745C13.886 29.7443 14.3044 29.7434 14.7319 29.7434Z" fill="url(#paint0_linear_353_1203)"></path><path d="M118.891 11.1655C118.319 11.4998 117.822 11.79 117.26 12.1178C116.092 10.1317 114.385 8.96315 112.127 8.69756C110.319 8.4851 108.598 8.79473 107.061 9.83245C104.256 11.7291 103.163 15.4576 104.451 18.6809C105.745 21.9197 109.025 23.6454 112.737 23.0378C115.605 22.5688 117.697 20.5439 117.856 18.0059H111.071V16.2997H119.69C120.276 18.6382 119.012 21.6852 116.754 23.3111C112.216 26.5797 103.362 25.1935 102.172 17.1587C101.56 13.0337 103.699 9.22743 107.509 7.53936C111.099 5.94845 115.531 6.97321 118.05 9.98532C118.337 10.3299 118.576 10.7173 118.892 11.163L118.891 11.1655Z" fill="white"></path><path d="M84.2858 21.113V20.1996C84.2858 16.1654 84.3105 12.1324 84.2651 8.09809C84.256 7.30652 84.4439 6.98912 85.2471 7.12644C85.4959 7.1692 85.7576 7.13292 86.0698 7.13292V24.5332C84.8015 24.8026 84.6395 24.7405 83.9451 23.7261C81.0937 19.5635 78.2435 15.4023 75.392 11.2397C75.2858 11.0843 75.1705 10.934 74.9697 10.6594V24.572H73.1611C73.1611 18.7888 73.1611 13.0172 73.1611 7.24693C74.2442 6.92046 74.6354 7.05519 75.2469 7.94911C78.0841 12.0948 80.9226 16.2392 83.7612 20.3836C83.8816 20.5598 84.0112 20.7321 84.2871 21.113H84.2858Z" fill="white"></path><path d="M137.792 24.6069V7.13283C138.746 7.13283 139.666 7.12247 140.587 7.13542C142.288 7.15874 144.006 7.0564 145.687 7.2585C149.311 7.6938 152.111 10.5219 152.626 14.1637C153.168 17.9881 152.152 21.258 148.782 23.4254C147.808 24.0524 146.558 24.4787 145.405 24.5551C142.897 24.7235 140.369 24.6069 137.792 24.6069ZM139.641 8.96989V22.8554C141.54 22.8554 143.396 22.9059 145.244 22.8295C145.932 22.801 146.653 22.5678 147.28 22.2659C149.869 21.0196 151.345 17.8792 150.95 14.9449C150.516 11.7294 148.343 9.2873 145.687 9.01005C143.707 8.80277 141.688 8.96989 139.641 8.96989Z" fill="white"></path><path d="M53.3615 17.4801C54.7529 19.8392 56.1262 22.166 57.5707 24.6158C56.8595 24.6158 56.283 24.6625 55.7194 24.5912C55.5095 24.5653 55.2763 24.2997 55.1494 24.086C53.9808 22.1245 52.8472 20.1411 51.6592 18.19C51.5089 17.9426 51.1138 17.712 50.8249 17.7016C49.4309 17.6511 48.033 17.6783 46.5833 17.6783V24.577H44.7592V23.9797C44.7592 18.5877 44.767 13.1971 44.7476 7.80506C44.7463 7.2726 44.881 7.11066 45.4251 7.11843C47.4954 7.15082 49.5669 7.12879 51.6385 7.13138C54.2308 7.13657 56.4358 8.84407 56.9255 11.2188C57.4554 13.7917 56.2298 16.1638 53.8111 17.2508C53.6789 17.3104 53.552 17.3816 53.3602 17.4788L53.3615 17.4801ZM46.617 15.9086C48.4398 15.9086 50.2043 15.9876 51.9598 15.8879C53.9342 15.7752 55.2517 14.1894 55.1675 12.2332C55.0846 10.3145 53.6453 8.91144 51.6929 8.88424C50.1642 8.86221 48.6342 8.87646 47.1041 8.88164C46.9422 8.88164 46.7815 8.92181 46.6183 8.94383V15.9099L46.617 15.9086Z" fill="white"></path><path d="M135.55 24.5633C135.49 24.5827 135.469 24.5931 135.449 24.5944C134.278 24.6842 133.495 24.1845 133.099 23.0954C132.817 22.3272 132.549 21.5512 132.212 20.8062C132.119 20.6002 131.804 20.367 131.588 20.3632C129.172 20.3321 126.754 20.3334 124.338 20.3619C124.139 20.3645 123.839 20.5808 123.76 20.7712C123.329 21.8038 122.916 22.848 122.569 23.9116C122.382 24.4842 122.094 24.7058 121.502 24.6254C121.15 24.5775 120.786 24.6164 120.325 24.6164C120.886 23.1524 121.405 21.7908 121.929 20.4305C123.575 16.1488 125.217 11.8645 126.887 7.59183C126.966 7.38843 127.319 7.13321 127.506 7.16172C128.025 7.24074 128.755 6.74585 129.049 7.50374C131.221 13.1056 133.366 18.7191 135.516 24.3301C135.538 24.3871 135.536 24.4544 135.55 24.5633ZM131.383 18.5727C130.246 15.5477 129.139 12.6029 127.977 9.50921C126.811 12.6094 125.702 15.5593 124.57 18.5727H131.385H131.383Z" fill="white"></path><path d="M91.9179 8.87716V14.9195H99.5227V16.6724C98.3995 16.6724 97.284 16.6724 96.1673 16.6724C94.9145 16.6724 93.663 16.6581 92.4115 16.6892C92.234 16.6931 91.9102 16.912 91.9089 17.0364C91.8765 18.9538 91.8868 20.8725 91.8868 22.8883C92.291 22.8883 92.6499 22.8883 93.0075 22.8883C95.1878 22.8883 97.3682 22.9103 99.5486 22.8741C100.159 22.8637 100.431 23.0049 100.338 23.6488C100.295 23.939 100.33 24.2421 100.33 24.579H90.0524C90.042 24.36 90.02 24.132 90.02 23.9053C90.0187 18.5755 90.029 13.2444 90.0044 7.91458C90.0018 7.30309 90.1443 7.11135 90.783 7.12042C93.6539 7.1567 96.5261 7.15411 99.397 7.12172C100.023 7.11524 100.286 7.23054 100.235 7.92365C100.194 8.50405 100.257 8.92639 99.4164 8.90177C97.1726 8.83829 94.9261 8.88105 92.681 8.88105C92.4465 8.88105 92.2133 8.88105 91.9166 8.88105L91.9179 8.87716Z" fill="white"></path><path d="M59.9246 24.569V12.2187C59.9246 10.7081 59.9104 9.1975 59.9415 7.68821C59.9454 7.50036 60.1863 7.15705 60.3198 7.15575C63.5534 7.12595 66.7884 7.13243 70.1205 7.13243C70.1205 7.62344 70.1736 8.07687 70.092 8.50699C70.0635 8.66115 69.7137 8.85808 69.509 8.86067C67.2003 8.88528 64.8904 8.87621 62.5818 8.87621C62.3304 8.87621 62.0778 8.87621 61.7967 8.87621V14.9173C62.8694 14.9173 63.9188 14.9173 64.9681 14.9173C66.1989 14.9173 67.4296 14.9509 68.6578 14.903C69.2874 14.8784 69.5932 15.0183 69.4831 15.7062C69.4364 15.9938 69.4753 16.2957 69.4753 16.6623H61.8109V22.8848C62.1102 22.8848 62.403 22.8848 62.6971 22.8848C64.9202 22.8848 67.1433 22.9159 69.3652 22.8679C70.0764 22.8524 70.3601 23.0402 70.2474 23.758C70.2086 24.0067 70.2409 24.2671 70.2409 24.569H59.9234H59.9246Z" fill="white"></path><path d="M165.97 24.5839H155.651V23.988C155.651 18.5947 155.659 13.2014 155.64 7.80811C155.638 7.27694 155.772 7.1163 156.317 7.12019C159.274 7.14739 162.23 7.13185 165.188 7.13444C165.378 7.13444 165.569 7.14998 165.848 7.16294C165.848 7.63451 165.902 8.08924 165.82 8.51806C165.791 8.66964 165.435 8.85879 165.228 8.86138C162.919 8.88599 160.609 8.87692 158.301 8.87692C158.066 8.87692 157.833 8.87692 157.548 8.87692V14.9167H161.551C162.458 14.9167 163.367 14.9685 164.269 14.9011C165.028 14.8441 165.247 15.0773 165.236 15.8456C165.224 16.5361 165.026 16.6993 164.364 16.6864C162.314 16.6449 160.263 16.6903 158.214 16.6592C157.659 16.6514 157.466 16.7822 157.482 17.3717C157.525 18.9885 157.521 20.6079 157.483 22.2248C157.47 22.7831 157.662 22.9023 158.181 22.8971C160.469 22.8712 162.757 22.923 165.044 22.866C165.83 22.8466 166.088 23.0928 165.977 23.8351C165.943 24.0618 165.972 24.2989 165.972 24.5839H165.97Z" fill="white"></path></g><defs><linearGradient id="paint0_linear_353_1203" x1="5" y1="4" x2="23" y2="31" gradientUnits="userSpaceOnUse"><stop stop-color="#FC9E34"></stop><stop offset="1" stop-color="#F46337"></stop></linearGradient><clipPath id="clip0_353_1203"><rect width="166" height="30.6846" fill="white" transform="translate(0 0.521484)"></rect></clipPath></defs></svg> 