<?xml version="1.0" encoding="UTF-8"?> <svg xmlns="http://www.w3.org/2000/svg" width="120" height="38" viewBox="0 0 120 38" fill="none"><g clip-path="url(#clip0_353_1342)"><path d="M0.114483 18.7547C0.114483 16.6622 0.0858975 14.5669 0.128775 12.4745C0.143068 11.6741 0.245974 10.8595 0.431777 10.0791C0.720485 8.8728 1.42368 7.92664 2.52992 7.32063C6.61758 5.08243 10.6967 2.83278 14.8015 0.623159C16.4308 -0.254402 18.0888 -0.191515 19.7067 0.726065C23.5542 2.90425 27.4046 5.07957 31.2522 7.25489C31.3751 7.32635 31.5009 7.39781 31.6266 7.4607C33.519 8.384 34.2222 9.97047 34.2136 11.9971C34.1964 15.516 34.2279 19.0319 34.2107 22.5507C34.205 23.8799 34.1078 25.2092 34.0678 26.5384C34.0106 28.4335 33.073 29.7742 31.458 30.6689C29.337 31.8437 27.2017 32.9929 25.0749 34.1534C23.3627 35.0881 21.6447 36.0086 19.9468 36.969C17.8629 38.1467 15.8706 38.1753 13.7524 36.9233C9.98776 34.6965 6.16308 32.5755 2.32411 30.4802C1.06351 29.7942 0.371748 28.8595 0.317436 27.4502C0.205955 24.5546 0.108766 21.656 0.00585938 18.7575C0.0430199 18.7575 0.0801805 18.7575 0.1202 18.7547H0.114483ZM21.1016 3.01287C20.3527 2.57266 19.8239 2.27252 19.3065 1.95522C17.8744 1.08338 16.448 1.09767 14.9816 1.90663C11.1912 3.99619 7.39509 6.07433 3.59328 8.14102C2.11544 8.94426 1.37508 10.1534 1.37508 11.8371C1.3808 16.5507 1.37508 21.2616 1.38652 25.9752C1.38652 26.4955 1.46656 27.0157 1.52944 27.5331C1.62663 28.3506 2.05541 28.9023 2.79004 29.3054C5.08256 30.5631 7.37223 31.8294 9.61329 33.1758C10.8768 33.9362 11.983 33.8132 13.2121 33.1129C15.6933 31.7037 18.2317 30.4002 20.7272 29.0167C22.3051 28.142 23.8944 27.2673 25.3951 26.2697C26.6843 25.4121 27.4304 24.1115 27.4589 22.5364C27.5047 19.7294 27.4789 16.9195 27.4675 14.1124C27.4647 13.1834 27.0159 12.4831 26.2612 11.9628C25.538 11.4655 25.195 11.454 24.4461 11.9514C24.0487 12.2144 23.7086 12.586 23.2827 12.7689C22.3279 13.1806 22.1678 13.9095 22.185 14.8442C22.2107 16.2706 22.1221 17.697 22.0821 19.1234C22.0306 21.0272 21.2588 22.5679 19.6066 23.5198C17.2169 24.8947 14.79 26.2068 12.3317 27.4531C10.831 28.2134 9.30743 28.102 7.85531 27.1644C6.38032 26.2125 5.55707 24.8404 5.4999 23.1425C5.40843 20.3411 5.44845 17.5341 5.49133 14.7299C5.51991 12.8919 6.40033 11.4626 7.88104 10.4021C8.38414 10.0448 8.90438 9.70748 9.4475 9.4102C12.7434 7.60648 16.0478 5.81992 19.3494 4.02192C19.8753 3.73607 20.3899 3.42163 21.1073 3.00715L21.1016 3.01287ZM12.7634 34.8652C13.5094 35.314 13.9982 35.5912 14.4756 35.8971C15.9878 36.8633 17.5199 36.8433 19.0721 36.0029C19.4494 35.7999 19.8324 35.6084 20.2069 35.4026C23.5456 33.5846 26.8501 31.6951 30.2374 29.9657C32.2326 28.9452 33.0244 27.4474 32.9901 25.2663C32.9244 20.89 32.9701 16.5107 32.9644 12.1344C32.9644 11.7056 33.0273 11.2511 32.9015 10.8595C32.7329 10.3364 32.5271 9.72464 32.1354 9.39019C30.5804 8.06099 28.711 7.25775 26.8787 6.2344C26.5442 7.69224 26.2555 8.96713 25.9554 10.2792C26.2269 10.4536 26.5013 10.6394 26.7843 10.8052C28.0392 11.5484 28.6595 12.6375 28.6424 14.1067C28.6052 17.1968 28.5738 20.2839 28.5709 23.374C28.5709 24.283 28.2536 25.0348 27.7162 25.7351C26.8644 26.8471 25.8239 27.7275 24.5861 28.3907C21.0673 30.2773 17.5542 32.1782 14.0411 34.0791C13.6809 34.2735 13.3436 34.5079 12.7634 34.868V34.8652ZM13.2979 16.6537C11.5056 17.6313 9.96489 18.4688 8.42415 19.3092C7.17213 19.9933 6.57184 21.0529 6.6233 22.4879C6.6233 22.5364 6.6233 22.5822 6.6233 22.6308C6.70333 25.4979 9.4132 27.7647 12.4518 26.0581C13.1836 25.6465 13.4723 25.212 13.4523 24.3945C13.4065 22.3021 13.438 20.2096 13.4237 18.1172C13.4237 17.7084 13.3551 17.2997 13.295 16.6537H13.2979Z" fill="white"></path><path d="M61.4837 25.1294C58.4422 26.6187 55.9467 26.2842 54.2431 24.2404C52.6766 22.3595 52.6137 19.2266 54.103 17.3342C55.8353 15.1332 58.2907 14.7759 61.5494 16.2566C62.2945 15.7249 63.0863 15.5486 63.9248 15.7277V25.6896C62.9901 25.9097 62.1268 26.1927 61.4865 25.1294H61.4837ZM58.4708 23.5715C60.1173 23.6029 61.3893 22.4281 61.4694 20.7959C61.5466 19.2351 60.123 17.743 58.5423 17.7287C56.9501 17.7144 55.7095 18.9807 55.6981 20.6301C55.6866 22.3452 56.81 23.5372 58.4737 23.5686L58.4708 23.5715Z" fill="white"></path><path d="M80.9788 21.5931C78.4576 21.7132 75.9964 21.4673 73.5295 21.7017C73.9497 23.5826 75.6877 24.3144 77.2999 23.434C78.5862 22.7308 79.0064 22.6765 80.6501 22.9938C80.2642 25.3263 77.3685 26.5726 74.5872 25.9352C71.9088 25.3235 70.1737 22.4392 70.7682 19.5035C71.3485 16.6365 74.0669 14.8299 76.9512 15.4159C79.7525 15.9847 81.4619 18.4488 80.9788 21.596V21.5931ZM78.3833 19.4521C77.7458 17.9228 76.8025 17.3568 75.4019 17.5883C74.3128 17.7684 73.7325 18.443 73.7154 19.5521C75.1903 19.8065 77.2227 19.7751 78.3833 19.455V19.4521Z" fill="white"></path><path d="M119.645 22.9395C118.894 25.4007 116.295 26.6155 113.462 25.9066C110.91 25.2663 109.166 22.3535 109.709 19.6608C110.398 16.2477 113.251 14.9843 115.481 15.293C118.719 15.7389 120.374 18.0972 119.931 21.5674C117.522 21.7017 115.063 21.4759 112.562 21.656C112.402 22.5421 112.896 23.0081 113.445 23.3511C114.36 23.9199 115.412 24.0257 116.275 23.3797C117.373 22.5564 118.471 22.7966 119.645 22.9423V22.9395ZM117.379 19.5693C116.924 18.0028 116.101 17.4454 114.612 17.5655C113.394 17.6627 112.794 18.2372 112.611 19.5693H117.376H117.379Z" fill="white"></path><path d="M85.8867 16.5684C86.8014 15.5936 87.8762 15.3363 89.0682 15.4049C90.6261 15.4964 91.7552 16.3683 92.1811 17.8747C92.284 18.2377 92.3612 18.6208 92.3641 18.9952C92.3841 21.0391 92.3784 23.0829 92.3727 25.1267C92.3727 25.3097 92.3012 25.4926 92.244 25.767H89.9201C89.8943 25.2668 89.8543 24.8037 89.8486 24.3435C89.8372 22.8228 89.88 21.2992 89.8229 19.7813C89.7743 18.4493 89.1711 17.7461 88.1564 17.6574C86.9301 17.5488 85.8667 18.2434 85.7038 19.5241C85.518 20.9762 85.5666 22.4597 85.5151 23.929C85.4922 24.5293 85.4722 25.1324 85.4494 25.7956H83.1254C83.0797 25.4526 83.0053 25.141 83.0053 24.8266C82.9939 22.3082 82.991 19.787 82.9996 17.2687C83.0025 16.2225 83.2026 15.8995 83.8858 15.7079C84.7061 15.4764 85.1835 15.6594 85.8839 16.5712L85.8867 16.5684Z" fill="white"></path><path d="M47.2683 25.7606V15.0984C46.0134 15.0498 44.8957 15.004 43.6465 14.9554C43.6122 14.4752 43.5265 14.0636 43.5694 13.6634C43.6408 12.9773 43.9667 12.6715 44.6642 12.5686C44.9929 12.52 45.3273 12.52 45.6618 12.52C47.8971 12.52 50.1325 12.5171 52.3678 12.5257C52.7394 12.5257 53.1082 12.5829 53.4569 12.6143C53.86 14.4266 53.4426 14.9869 51.7275 15.024C51.2159 15.0355 50.7013 15.024 50.0067 15.024C49.9981 16.9049 49.9838 18.6458 49.981 20.3895C49.9753 22.1446 49.981 23.9026 49.981 25.7606H47.2711H47.2683Z" fill="white"></path><path d="M100.871 23.5859V25.8299C100.036 25.8299 99.2728 25.9213 98.541 25.8127C96.7115 25.5354 95.6739 24.2806 95.5939 22.3311C95.5538 21.3334 95.5881 20.3301 95.5881 19.3296C95.5881 18.8608 95.5881 18.392 95.5881 17.8747C94.965 17.7489 94.4676 17.6488 93.853 17.5259V15.8251C94.3561 15.7136 94.8506 15.6021 95.4738 15.4621C95.511 15.0762 95.5624 14.6674 95.5824 14.2615C95.6024 13.8842 95.5853 13.504 95.5853 12.998H97.9578C98.0436 13.7613 98.1351 14.5445 98.238 15.4564C99.0841 15.5564 99.9131 15.6507 100.716 15.7451C101.016 17.2029 100.779 17.5431 99.4528 17.6717C99.0841 17.706 98.7182 17.7546 98.2523 17.8089C98.0579 19.3296 98.0293 20.7903 98.2608 22.2424C98.378 22.9742 98.9069 23.383 99.6558 23.4659C100.027 23.5059 100.396 23.5374 100.871 23.5831V23.5859Z" fill="white"></path><path d="M68.867 11.9347V25.7584H66.4573C66.423 25.2896 66.3601 24.8351 66.3601 24.3778C66.3515 20.9619 66.3486 17.5431 66.3601 14.1272C66.3658 12.1205 66.6259 11.889 68.867 11.9347Z" fill="white"></path><path d="M103.126 15.7528C104.021 15.5441 104.799 15.4727 105.244 16.5132C106.331 15.8128 107.434 15.3154 108.789 15.5727C108.818 16.0101 108.863 16.3788 108.863 16.7504C108.86 17.4107 108.523 17.7795 107.869 17.9453C105.71 18.4912 105.496 18.7742 105.487 20.9353C105.482 22.5046 105.487 24.071 105.487 25.7518H103.192C102.898 24.7599 102.838 17.425 103.129 15.7557L103.126 15.7528Z" fill="white"></path></g><defs><clipPath id="clip0_353_1342"><rect width="120" height="37.858" fill="white"></rect></clipPath></defs></svg> 