<?xml version="1.0" encoding="UTF-8"?> <svg xmlns="http://www.w3.org/2000/svg" width="121" height="36" viewBox="0 0 121 36" fill="none"><g clip-path="url(#clip0_353_1099)"><path d="M33.3909 24.307L31.5342 17.9271H33.2383L34.2009 22.1076H34.2538L35.3535 17.9271H36.7429L37.8425 22.117H37.8955L38.8613 17.9271H40.5621L38.7086 24.307H37.2226L36.0731 20.4379H36.0233L34.8738 24.307H33.3909ZM42.2519 24.307V17.9271H43.7939V20.4877H46.3079V17.9271H47.8468V24.307H46.3079V21.7432H43.7939V24.307H42.2519ZM51.4089 17.9271V24.307H49.8668V17.9271H51.4089ZM53.2209 19.1794V17.9271H58.6133V19.1794H56.6787V24.307H55.1585V19.1794H53.2209ZM60.4191 24.307V17.9271H64.8677V19.1794H61.9612V20.4877H64.6402V21.7432H61.9612V23.0547H64.8677V24.307H60.4191ZM66.8861 24.307V17.9271H68.4281V23.0547H71.0822V24.307H66.8861ZM74.4753 17.9271V24.307H72.9332V17.9271H74.4753ZM79.9446 19.8398C79.9238 19.6114 79.8314 19.4338 79.6673 19.3071C79.5053 19.1783 79.2738 19.1139 78.9726 19.1139C78.7733 19.1139 78.6071 19.1399 78.4742 19.1918C78.3413 19.2438 78.2416 19.3154 78.1751 19.4067C78.1087 19.496 78.0744 19.5988 78.0723 19.7152C78.0682 19.8107 78.0868 19.8948 78.1284 19.9675C78.172 20.0401 78.2343 20.1045 78.3153 20.1607C78.3984 20.2147 78.4981 20.2624 78.6144 20.304C78.7307 20.3455 78.8616 20.3818 79.0069 20.4129L79.5551 20.5376C79.8708 20.6061 80.1491 20.6975 80.39 20.8117C80.6331 20.9259 80.8365 21.0619 81.0006 21.2198C81.1668 21.3777 81.2925 21.5594 81.3776 21.765C81.4627 21.9706 81.5063 22.2011 81.5084 22.4565C81.5063 22.8594 81.4046 23.2053 81.2032 23.4939C81.0017 23.7826 80.712 24.0038 80.334 24.1575C79.958 24.3112 79.5043 24.388 78.9726 24.388C78.4389 24.388 77.9736 24.308 77.577 24.1481C77.1803 23.9882 76.872 23.7452 76.6518 23.4191C76.4316 23.0931 76.3185 22.6809 76.3123 22.1824H77.7888C77.8013 22.388 77.8563 22.5593 77.9539 22.6964C78.0516 22.8335 78.1855 22.9373 78.3559 23.008C78.5281 23.0786 78.7276 23.1138 78.954 23.1138C79.1616 23.1138 79.3382 23.0858 79.4835 23.0298C79.631 22.9737 79.7442 22.8958 79.8231 22.7961C79.902 22.6964 79.9425 22.5822 79.9446 22.4535C79.9425 22.3329 79.9051 22.2301 79.8324 22.1451C79.7598 22.0578 79.6476 21.9831 79.4959 21.9207C79.3465 21.8564 79.1554 21.7972 78.9228 21.7432L78.2561 21.5874C77.7037 21.4607 77.2686 21.2562 76.9509 20.9737C76.6331 20.6892 76.4753 20.3049 76.4773 19.8211C76.4753 19.4264 76.5812 19.0807 76.795 18.7837C77.009 18.4868 77.305 18.2552 77.683 18.089C78.0609 17.9229 78.4919 17.8398 78.9757 17.8398C79.4701 17.8398 79.8989 17.9239 80.2623 18.0921C80.6279 18.2583 80.9113 18.492 81.1128 18.793C81.3142 19.0942 81.417 19.4431 81.4212 19.8398H79.9446ZM83.1312 19.1794V17.9271H88.5236V19.1794H86.5891V24.307H85.0689V19.1794H83.1312ZM93.245 24.307V23.4285L96.3444 19.1794H93.2486V17.9271H98.2948V18.8055L95.1954 23.0547H98.2922V24.307H93.245ZM106.012 21.117C106.012 21.819 105.877 22.414 105.608 22.9021C105.337 23.3901 104.972 23.7608 104.511 24.0142C104.052 24.2675 103.537 24.3943 102.966 24.3943C102.393 24.3943 101.877 24.2665 101.418 24.0111C100.959 23.7556 100.595 23.3849 100.324 22.8989C100.056 22.4109 99.922 21.8169 99.922 21.117C99.922 20.415 100.056 19.82 100.324 19.332C100.595 18.8439 100.959 18.4732 101.418 18.2198C101.877 17.9665 102.393 17.8398 102.966 17.8398C103.537 17.8398 104.052 17.9665 104.511 18.2198C104.972 18.4732 105.337 18.8439 105.608 19.332C105.877 19.82 106.012 20.415 106.012 21.117ZM104.436 21.117C104.436 20.7017 104.377 20.3507 104.259 20.0641C104.143 19.7775 103.974 19.5604 103.754 19.413C103.536 19.2655 103.273 19.1918 102.966 19.1918C102.661 19.1918 102.398 19.2655 102.178 19.413C101.958 19.5604 101.788 19.7775 101.67 20.0641C101.554 20.3507 101.495 20.7017 101.495 21.117C101.495 21.5324 101.554 21.8834 101.67 22.17C101.788 22.4565 101.958 22.6736 102.178 22.821C102.398 22.9685 102.661 23.0422 102.966 23.0422C103.273 23.0422 103.536 22.9685 103.754 22.821C103.974 22.6736 104.143 22.4565 104.259 22.17C104.377 21.8834 104.436 21.5324 104.436 21.117ZM113.395 17.9271V24.307H112.087L109.548 20.6248H109.508V24.307H107.966V17.9271H109.293L111.804 21.603H111.857V17.9271H113.395ZM115.417 24.307V17.9271H119.866V19.1794H116.959V20.4877H119.639V21.7432H116.959V23.0547H119.866V24.307H115.417Z" fill="white"></path><path d="M28.0868 7.6754C27.962 7.55051 27.962 7.34804 28.0868 7.22316L30.4184 4.8916L30.8706 5.34384L28.539 7.6754C28.4142 7.80028 28.2117 7.80028 28.0868 7.6754Z" fill="#983FD3" stroke="#963ED4" stroke-width="0.408163"></path><path d="M30.9669 9.5949C30.9264 9.59499 30.8863 9.58738 30.8486 9.57252C30.7962 9.55165 30.7503 9.51726 30.7155 9.47285C30.6806 9.42852 30.6581 9.37568 30.6504 9.3198L30.3305 7.08103L30.9701 6.99148L31.2101 8.67698L32.2463 7.84222V5.43711C32.246 5.39502 32.2541 5.35329 32.27 5.31433C32.2859 5.27536 32.3094 5.23992 32.339 5.21003L33.6407 3.90833C33.909 3.64192 34.1217 3.32498 34.2666 2.97582C34.4115 2.62667 34.4858 2.25225 34.4851 1.87421L34.3251 1.43924L33.8902 1.27933C33.5122 1.27861 33.1378 1.35287 32.7886 1.4978C32.4394 1.64273 32.1225 1.85546 31.8561 2.12368L30.5544 3.42538C30.5244 3.45502 30.4891 3.47848 30.4501 3.49439C30.4111 3.5103 30.3693 3.51837 30.3273 3.51813H27.9221L27.0874 4.56078L28.7729 4.80065L28.6833 5.44031L26.4445 5.12048C26.3887 5.11265 26.3359 5.09018 26.2915 5.05535C26.2472 5.02052 26.2128 4.97458 26.1919 4.92219C26.1708 4.86942 26.1641 4.81197 26.1725 4.75576C26.1809 4.69954 26.2042 4.64659 26.2399 4.60236L27.5192 3.00321C27.5486 2.96493 27.5864 2.93382 27.6296 2.91221C27.6728 2.89061 27.7204 2.87908 27.7687 2.87848H30.1961L31.4019 1.66952C31.7278 1.34173 32.1157 1.08191 32.5428 0.905123C32.9699 0.72834 33.4279 0.638111 33.8902 0.639668H34.4851C34.6547 0.639668 34.8174 0.707061 34.9374 0.82702C35.0573 0.946979 35.1247 1.10968 35.1247 1.27933V1.87421C35.1263 2.33648 35.0361 2.79446 34.8593 3.2216C34.6825 3.64873 34.4227 4.03652 34.0949 4.36248L32.8859 5.56824V7.99574C32.8857 8.04379 32.8747 8.09116 32.8536 8.13434C32.8326 8.17753 32.8021 8.21542 32.7644 8.24521L31.1653 9.52452C31.109 9.56965 31.0391 9.59446 30.9669 9.5949Z" fill="#983FD3" stroke="#963ED4" stroke-width="0.408163"></path><path d="M1.40625 3.65527H24.0684V10.1428C23.6592 10.0298 23.1937 10.0972 22.7753 10.4421L1.40625 28.0572L1.40625 3.65527ZM8.3287 35.09L24.0684 13.5513V35.09H8.3287Z" stroke="url(#paint0_linear_353_1099)" stroke-width="1.63265" stroke-linejoin="round"></path></g><defs><linearGradient id="paint0_linear_353_1099" x1="14.1994" y1="2.92424" x2="14.1994" y2="35.821" gradientUnits="userSpaceOnUse"><stop stop-color="#7127EB"></stop><stop offset="1" stop-color="#E36CA3"></stop></linearGradient><clipPath id="clip0_353_1099"><rect width="120" height="35.8209" fill="white" transform="translate(0.674805)"></rect></clipPath></defs></svg> 