<?xml version="1.0" encoding="UTF-8"?> <svg xmlns="http://www.w3.org/2000/svg" width="133" height="30" viewBox="0 0 133 30" fill="none"><g clip-path="url(#clip0_353_1084)"><path d="M14.9193 29.1697C12.0347 29.1697 9.21486 28.3142 6.8164 26.7117C4.41795 25.1091 2.54857 22.8312 1.44468 20.1662C0.340792 17.5012 0.0519637 14.5687 0.614723 11.7395C1.17748 8.9103 2.56655 6.31151 4.60627 4.2718C6.646 2.23208 9.24475 0.843008 12.0739 0.28025C14.9031 -0.282509 17.8356 0.00631956 20.5007 1.11021C23.1657 2.2141 25.4435 4.08347 27.0461 6.48195C28.6487 8.88042 29.5041 11.7002 29.5041 14.5848H22.2117C22.2117 13.1425 21.784 11.7326 20.9827 10.5334C20.1814 9.33417 19.0425 8.39947 17.71 7.84754C16.3775 7.29557 14.9112 7.15117 13.4966 7.43254C12.0821 7.71392 10.7826 8.40843 9.76278 9.42833C8.74292 10.4482 8.04841 11.7476 7.76699 13.1621C7.48562 14.5767 7.63006 16.043 8.18199 17.3755C8.73392 18.708 9.66862 19.8469 10.8679 20.6482C12.0671 21.4495 13.477 21.8772 14.9193 21.8772V29.1697Z" fill="#3418D8"></path><path d="M22.2556 14.6729H15.0068V21.9215C19.0102 21.9215 22.2555 25.1669 22.2555 29.1702L29.5043 29.1703V21.9221C25.501 21.9221 22.2556 18.6767 22.2556 14.6733C22.2556 14.6732 22.2556 14.673 22.2556 14.6729Z" fill="#3418D8"></path><path d="M43.5911 23.1715C42.3909 23.1715 41.2842 22.9689 40.2711 22.5636C39.2735 22.1428 38.4007 21.5583 37.6525 20.8101C36.9199 20.0464 36.351 19.1502 35.9458 18.1214C35.5405 17.0771 35.3379 15.9393 35.3379 14.7079C35.3379 13.5077 35.5483 12.4011 35.9691 11.3879C36.39 10.3592 36.9823 9.47078 37.746 8.72263C38.5098 7.95885 39.406 7.36658 40.4347 6.94575C41.4635 6.52489 42.5779 6.31445 43.7781 6.31445C44.5573 6.31445 45.321 6.42358 46.0693 6.64178C46.8329 6.8444 47.5269 7.14837 48.1502 7.55361C48.7894 7.95885 49.3346 8.44205 49.7866 9.00316L47.5891 11.4347C47.2148 11.0606 46.8254 10.7411 46.4202 10.4761C46.0304 10.1956 45.6097 9.98514 45.1577 9.84485C44.7211 9.68898 44.2535 9.61107 43.7547 9.61107C43.0845 9.61107 42.4532 9.73578 41.8609 9.98514C41.2842 10.2345 40.7776 10.5852 40.3412 11.0373C39.9048 11.4737 39.5541 12.0114 39.2891 12.6505C39.0397 13.2739 38.915 13.9675 38.915 14.7313C38.915 15.5106 39.0397 16.2198 39.2891 16.8589C39.5385 17.4824 39.8892 18.0201 40.3412 18.4721C40.7932 18.9086 41.331 19.2515 41.9544 19.5008C42.5935 19.7346 43.2949 19.8516 44.0586 19.8516C44.5573 19.8516 45.0407 19.7814 45.5082 19.6411C45.9757 19.5008 46.4043 19.306 46.7941 19.0566C47.1993 18.8072 47.5578 18.5189 47.8694 18.1916L49.5765 20.927C49.2021 21.3478 48.6958 21.7297 48.0566 22.0726C47.4333 22.4156 46.7318 22.6883 45.9523 22.8909C45.1731 23.078 44.386 23.1715 43.5911 23.1715Z" fill="white"></path><path d="M51.5977 22.9369V6.2207H54.8705V13.0939L54.2158 13.3744C54.3875 12.8133 54.6913 12.3067 55.1278 11.8547C55.5799 11.3871 56.1175 11.013 56.7409 10.7325C57.3646 10.4519 58.0193 10.3116 58.7048 10.3116C59.6402 10.3116 60.4194 10.4987 61.0431 10.8728C61.6819 11.2468 62.1573 11.8158 62.4694 12.5795C62.7965 13.3277 62.9603 14.2551 62.9603 15.3617V22.9369H59.6402V15.6189C59.6402 15.0578 59.5621 14.5902 59.4063 14.2161C59.2504 13.842 59.009 13.5693 58.6814 13.3978C58.3698 13.2107 57.9804 13.1328 57.5125 13.164C57.1386 13.164 56.7876 13.2264 56.4605 13.351C56.1489 13.4602 55.8761 13.6238 55.6421 13.842C55.424 14.0602 55.2448 14.3096 55.1044 14.5902C54.98 14.8707 54.9173 15.1747 54.9173 15.502V22.9369H53.2809C52.9224 22.9369 52.6028 22.9369 52.3221 22.9369C52.0417 22.9369 51.8003 22.9369 51.5977 22.9369Z" fill="white"></path><path d="M72.7116 21.3938C72.2287 21.9394 71.683 22.3836 71.0752 22.7265C70.4828 23.0693 69.7111 23.2408 68.7603 23.2408C68.2151 23.2408 67.6929 23.1707 67.1941 23.0304C66.7107 22.8901 66.282 22.6719 65.9081 22.3758C65.5497 22.0796 65.2614 21.7055 65.0429 21.2535C64.8249 20.7859 64.7158 20.2326 64.7158 19.5935C64.7158 18.7519 64.9025 18.066 65.2769 17.5361C65.6508 17.0061 66.1421 16.5931 66.75 16.2969C67.3578 16.0008 68.0359 15.7904 68.7837 15.6657C69.5478 15.541 70.319 15.4631 71.0986 15.4319L72.6648 15.3617V14.7538C72.6648 14.0057 72.4547 13.4913 72.0335 13.2108C71.6283 12.9302 71.1454 12.7899 70.5843 12.7899C69.2904 12.7899 68.5501 13.2809 68.363 14.2629L65.3705 13.9823C65.5885 12.7042 66.1496 11.7846 67.0537 11.2235C67.9577 10.6467 69.1735 10.3584 70.7008 10.3584C71.6362 10.3584 72.4313 10.4753 73.0859 10.7091C73.7406 10.9273 74.2624 11.2468 74.6522 11.6677C75.0574 12.0885 75.3456 12.6029 75.5174 13.2108C75.7045 13.8031 75.7977 14.4733 75.7977 15.2215V22.9369H72.7116V21.3938ZM72.6414 17.4893L71.1922 17.5594C70.5062 17.5907 69.953 17.6608 69.5319 17.7699C69.1112 17.879 68.7837 18.0193 68.5502 18.1907C68.3316 18.3466 68.1838 18.5336 68.1056 18.7519C68.0279 18.9701 67.9891 19.2117 67.9891 19.4766C67.9891 19.8819 68.129 20.2014 68.4098 20.4352C68.6905 20.669 69.0799 20.7859 69.5787 20.7859C70.4205 20.7859 71.1061 20.5911 71.6362 20.2014C71.9325 19.9832 72.1739 19.7104 72.3611 19.3831C72.5478 19.0402 72.6414 18.6193 72.6414 18.1206V17.4893Z" fill="white"></path><path d="M78.312 22.9377V10.5697H81.4917L81.5853 13.0947L80.9306 13.3753C81.1023 12.8142 81.4061 12.3076 81.8426 11.8556C82.2947 11.388 82.8323 11.0139 83.4556 10.7333C84.0794 10.4528 84.7341 10.3125 85.4196 10.3125C86.355 10.3125 87.1342 10.4995 87.7579 10.8736C88.3967 11.2477 88.8721 11.8166 89.1837 12.5803C89.5113 13.3285 89.6751 14.2559 89.6751 15.3626V22.9377H86.355V15.6198C86.355 15.0587 86.2769 14.5911 86.121 14.217C85.9652 13.8429 85.7238 13.5701 85.3962 13.3987C85.0846 13.2116 84.6948 13.1337 84.2273 13.1649C83.8534 13.1649 83.5024 13.2272 83.1753 13.3519C82.8637 13.461 82.5909 13.6247 82.3569 13.8429C82.1388 14.0611 81.9596 14.3105 81.8192 14.5911C81.6943 14.8716 81.6321 15.1756 81.6321 15.5029V22.9377H79.9957C79.6372 22.9377 79.3176 22.9377 79.0369 22.9377C78.7565 22.9377 78.5146 22.9377 78.312 22.9377Z" fill="white"></path><path d="M98.0233 28.3151C97.0415 28.3151 96.0752 28.1671 95.1243 27.8709C94.1735 27.5903 93.4018 27.2241 92.8094 26.7721L93.9788 24.3873C94.2905 24.6055 94.6489 24.8003 95.0541 24.9718C95.4594 25.1432 95.8801 25.2758 96.3167 25.3692C96.7687 25.4628 97.2287 25.5095 97.6961 25.5095C98.5066 25.5095 99.1692 25.3848 99.6835 25.1355C100.213 24.8861 100.611 24.512 100.876 24.0132C101.141 23.53 101.273 22.9066 101.273 22.1428V19.9918L101.834 20.1088C101.741 20.6231 101.484 21.0985 101.063 21.5349C100.642 21.9558 100.112 22.2987 99.4729 22.5636C98.8337 22.8131 98.1791 22.9377 97.509 22.9377C96.3555 22.9377 95.3349 22.6728 94.4463 22.1428C93.5577 21.6129 92.8562 20.8803 92.3419 19.9451C91.8277 19.0099 91.5703 17.9344 91.5703 16.7187C91.5703 15.4717 91.8197 14.3728 92.3185 13.422C92.8328 12.4557 93.5268 11.6997 94.3995 11.1542C95.2881 10.593 96.2933 10.3125 97.4154 10.3125C97.8833 10.3125 98.3274 10.3671 98.7481 10.4761C99.1847 10.5853 99.582 10.7411 99.9404 10.9438C100.315 11.1308 100.642 11.349 100.923 11.5984C101.219 11.8322 101.46 12.0894 101.647 12.37C101.834 12.6505 101.951 12.9311 101.998 13.2116L101.32 13.3987L101.414 10.5697H104.593V22.0025C104.593 23.0157 104.445 23.9119 104.149 24.6912C103.853 25.4706 103.416 26.1252 102.84 26.6552C102.279 27.2007 101.585 27.6137 100.759 27.8943C99.9484 28.1749 99.0364 28.3151 98.0233 28.3151ZM98.1168 20.2724C98.7715 20.2724 99.3405 20.1243 99.8239 19.8282C100.322 19.532 100.704 19.119 100.969 18.589C101.234 18.0591 101.367 17.4356 101.367 16.7187C101.367 16.0172 101.234 15.4016 100.969 14.8716C100.704 14.3261 100.322 13.9052 99.8239 13.6091C99.3405 13.313 98.7715 13.1649 98.1168 13.1649C97.4776 13.1649 96.9091 13.3207 96.4102 13.6325C95.9269 13.9286 95.553 14.3416 95.2881 14.8716C95.0228 15.4016 94.8904 16.0172 94.8904 16.7187C94.8904 17.4201 95.0228 18.0435 95.2881 18.589C95.553 19.119 95.9269 19.532 96.4102 19.8282C96.9091 20.1243 97.4776 20.2724 98.1168 20.2724Z" fill="white"></path><path d="M113.292 23.1715C111.952 23.1715 110.783 22.8987 109.785 22.3532C108.788 21.8077 108.008 21.0595 107.447 20.1088C106.886 19.1579 106.605 18.0669 106.605 16.8355C106.605 15.8847 106.762 15.0119 107.073 14.217C107.385 13.422 107.822 12.7362 108.383 12.1595C108.944 11.5672 109.606 11.1152 110.37 10.8035C111.149 10.4761 111.991 10.3125 112.895 10.3125C113.736 10.3125 114.516 10.4684 115.233 10.7801C115.95 11.0762 116.566 11.5049 117.08 12.066C117.61 12.6116 118.015 13.2584 118.296 14.0065C118.576 14.7547 118.701 15.573 118.67 16.4615L118.647 17.4902H108.71L108.172 15.4561H115.911L115.537 15.877V15.3626C115.506 14.9417 115.365 14.5599 115.116 14.217C114.882 13.8741 114.578 13.6091 114.204 13.422C113.83 13.235 113.409 13.1415 112.942 13.1415C112.256 13.1415 111.671 13.274 111.188 13.5389C110.721 13.8039 110.362 14.1936 110.113 14.7079C109.863 15.2223 109.739 15.8458 109.739 16.5784C109.739 17.3265 109.895 17.9733 110.206 18.5189C110.533 19.0645 110.985 19.493 111.562 19.8048C112.154 20.101 112.848 20.249 113.643 20.249C114.188 20.249 114.687 20.1633 115.139 19.9918C115.591 19.8204 116.075 19.5243 116.589 19.1034L118.179 21.3245C117.727 21.7298 117.228 22.0727 116.683 22.3532C116.137 22.6182 115.576 22.8208 114.999 22.9611C114.422 23.1014 113.853 23.1715 113.292 23.1715Z" fill="white"></path><path d="M128.072 22.9374L125.009 18.5653L124.074 17.256L119.07 10.5693H123.092L126.084 14.8011L132.046 22.9374H128.072ZM119.023 22.9374L123.957 16.1805L125.781 18.3549L122.928 22.9374H119.023ZM126.973 17.3729L125.196 15.1986L127.838 10.5693H131.743L126.973 17.3729Z" fill="white"></path></g><defs><clipPath id="clip0_353_1084"><rect width="131.99" height="29.5764" fill="white" transform="translate(0.334961)"></rect></clipPath></defs></svg> 