<svg width="136" height="68" viewBox="0 0 136 68" fill="none" xmlns="http://www.w3.org/2000/svg">
<path fill-rule="evenodd" clip-rule="evenodd" d="M42.2869 46.5043L42.2872 46.504C42.4422 46.3556 42.5998 46.2047 42.763 46.052L42.7679 46.0545C42.4755 45.7644 42.1878 45.4786 41.9033 45.1959L41.9021 45.1947C41.2982 44.5948 40.7084 44.0087 40.1162 43.4249C39.6287 42.9448 39.6435 42.9227 40.099 42.3958L40.3313 42.1275C40.9619 41.3998 41.594 40.6705 42.1598 39.8943C43.1963 38.4736 44.0433 36.9471 44.7105 35.3123C45.1611 34.2068 45.523 33.0668 45.6781 31.9047C45.9071 30.1935 45.9982 28.4553 45.5008 26.7515C45.0651 25.2545 44.3437 23.9373 43.2209 22.8367C42.1067 21.7432 41.0026 20.6411 39.8986 19.5391L39.8984 19.5389L39.8983 19.5387L39.898 19.5385L39.8979 19.5384L39.8977 19.5382L39.8975 19.5379L39.8948 19.5353C39.5559 19.197 39.217 18.8587 38.8778 18.5206C38.594 18.2375 38.3105 17.954 38.027 17.6705L38.027 17.6705L38.027 17.6705C37.1767 16.8201 36.3263 15.9698 35.4677 15.1278C35.2904 14.9555 35.059 14.8176 34.8276 14.724C32.5698 13.7983 30.2456 13.8869 27.9016 14.303C27.8721 14.3104 27.8425 14.3178 27.813 14.3276C27.6066 14.3916 27.4 14.4546 27.1934 14.5177L27.1932 14.5177C26.7319 14.6584 26.2704 14.7992 25.8113 14.9506L25.7873 14.9584C25.2831 15.1232 24.7769 15.2887 24.2897 15.4971C21.4041 16.7307 18.9297 18.56 16.6867 20.7218C16.3543 21.0418 16.3666 21.1896 16.7113 21.5244C17.3798 22.1732 18.047 22.8233 18.7232 23.4823L18.7238 23.4828L18.7242 23.4832L19.4935 24.2327C19.4196 24.3027 19.3426 24.3713 19.2651 24.4404C19.1025 24.5854 18.9377 24.7324 18.7943 24.8975C17.509 26.3674 16.342 27.9185 15.3793 29.6198C14.4339 31.2867 13.7912 33.0742 13.3407 34.9183C13.1117 35.8539 12.9689 36.8314 13.0058 37.8187C13.0378 38.6706 13.0945 39.5126 13.2693 40.3522C13.4786 41.3592 13.8306 42.2382 14.6037 42.9891C17.12 45.4266 19.592 47.906 22.064 50.3903C23.2655 51.5967 24.7304 52.328 26.3628 52.653C27.8893 52.9583 29.4602 52.8942 31.0064 52.6923C32.2817 52.5249 33.5103 52.1113 34.6872 51.6115C35.773 51.1486 36.8145 50.5725 37.8387 49.9816C39.1437 49.2306 40.3132 48.2852 41.4408 47.2929C41.7261 47.0411 42.0021 46.7769 42.2869 46.5043ZM39.2717 41.9062C39.181 42.0135 39.0882 42.1233 38.991 42.2357H38.9861L38.3863 41.6079C37.8006 40.9948 37.2224 40.3894 36.6249 39.7662C36.6443 39.742 36.6732 39.7075 36.7076 39.6664C36.7606 39.6031 36.8266 39.5243 36.8908 39.4437C37.0821 39.2052 37.2773 38.9693 37.4725 38.7335L37.4727 38.7333C37.9284 38.1828 38.3841 37.6323 38.7891 37.0481C39.3332 36.2651 39.8207 35.4304 40.2368 34.5712C40.5914 33.835 40.8376 33.0422 41.0764 32.2568C41.1515 32.011 41.1902 31.754 41.229 31.497L41.229 31.497C41.269 31.2313 41.309 30.9658 41.3891 30.713C41.5541 30.1886 41.5344 29.6666 41.4901 29.1447C41.399 28.0515 41.1232 27.0075 40.3378 26.1926C39.8281 25.6632 39.2225 25.2594 38.5109 25.0009C37.4743 24.6242 36.4009 24.6316 35.3594 24.7892C33.8107 25.0255 32.3408 25.5647 30.9571 26.3132C29.3888 27.1627 27.8942 28.113 26.6238 29.3786C26.4047 29.5977 26.1855 29.5041 26.028 29.3539C25.3927 28.7483 24.7723 28.1253 24.1617 27.495C23.9598 27.2858 23.9918 27.0839 24.2528 26.8623C24.8486 26.3526 25.4568 25.8528 26.0674 25.3579C27.2369 24.4075 28.5516 23.6788 29.8812 22.9869C30.3386 22.7491 30.8295 22.5729 31.3194 22.397L31.3195 22.397C31.494 22.3343 31.6684 22.2717 31.841 22.2064C32.784 21.8469 33.759 21.5515 34.7586 21.4555C35.7632 21.357 36.7874 21.3397 37.792 21.4185C39.8478 21.581 41.623 22.4083 42.9747 23.9865C44.0137 25.1979 44.644 26.6087 44.8065 28.2091C44.8194 28.3317 44.8436 28.4538 44.8678 28.5759C44.899 28.7333 44.9301 28.8906 44.937 29.0486C44.9961 30.425 44.7721 31.7742 44.42 33.0964C44.063 34.4456 43.5681 35.753 42.8812 36.9742C42.0243 38.4958 41.074 39.9534 39.8651 41.2312C39.6631 41.4433 39.4728 41.6684 39.2717 41.9062ZM38.6734 43.8934C38.7957 43.7972 38.9269 43.6939 39.0698 43.5776L39.0673 43.58L39.4243 43.9611C40.0341 44.6122 40.624 45.242 41.2242 45.8649C41.3596 46.0028 41.3276 46.0889 41.2143 46.1899L41.1146 46.2792L40.9734 46.4059L40.9732 46.4061L40.9729 46.4063L40.9728 46.4065L40.9728 46.4065C40.6819 46.6678 40.3905 46.9295 40.0916 47.1821C38.7768 48.2925 37.3783 49.2897 35.8346 50.0505C34.5814 50.6685 33.2814 51.1708 31.9173 51.5228C30.5213 51.8823 29.1155 52.0054 27.7022 51.8774C25.5823 51.6829 23.6988 50.9344 22.2929 49.2454C21.1037 47.8174 20.4513 46.185 20.4291 44.3211C20.4281 44.2227 20.4268 44.1241 20.4255 44.0255C20.4174 43.3992 20.4093 42.771 20.471 42.152C20.5768 41.0982 20.8427 40.0765 21.1973 39.0744C21.9384 36.984 22.9774 35.0537 24.3611 33.3179C24.7208 32.8664 25.1018 32.4322 25.4827 31.9982C25.6936 31.7578 25.9045 31.5175 26.1117 31.2744C26.2717 31.0873 26.3825 31.1119 26.5524 31.2867C27.0675 31.8218 27.592 32.3475 28.115 32.8718C28.302 33.0591 28.4887 33.2463 28.6747 33.4337C28.5059 33.6411 28.3382 33.8449 28.1721 34.0467C27.8512 34.4366 27.5361 34.8195 27.2295 35.2089C25.8729 36.9274 24.8314 38.8159 24.1961 40.9185C23.8071 42.2037 23.6397 43.5111 23.8859 44.8308C24.0435 45.6778 24.3365 46.5149 24.989 47.1353C25.6217 47.7386 26.3431 48.1645 27.2344 48.3689C27.877 48.5166 28.5073 48.5831 29.1376 48.5166C29.7724 48.4481 30.4022 48.3152 31.0298 48.1829L31.0299 48.1828C31.1691 48.1535 31.3081 48.1242 31.4471 48.0956C32.6609 47.8444 33.7442 47.2683 34.8128 46.6799C35.9749 46.0397 37.0878 45.3134 38.0628 44.3999C38.2459 44.2296 38.4438 44.074 38.6733 43.8934L38.6734 43.8934ZM20.9639 22.9058C20.7342 23.1034 20.5006 23.3043 20.2592 23.5064L20.2568 23.5113C20.1844 23.4515 20.1107 23.3926 20.0366 23.3335L20.0366 23.3335L20.0365 23.3334L20.0364 23.3333L20.0363 23.3333L20.0362 23.3331L20.0362 23.3331C19.876 23.2053 19.7147 23.0766 19.5649 22.9352C19.2812 22.6646 19.0027 22.388 18.7242 22.1115C18.5314 21.92 18.3387 21.7286 18.1443 21.5392C17.8045 21.2068 17.7922 20.9557 18.159 20.6651C18.4707 20.4183 18.7796 20.1674 19.0884 19.9164C19.9286 19.2338 20.7685 18.5514 21.6651 17.9519C22.8838 17.1369 24.2183 16.5041 25.602 15.9846C26.7149 15.5661 27.8573 15.2509 29.0244 15.1032C30.0018 14.9801 31.0088 14.9973 31.9961 15.0515C32.88 15.0983 33.7541 15.2854 34.5617 15.6892C34.6355 15.7237 34.7094 15.7655 34.766 15.8221C35.219 16.2629 35.6672 16.7085 36.1153 17.1566C36.1421 17.1817 36.1609 17.216 36.1826 17.2555C36.1928 17.274 36.2036 17.2937 36.2162 17.3142C34.9556 17.1517 33.7172 17.1098 32.491 17.2625C31.7422 17.3566 31.0018 17.5527 30.2657 17.7477L30.2655 17.7478C30.1159 17.7874 29.9664 17.827 29.8172 17.8657C29.2681 18.0085 28.7191 18.171 28.202 18.4L28.1817 18.409L28.1817 18.409C27.1937 18.8467 26.1988 19.2875 25.2598 19.8206C24.3045 20.3623 23.3935 20.9901 22.5071 21.6426C21.9802 22.0314 21.4816 22.4604 20.9639 22.9058ZM19.8823 25.1135C19.9338 25.0613 19.985 25.0092 20.0352 24.9566C20.8674 25.811 21.6774 26.6431 22.5244 27.5147C22.4206 27.6331 22.3021 27.7686 22.1755 27.9133C22.023 28.0878 21.8588 28.2756 21.6946 28.4627C20.141 30.2354 18.8238 32.1681 17.8242 34.3053C17.6345 34.7105 17.4861 35.135 17.3378 35.5593C17.2879 35.7021 17.238 35.8449 17.1865 35.9869C16.9698 36.5852 16.7581 37.181 16.566 37.7867C16.531 37.8971 16.5226 38.0157 16.5143 38.1345C16.5068 38.241 16.4993 38.3478 16.4725 38.449C16.2066 39.4659 16.1672 40.4999 16.2041 41.5414C16.2171 41.9212 16.2461 42.3011 16.2771 42.7063C16.2931 42.9157 16.3097 43.132 16.3248 43.3585C16.2302 43.2722 16.1407 43.1896 16.0544 43.11L16.0534 43.1091L16.0531 43.1088L16.053 43.1087L16.0528 43.1086C15.859 42.9297 15.6812 42.7657 15.4975 42.6075C14.7367 41.9575 14.4142 41.1105 14.2098 40.1479C13.9119 38.7346 13.9981 37.3287 14.1286 35.9253C14.1865 35.3091 14.3681 34.6985 14.5475 34.0951L14.5475 34.095C14.5738 34.0065 14.6001 33.9182 14.6259 33.8301C15.0272 32.4636 15.5837 31.1488 16.3248 29.935C16.9213 28.9558 17.5883 28.0174 18.255 27.0796C18.356 26.9375 18.4571 26.7953 18.5579 26.653C18.7855 26.3318 19.0487 26.0351 19.3118 25.7387L19.3119 25.7386L19.3119 25.7386L19.312 25.7385L19.312 25.7384L19.3121 25.7384L19.3121 25.7383C19.4018 25.6373 19.4915 25.5362 19.5797 25.4342C19.6764 25.3227 19.7798 25.2178 19.8823 25.1135ZM32.8229 35.9959L32.8337 35.9917L32.8338 35.9917C32.8577 35.9825 32.8704 35.9776 32.88 35.9696C34.1702 34.6475 35.2363 33.1751 36.0759 31.5231C36.6101 30.4693 37.0484 29.3859 37.2848 28.2435C37.3961 27.6974 37.3909 27.1278 37.3856 26.5594V26.5592C37.3837 26.3486 37.3817 26.1381 37.3857 25.9291C37.3857 25.8725 37.2651 25.7617 37.2011 25.7617C36.5264 25.7666 35.8518 25.7814 35.1797 25.8134C35.1033 25.8159 34.995 25.9193 34.963 26.0005C34.848 26.2843 34.7427 26.5733 34.6375 26.8623C34.4295 27.4334 34.2216 28.0044 33.9387 28.5341C33.4192 29.509 32.7963 30.4397 32.1439 31.3335C31.7555 31.8647 31.3178 32.3593 30.873 32.8617L30.873 32.8618L30.873 32.8618L30.873 32.8618L30.8729 32.8618C30.6664 33.0952 30.4583 33.3303 30.253 33.5715C30.5124 33.8232 30.7692 34.0855 31.0282 34.3501L31.0283 34.3502C31.5873 34.9212 32.1566 35.5028 32.7856 36.0108C32.8002 36.0048 32.8125 35.9999 32.8229 35.9959ZM32.6966 37.2857C31.4782 38.4718 30.2476 39.444 28.9111 40.2808C28.8285 40.3327 28.746 40.3852 28.6634 40.4378C28.2558 40.6971 27.8453 40.9583 27.4092 41.1549C26.9189 41.3754 26.4143 41.5643 25.9099 41.753C25.6316 41.8572 25.3533 41.9613 25.0776 42.0708C24.989 42.1052 24.8683 42.2111 24.8658 42.2899C24.8363 42.9399 24.8265 43.5899 24.8191 44.2399C24.8191 44.4344 24.9176 44.5329 25.1293 44.5132C25.3339 44.494 25.5392 44.4781 25.7445 44.4623L25.7446 44.4623L25.7446 44.4623L25.7447 44.4623L25.7447 44.4623L25.7448 44.4623L25.7449 44.4623C26.1175 44.4336 26.4904 44.4048 26.8602 44.3556L26.9856 44.3387C27.5063 44.2685 28.0325 44.1975 28.527 44.038C29.1942 43.8238 29.859 43.5628 30.4672 43.2206C31.4963 42.642 32.5009 42.0166 33.4759 41.3494C33.8989 41.0604 34.2741 40.7049 34.6492 40.3494L34.6493 40.3494C34.7632 40.2414 34.8772 40.1333 34.9925 40.0272C35.0492 39.9755 35.0713 39.7859 35.027 39.7367C34.3184 38.978 33.6014 38.2298 32.8721 37.4688L32.8717 37.4684L32.6966 37.2857ZM26.9984 30.3466L26.998 30.3462H26.9956C28.9653 28.4208 31.2132 27.0223 33.7787 26.1433L33.8316 26.1852L33.8846 26.227C33.8377 26.3524 33.7932 26.4789 33.7487 26.6054L33.7487 26.6055L33.7487 26.6055L33.7486 26.6056L33.7486 26.6056L33.7486 26.6056L33.7486 26.6057C33.6506 26.8842 33.5527 27.1628 33.4291 27.4286C32.5403 29.349 31.3092 31.0356 29.8467 32.5621C29.6645 32.7541 29.5192 32.7714 29.3272 32.631C29.2213 32.5547 29.1228 32.4661 29.0293 32.3725C28.3499 31.698 27.6729 31.0211 26.9984 30.3466ZM31.878 36.6049C31.2624 37.8088 26.3973 40.9801 25.2081 40.8988C26.0871 38.2988 27.5028 36.0903 29.4109 34.1304L31.878 36.6049ZM122.993 32.9199L122.998 32.9212L122.993 32.9237V32.9199ZM122.993 32.9199C122.986 32.9178 122.978 32.915 122.971 32.9122C122.948 32.9038 122.924 32.8952 122.91 32.904C122.549 33.1287 122.164 33.1036 121.779 33.0785C121.612 33.0676 121.445 33.0568 121.28 33.0665C121.257 33.0665 121.233 33.0724 121.199 33.0813C121.174 33.0876 121.145 33.0953 121.105 33.1034C121.096 33.2034 121.086 33.3041 121.075 33.4054C121.052 33.6283 121.028 33.854 121.026 34.0808C121.018 34.9095 121.016 35.7381 121.015 36.5667C121.014 36.9815 121.013 37.3962 121.011 37.811C121.011 38.2886 121.395 38.6752 121.871 38.6776C122.127 38.6776 122.383 38.6825 122.639 38.6875C122.799 38.6899 122.853 38.7367 122.846 38.9288C122.828 39.3428 122.824 39.7576 122.821 40.1723V40.1724V40.1726V40.1727V40.1728V40.173V40.1731V40.1732V40.1733C122.818 40.4587 122.816 40.744 122.809 41.0289C122.809 41.093 122.737 41.1964 122.678 41.2161C121.917 41.4697 121.127 41.4894 120.347 41.4007C119.345 41.2875 118.483 40.8738 118.099 39.8693C117.931 39.4335 117.86 38.9386 117.85 38.4683C117.824 36.87 117.836 35.2695 117.848 33.671L117.85 33.3915C117.85 33.16 117.776 33.0788 117.557 33.0837C117.426 33.0866 117.295 33.0836 117.163 33.0806C117.069 33.0784 116.976 33.0763 116.882 33.0763C116.503 33.0763 116.378 32.9557 116.383 32.5937C116.385 32.4422 116.389 32.2903 116.393 32.1384L116.393 32.1378C116.402 31.8112 116.411 31.4842 116.402 31.1583C116.397 30.8973 116.516 30.8506 116.737 30.8604C116.886 30.8671 117.036 30.8643 117.185 30.8616C117.312 30.8593 117.439 30.857 117.567 30.8604C117.796 30.8678 117.86 30.7767 117.855 30.5502C117.843 29.8173 117.844 29.0829 117.845 28.3494V28.3493L117.845 28.0135L117.845 27.8C117.845 27.7749 117.849 27.7498 117.854 27.7197L117.854 27.7196C117.856 27.7086 117.858 27.697 117.859 27.6844L117.862 27.6621H121.021V28.0659C121.02 28.3016 121.019 28.5375 121.019 28.7735C121.017 29.3633 121.016 29.9537 121.002 30.5428C120.994 30.789 121.08 30.8604 121.312 30.8702C121.751 30.8876 122.191 30.9155 122.63 30.9434L122.63 30.9434L122.63 30.9434L122.63 30.9434L122.63 30.9434L122.631 30.9434L122.631 30.9435C122.752 30.9511 122.873 30.9588 122.993 30.9663V32.9199ZM27.5648 53.0443L27.5568 53.0468L27.5543 53.0443H27.5648ZM27.5648 53.0443C27.5846 53.038 27.6043 53.0302 27.6241 53.0223L27.6241 53.0223L27.6241 53.0223L27.6242 53.0223L27.6242 53.0223L27.6242 53.0223L27.6243 53.0223C27.668 53.0049 27.7114 52.9877 27.7538 52.9877C28.4727 52.9852 29.1916 52.9852 29.9106 52.9877C29.9475 52.9877 29.9844 53.0049 30.0214 53.022C30.0386 53.03 30.0558 53.038 30.0731 53.0443H27.5648ZM122.986 41.1632L122.978 41.1548C122.963 41.1385 122.949 41.1226 122.949 41.1078C122.964 40.3569 122.981 39.6059 122.998 38.855V41.1792L122.995 41.1745C122.992 41.1707 122.989 41.167 122.986 41.1632ZM53.1111 34.3888V27.9996C53.1111 27.5638 53.2391 27.4309 53.6725 27.4358C54.2513 27.44 54.8303 27.438 55.4093 27.4359C56.8472 27.4308 58.2846 27.4258 59.717 27.517C61.012 27.5983 62.2702 27.9775 63.3437 28.8244C64.4861 29.7256 65.1238 30.8877 65.4685 32.2689C65.7344 33.3399 65.7295 34.4159 65.6137 35.4844C65.4217 37.2793 64.7742 38.8822 63.2698 40.0098C62.6247 40.4924 61.8861 40.778 61.0982 41.0094C60.0851 41.3079 59.0661 41.2815 58.0477 41.2551H58.0476H58.0476H58.0475H58.0474H58.0473C57.5957 41.2433 57.1443 41.2316 56.6935 41.2483C55.9962 41.275 55.298 41.2646 54.5993 41.2542C54.2026 41.2483 53.8058 41.2424 53.409 41.2433C53.1727 41.2433 53.0939 41.1744 53.0939 40.9307C53.1013 39.2952 53.1003 37.6612 53.0994 36.0265V36.0263V36.026V36.0258V36.0256V36.0254C53.0991 35.4799 53.0988 34.9345 53.0988 34.3888H53.1111ZM56.8387 34.4208H56.8141V34.4236C56.8141 35.6143 56.8141 36.8075 56.8191 37.9983C56.8191 38.0844 56.8708 38.2297 56.9274 38.2445L56.9693 38.2559C57.2198 38.324 57.4782 38.3943 57.73 38.3873C57.972 38.38 58.2132 38.3451 58.4545 38.3102C58.6207 38.2861 58.787 38.262 58.9537 38.2469C60.0887 38.1435 61.0588 37.7767 61.5636 36.6564C61.5891 36.5998 61.6166 36.5427 61.6442 36.4851C61.7503 36.2649 61.8591 36.0389 61.8689 35.8144C61.8791 35.5777 61.898 35.3403 61.917 35.1028L61.917 35.1027L61.917 35.1025L61.917 35.1023L61.917 35.1021L61.917 35.102C61.9886 34.203 62.0603 33.3023 61.667 32.4339C61.6421 32.3794 61.6187 32.3237 61.5953 32.2679C61.5328 32.1193 61.4702 31.9701 61.3789 31.843C60.7092 30.9074 59.749 30.543 58.6361 30.511C58.4237 30.5054 58.2108 30.5069 57.998 30.5084C57.7398 30.5101 57.4818 30.5119 57.2253 30.5011C56.9397 30.4888 56.8314 30.5774 56.8338 30.8754C56.8444 31.7196 56.8424 32.5651 56.8404 33.4101V33.4103V33.4106V33.4108C56.8396 33.7484 56.8387 34.086 56.8387 34.4233V34.4208ZM109.283 31.3699L109.145 31.4391L108.917 31.5522V31.5595C108.839 31.04 108.753 30.9268 108.445 30.9268C107.76 30.9243 107.073 30.9268 106.389 30.9342C106.022 30.9391 105.926 31.0425 105.926 31.4192C105.925 33.1605 105.925 34.9018 105.925 36.6431V36.6655C105.924 39.2673 105.924 41.8691 105.921 44.4709C105.921 44.7442 106.042 44.8574 106.308 44.8574C106.852 44.8525 107.398 44.852 107.944 44.8514H107.944H107.944H107.944H107.944C108.217 44.8512 108.49 44.8509 108.762 44.8501C109.188 44.8501 109.201 44.8476 109.201 44.4118C109.203 43.944 109.203 43.4763 109.202 43.0085C109.202 42.4471 109.202 41.8857 109.206 41.3243C109.208 41.2012 109.238 40.9919 109.297 40.9747C109.415 40.9427 109.577 40.987 109.696 41.051C110.136 41.2849 110.587 41.4868 111.096 41.4917C111.202 41.4925 111.308 41.4948 111.413 41.4971C111.988 41.5096 112.56 41.5221 113.133 41.2849C113.61 41.0855 114.058 40.8836 114.433 40.5315C114.967 40.0292 115.336 39.4383 115.632 38.7539C115.93 38.0645 116.043 37.3775 116.058 36.6512C116.059 36.5932 116.068 36.5353 116.076 36.4773C116.081 36.4442 116.086 36.411 116.09 36.3779C116.093 36.346 116.098 36.314 116.102 36.2819L116.112 36.2137L116.112 36.2133C116.132 36.0754 116.152 35.9373 116.146 35.8018C116.139 35.6699 116.116 35.5395 116.093 35.409C116.076 35.3105 116.058 35.2119 116.048 35.1124C116.036 35.0006 116.034 34.8853 116.033 34.7702V34.7701C116.03 34.5529 116.027 34.3362 115.954 34.1448C115.767 33.645 115.536 33.1427 115.23 32.7044C114.519 31.6851 113.598 30.9145 112.293 30.8209C111.802 30.786 111.304 30.8197 110.807 30.8534C110.639 30.8648 110.471 30.8762 110.304 30.8849C110.227 30.8886 110.152 30.9305 110.079 30.9719C110.054 30.9862 110.028 31.0004 110.003 31.013C109.765 31.1297 109.526 31.2487 109.283 31.3699ZM109.137 36.2031H109.117V36.2006C109.123 36.0818 109.127 35.9627 109.131 35.8437C109.14 35.5657 109.149 35.288 109.183 35.0139C109.21 34.7997 109.297 34.5806 109.405 34.391C109.44 34.3303 109.474 34.2687 109.508 34.2069C109.734 33.8005 109.961 33.3907 110.459 33.2239C110.899 33.0787 111.316 33.0664 111.754 33.2855C112.729 33.7755 112.973 34.652 113.029 35.6171C113.059 36.1046 113.083 36.6118 112.97 37.0772C112.854 37.5573 112.64 38.0497 112.347 38.4461C111.557 39.5073 110.387 39.3177 109.634 38.3648C109.274 37.9093 109.122 37.3874 109.137 36.8137C109.14 36.6779 109.139 36.5432 109.138 36.4082V36.4079V36.4076V36.4074V36.4071C109.137 36.3392 109.137 36.2713 109.137 36.2031ZM73.3497 36.8782C73.0661 36.8782 72.7824 36.8789 72.4988 36.8796C71.7188 36.8815 70.9388 36.8835 70.1588 36.8708C69.8683 36.8659 69.7895 36.9619 69.7944 37.2377C69.8191 38.2742 70.7005 39.136 71.7469 39.1655C72.5569 39.1877 73.2512 38.9341 73.8126 38.3629C73.9676 38.2061 74.0894 38.0173 74.211 37.8287L74.211 37.8287L74.2112 37.8285L74.2112 37.8283C74.2614 37.7505 74.3116 37.6726 74.3641 37.5971C74.4823 37.4273 74.6226 37.3829 74.8073 37.4863C75.0523 37.623 75.2973 37.759 75.5423 37.8951C75.7872 38.0311 76.0322 38.1671 76.2772 38.3038C76.3132 38.3238 76.348 38.3463 76.3828 38.3687L76.3828 38.3687C76.4336 38.4014 76.4841 38.434 76.5382 38.4589C76.7548 38.5574 76.8435 38.7839 76.6957 38.9587C76.5863 39.0882 76.4792 39.221 76.372 39.3539C76.0573 39.7444 75.7415 40.136 75.3613 40.4483C74.7359 40.9653 73.9973 41.2977 73.1848 41.5119C72.3797 41.7236 71.5893 41.7089 70.7916 41.6498C70.41 41.6202 70.0283 41.4701 69.6689 41.3199C69.2799 41.1598 68.9081 40.9505 68.5412 40.7388C67.6795 40.2439 67.1895 39.4511 66.8768 38.5524C66.7629 38.2257 66.7048 37.8796 66.6468 37.5336V37.5335L66.6468 37.5335L66.6467 37.5332L66.6467 37.533L66.6466 37.5327C66.6194 37.3705 66.5922 37.2083 66.5592 37.0481C66.5434 36.9704 66.5198 36.8914 66.4963 36.8124C66.4468 36.646 66.3972 36.4795 66.4189 36.3242C66.4362 36.203 66.4529 36.0816 66.4695 35.9603C66.6325 34.772 66.7954 33.5837 67.613 32.5941C68.1965 31.8875 68.8785 31.3311 69.7304 30.9864C69.7476 30.9796 69.7648 30.9718 69.7821 30.9639C69.8217 30.9458 69.8616 30.9275 69.9028 30.9223C70.0935 30.8948 70.2836 30.8622 70.4736 30.8296L70.4736 30.8295L70.4737 30.8295L70.4737 30.8295C71.0831 30.7249 71.6918 30.6203 72.3206 30.686C74.3321 30.8928 75.7405 31.8949 76.4914 33.7833C76.841 34.6623 76.9764 35.5733 76.9986 36.5138C77.006 36.8265 76.8779 36.8979 76.6022 36.8954C75.8285 36.8902 75.0535 36.8912 74.2791 36.8922H74.2787H74.2784H74.2782H74.2779C73.9684 36.8926 73.659 36.893 73.3497 36.893V36.8831V36.8782ZM73.4753 34.7509C73.6667 34.1719 73.3136 33.8475 72.9679 33.53L72.9115 33.478C72.7662 33.3426 72.5889 33.2096 72.4043 33.1579C71.4022 32.8699 70.3238 33.3771 69.8855 34.3176C69.7477 34.6106 69.8511 34.7682 70.1859 34.7682H73.2783C73.3234 34.7682 73.3684 34.7629 73.4114 34.7579L73.4389 34.7547C73.4521 34.7533 73.4651 34.7519 73.4778 34.7509H73.4753ZM100.389 37.2598C100.45 36.9601 100.507 36.6625 100.563 36.3671L100.563 36.3657L100.563 36.3653L100.563 36.3652C100.699 35.6503 100.832 34.9488 101.021 34.2633C101.104 33.9676 101.152 33.6718 101.199 33.3761C101.224 33.2237 101.248 33.0714 101.278 32.919C101.317 32.7223 101.398 32.535 101.48 32.3475L101.48 32.3473C101.537 32.2156 101.594 32.084 101.637 31.9489C101.691 31.7784 101.698 31.5879 101.705 31.4048L101.706 31.3752C101.716 31.0847 101.881 30.937 102.149 30.9345C103.038 30.9247 103.929 30.9173 104.818 30.9394C105.148 30.9468 105.237 31.1906 105.062 31.4762C105.037 31.5177 105.025 31.567 105.013 31.6167C105.005 31.6465 104.998 31.6765 104.988 31.7052L104.893 31.9749C104.772 32.32 104.652 32.6643 104.532 33.0101C104.441 33.2735 104.35 33.5394 104.269 33.8054C104.225 33.9505 104.185 34.0964 104.145 34.2422C104.086 34.4575 104.027 34.6724 103.956 34.8838C103.873 35.1313 103.776 35.3752 103.679 35.6189C103.637 35.7267 103.594 35.8345 103.553 35.9425C103.551 35.9474 103.549 35.9517 103.546 35.956C103.544 35.9603 103.541 35.9646 103.54 35.9696C103.493 36.1279 103.446 36.2865 103.4 36.4451L103.399 36.4461C103.265 36.901 103.131 37.3562 102.989 37.8088C102.848 38.2519 102.7 38.6924 102.551 39.1332C102.499 39.2874 102.447 39.4418 102.395 39.5962C102.393 39.6021 102.391 39.608 102.389 39.6138C102.385 39.627 102.38 39.6402 102.375 39.6535L102.375 39.6536C102.364 39.6815 102.353 39.7099 102.346 39.7391C102.305 39.89 102.267 40.0421 102.229 40.1942L102.229 40.1945C102.153 40.4986 102.077 40.8027 101.977 41.0981L101.929 41.2403L101.929 41.2404C101.731 41.8268 101.531 42.4181 101.258 42.9694C100.953 43.5873 100.593 44.2127 99.8987 44.4836C99.4802 44.6485 99.0345 44.7889 98.5913 44.8233C98.0951 44.8635 97.5935 44.8495 97.0925 44.8356C96.9173 44.8307 96.7422 44.8259 96.5675 44.8233C96.1735 44.8184 96.0997 44.747 96.0972 44.3629V44.3615C96.0923 43.7711 96.0874 43.1806 96.0923 42.5902C96.0923 42.2701 96.1957 42.1765 96.5133 42.1642C96.6503 42.1594 96.7875 42.1559 96.9247 42.1525L96.9251 42.1525L96.9255 42.1525C97.2788 42.1435 97.6323 42.1346 97.9832 42.1027C98.3131 42.0731 98.5495 41.5512 98.4018 41.2483C98.3986 41.2416 98.3954 41.2348 98.3921 41.2281C98.3777 41.1978 98.363 41.1673 98.355 41.1351C98.2618 40.8215 98.1705 40.5073 98.0792 40.1933L98.0791 40.1932C97.8931 39.5531 97.707 38.9133 97.5055 38.279C97.33 37.7269 97.1356 37.1818 96.9411 36.6365L96.9406 36.635L96.9402 36.6338C96.854 36.3921 96.7678 36.1504 96.6832 35.908C96.6586 35.8415 96.6364 35.7726 96.6167 35.7061C96.5607 35.5247 96.5044 35.3435 96.4483 35.1623L96.4479 35.1611L96.4468 35.1577C96.2617 34.5608 96.0769 33.9647 95.8978 33.3671C95.8311 33.1445 95.7702 32.9202 95.7094 32.6962L95.7092 32.6955L95.7091 32.6953L95.709 32.695C95.6643 32.5305 95.6197 32.366 95.5728 32.2025L95.5486 32.1189C95.4953 31.9341 95.4415 31.7473 95.3709 31.5697C95.2232 31.1955 95.3709 30.9296 95.7796 30.9247C96.6487 30.9148 97.5179 30.9197 98.387 30.9321C98.4633 30.9321 98.5766 31.0133 98.6037 31.0822C98.6857 31.2921 98.7417 31.5138 98.7972 31.7334L98.8006 31.747C98.9582 32.3749 99.1133 33.0052 99.266 33.6355L99.3007 33.7782C99.3707 34.065 99.4404 34.3507 99.4974 34.64C99.559 34.949 99.6162 35.2592 99.6734 35.5695C99.7307 35.8797 99.7879 36.1899 99.8495 36.4989C99.8609 36.5575 99.8937 36.6128 99.9268 36.6684C99.9438 36.697 99.9608 36.7257 99.9751 36.755C99.9828 36.7712 99.9931 36.7883 100.003 36.8056C100.029 36.8484 100.055 36.8922 100.046 36.9273C99.9556 37.2759 100.168 37.272 100.389 37.2598ZM84.9512 34.5807L84.948 34.5773L85.0344 34.5337L85.0346 34.5336C85.1523 34.4744 85.3002 34.4 85.4436 34.3197C85.5702 34.2491 85.6982 34.1804 85.8262 34.1118L85.8263 34.1117C86.1487 33.9388 86.4711 33.7659 86.7707 33.5614C87.2533 33.2315 87.2459 33.1995 86.8987 32.7341C86.0936 31.6508 85.062 30.9343 83.6734 30.8186C83.6348 30.8151 83.5968 30.8066 83.5589 30.7981C83.5168 30.7887 83.4748 30.7793 83.4321 30.7767C83.3038 30.7696 83.1735 30.7551 83.043 30.7406C82.7251 30.7054 82.4064 30.67 82.1148 30.7398C81.9668 30.7754 81.8136 30.79 81.6599 30.8047C81.3458 30.8346 81.0294 30.8648 80.7484 31.0747C80.6068 31.1814 80.4347 31.2481 80.2624 31.3149C80.093 31.3805 79.9236 31.4461 79.7832 31.5499C78.5989 32.4239 77.8751 33.6033 77.6658 35.0534C77.5722 35.7034 77.587 36.3781 77.6239 37.0354C77.6855 38.0892 78.0671 39.0322 78.7688 39.8324C79.3277 40.4701 79.9876 40.9478 80.7927 41.2604C81.5289 41.546 82.27 41.7012 83.0529 41.6445C83.3558 41.6248 83.661 41.5633 83.9516 41.4796C84.0215 41.4597 84.0923 41.4406 84.1634 41.4214C84.4882 41.3338 84.8189 41.2446 85.0915 41.0709C85.5938 40.7532 86.0592 40.3618 86.495 39.9531C86.6444 39.8132 86.7611 39.6404 86.8781 39.4672C86.9711 39.3294 87.0643 39.1913 87.1745 39.0692C87.3419 38.887 87.3247 38.7663 87.1351 38.6629C86.9402 38.5552 86.7424 38.4527 86.5447 38.3502C86.2905 38.2184 86.0363 38.0866 85.7883 37.944C85.4855 37.7692 85.1925 37.6042 84.8109 37.7051C84.7718 38.0984 84.5037 38.3349 84.237 38.5703C84.1847 38.6164 84.1325 38.6625 84.0821 38.7097C83.73 39.0396 82.5851 39.1233 82.1912 38.85C81.5092 38.3748 81.0512 37.7322 80.933 36.9025C80.7976 35.9324 80.8666 34.982 81.3934 34.1129C81.684 33.6377 82.1099 33.3275 82.6442 33.2167C83.1342 33.1158 83.6044 33.3078 83.9811 33.5885C84.2314 33.7737 84.4424 34.0125 84.6596 34.2586C84.7533 34.3648 84.8482 34.4723 84.948 34.5773L84.9414 34.5807H84.9512ZM88.5558 41.2529H91.5054V41.2505C91.5081 41.2124 91.5108 41.1778 91.5133 41.1459C91.5199 41.0624 91.5251 40.997 91.5251 40.9328C91.5275 39.9948 91.5294 39.0573 91.5312 38.1199C91.5331 37.1824 91.5349 36.245 91.5374 35.3069C91.5398 34.7751 91.7467 34.3565 92.2637 34.1522C92.5468 34.0414 92.8423 33.9503 93.1402 33.8912C93.3466 33.8506 93.5577 33.8356 93.7686 33.8205C93.8646 33.8137 93.9606 33.8069 94.0561 33.7976C94.2531 33.7779 94.3885 33.6819 94.3885 33.4702C94.3934 32.6749 94.3934 31.8821 94.3934 31.0868C94.3934 30.9194 94.3171 30.8579 94.1423 30.8776C93.8001 30.9145 93.4726 30.9736 93.1377 31.0696C92.6995 31.1952 92.2932 31.3454 91.9067 31.5793C91.8238 31.63 91.7245 31.6541 91.6202 31.6793C91.5728 31.6908 91.5243 31.7025 91.4758 31.7171C91.47 31.6815 91.4646 31.6541 91.4602 31.6317C91.4533 31.5967 91.4487 31.5737 91.4487 31.5497C91.4611 31.0081 91.3896 30.9293 90.8455 30.9243C90.2398 30.9194 89.6366 30.917 89.0334 30.9317C88.445 30.9465 88.3637 31.0376 88.3637 31.6187V38.3796C88.3645 38.6667 88.3656 38.954 88.3667 39.2415C88.3689 39.8195 88.3711 40.3984 88.3711 40.9772C88.3711 40.9899 88.3709 41.0027 88.3707 41.0154C88.3685 41.1361 88.3665 41.2529 88.5558 41.2529Z" fill="#474D57"/>
</svg>
