<?xml version="1.0" encoding="UTF-8"?> <svg xmlns="http://www.w3.org/2000/svg" width="154" height="29" viewBox="0 0 154 29" fill="none"><path fill-rule="evenodd" clip-rule="evenodd" d="M18.2621 1.07178L15.968 2.31144V12.8431L17.2208 13.521V5.50044L21.5213 7.82518L21.5255 7.82331L22.3605 8.274L23.0577 7.89967V7.26662L17.2208 4.1158V3.01925L18.2621 2.45669L24.3069 5.72472V8.63337L21.4051 10.1932L21.3071 10.147C21.1304 10.0642 20.9474 10.022 20.7636 10.022C20.0731 10.022 19.511 10.564 19.511 11.2299C19.511 11.8958 20.0731 12.4381 20.7636 12.4381C21.4042 12.4381 21.9369 11.9716 22.0025 11.3533L22.0136 11.2491L24.9423 9.67493L27.6583 11.1434V17.6405L24.9392 19.109L13.8882 13.1328V2.31224L11.5941 1.07178L4.29704 5.01691V8.61709L0.945312 10.4268V18.34L4.29704 20.1521V23.7587L11.5941 27.7038L13.8882 26.4636V15.9093L12.6354 15.2322V23.2754L7.49593 20.5016L6.79851 20.8759V21.5093L12.6354 24.6603V25.7558L11.5941 26.3189L5.54957 23.0509V20.1417L8.45139 18.5827L8.54885 18.6286C8.72632 18.7114 8.90877 18.7536 9.09233 18.7536C9.78311 18.7536 10.3451 18.2119 10.3451 17.5457C10.3451 16.8793 9.78311 16.3378 9.09233 16.3378C8.45222 16.3378 7.92009 16.804 7.85364 17.4226L7.84312 17.5265L4.91389 19.101L2.19785 17.6322V11.1351L4.91721 9.66691L15.968 15.6423V26.4636L18.2621 27.7038L25.5594 23.7587V20.1585L28.9111 18.3491V10.4356L25.5594 8.62403V5.01691L18.2621 1.07178ZM5.54958 5.72464L11.5941 2.4566L12.6354 3.01943V4.11518L5.54958 7.94044V5.72464ZM12.6354 5.49988L6.19938 8.9751L12.6354 12.4551V5.49988ZM17.2208 16.3198L23.6573 19.8007L17.2208 23.2759V16.3198ZM17.2208 24.6606V25.7558L18.262 26.3189L24.3068 23.0508V20.8348L17.2208 24.6606Z" fill="white"></path><path d="M36.789 16.9909H40.1504C40.1504 18.5596 41.2709 19.652 43.0916 19.652C45.0805 19.652 46.0329 18.6716 46.0329 17.5512C46.0329 14.3298 36.9291 16.0105 36.9291 9.87595C36.9291 7.18683 39.3101 4.80583 43.0916 4.80583C46.5931 4.80583 48.9741 7.18683 48.9741 10.4082H45.7527C45.7527 8.83952 44.7723 7.88712 43.0916 7.88712C41.4109 7.88712 40.4305 8.86753 40.4305 9.84794C40.4305 12.9012 49.5343 11.2765 49.5343 17.6912C49.5343 20.2123 46.9853 22.7333 43.0916 22.7333C39.17 22.7333 36.789 20.3523 36.789 16.9909ZM54.7034 22.5933L50.5016 9.70788H53.7229L56.244 17.9713L58.9051 9.70788H60.8659L63.527 17.9713L66.0481 9.70788H69.2694L65.0677 22.5933H62.2665L59.8855 14.89L57.5045 22.5933H54.7034ZM70.9414 22.5933V9.70788H74.1627V22.5933H70.9414ZM72.6221 8.16724C71.6417 8.16724 70.8013 7.32689 70.8013 6.34648C70.8013 5.36607 71.6417 4.52572 72.6221 4.52572C73.6025 4.52572 74.4428 5.36607 74.4428 6.34648C74.4428 7.32689 73.6025 8.16724 72.6221 8.16724ZM76.5328 18.5316H79.6141C79.7541 19.3999 80.4544 20.0722 81.5749 20.0722C82.6954 20.0722 83.3956 19.3719 83.3956 18.6716C83.3956 16.8509 76.8129 17.9433 76.8129 13.4895C76.8129 11.3886 78.6337 9.56782 81.4348 9.56782C84.5441 9.56782 86.1688 11.2485 86.4769 13.4895H83.3956C83.2556 12.9292 82.5553 12.2289 81.5749 12.2289C80.5945 12.2289 80.0342 12.7892 80.0342 13.4895C80.0342 15.2822 86.617 14.2178 86.617 18.8117C86.617 20.9126 84.7682 22.7333 81.855 22.7333C78.4936 22.7333 76.7849 21.0806 76.5328 18.5316ZM88.2955 18.5316H91.3768C91.5169 19.3999 92.2171 20.0722 93.3376 20.0722C94.4581 20.0722 95.1584 19.3719 95.1584 18.6716C95.1584 16.8509 88.5756 17.9433 88.5756 13.4895C88.5756 11.3886 90.3964 9.56782 93.1976 9.56782C96.3069 9.56782 97.9315 11.2485 98.2397 13.4895H95.1584C95.0183 12.9292 94.318 12.2289 93.3376 12.2289C92.3572 12.2289 91.797 12.7892 91.797 13.4895C91.797 15.2822 98.3797 14.2178 98.3797 18.8117C98.3797 20.9126 96.5309 22.7333 93.6177 22.7333C90.2563 22.7333 88.5476 21.0806 88.2955 18.5316ZM100.759 22.5933V4.94589H103.98V10.8283C104.232 10.6043 104.54 10.4082 104.876 10.2121C105.464 9.90396 106.249 9.56782 107.341 9.56782C110.563 9.56782 113.364 12.341 113.364 16.1506C113.364 19.9602 110.563 22.7333 107.341 22.7333C106.221 22.7333 105.324 22.3972 104.68 22.033C104.316 21.8369 103.98 21.5848 103.7 21.3327L103.14 22.5933H100.759ZM106.921 19.652C108.742 19.652 110.142 18.2795 110.142 16.1506C110.142 14.0217 108.742 12.6491 106.921 12.6491C105.1 12.6491 103.7 14.0217 103.7 16.1506C103.7 18.2795 105.1 19.652 106.921 19.652ZM121.492 12.6491C119.671 12.6491 118.27 14.0217 118.27 16.1506C118.27 18.2795 119.671 19.652 121.492 19.652C123.312 19.652 124.713 18.2795 124.713 16.1506C124.713 14.0217 123.312 12.6491 121.492 12.6491ZM121.492 9.56782C124.965 9.56782 127.934 12.5091 127.934 16.1506C127.934 19.7921 124.965 22.7333 121.492 22.7333C118.018 22.7333 115.049 19.7921 115.049 16.1506C115.049 12.5091 118.018 9.56782 121.492 9.56782ZM130.302 22.5933V9.70788H132.683L133.243 11.1085C133.467 10.8283 133.748 10.5762 134.056 10.3522C134.588 9.93198 135.344 9.56782 136.325 9.56782C136.633 9.56782 136.829 9.62385 137.025 9.65186L137.305 9.70788V13.0693L136.997 13.0133C136.801 12.9853 136.521 12.9292 136.185 12.9292C134.616 12.9292 133.523 14.0497 133.523 15.7304V22.5933H130.302ZM139.271 23.1535H142.493C142.633 23.4056 142.801 23.6017 143.025 23.7978C143.445 24.1059 144.033 24.414 145.014 24.414C146.834 24.414 147.955 23.3216 147.955 21.7529V20.7725C147.703 21.0246 147.395 21.2767 147.059 21.4728C146.47 21.8369 145.63 22.1731 144.594 22.1731C141.344 22.1731 138.711 19.512 138.711 15.8705C138.711 12.2289 141.344 9.56782 144.594 9.56782C145.714 9.56782 146.61 9.93198 147.255 10.2681C147.619 10.4642 147.927 10.7163 148.235 10.9684L148.795 9.70788H151.176V21.7529C151.176 25.1143 148.935 27.3552 145.014 27.3552C142.633 27.3552 141.232 26.3468 140.364 25.2544C139.888 24.6381 139.523 23.9378 139.271 23.1535ZM145.014 19.0918C146.666 19.0918 148.095 17.6632 148.095 15.8705C148.095 14.0777 146.666 12.6491 145.014 12.6491C143.305 12.6491 141.932 14.0777 141.932 15.8705C141.932 17.6632 143.305 19.0918 145.014 19.0918Z" fill="white"></path></svg> 