<svg width="144" height="58" viewBox="0 0 144 58" fill="none" xmlns="http://www.w3.org/2000/svg">
<path d="M69.5309 22.4804C69.4775 22.524 69.4223 22.5676 69.368 22.6103C66.4992 24.7377 63.5022 26.6843 60.5836 28.7422C55.5314 32.3472 50.6785 36.2645 46.2699 40.6376C46.2636 40.6429 46.2583 40.6491 46.2521 40.6545C43.183 43.6114 40.275 46.7348 37.5469 50.0086C44.1114 39.1368 53.5972 30.0436 64.7573 23.9455C61.0625 23.3126 58.3397 23.9455 50.1409 25.6153C56.6431 20.7144 57.8946 19.2199 60.1279 14.2656C61.3642 14.4294 62.5979 14.6128 63.828 14.8175C62.1101 18.2114 59.2306 20.669 56.0539 22.6815L54.7205 23.5494C56.2613 22.9699 57.9409 22.3486 59.544 21.9962C62.8249 21.2378 66.3871 21.1621 69.5309 22.4804Z" fill="url(#paint0_linear_149_4150)"/>
<path d="M89.156 15.7521C84.4447 16.911 80.3475 20.183 78.132 24.4831C76.4711 27.7961 73.7688 30.5385 70.4371 32.1932C68.9248 32.9444 67.2977 33.2595 65.708 33.7927C70.0259 31.652 73.4777 28.2064 74.8752 23.4568C74.9553 23.1969 75.1119 22.6717 75.1858 22.4101C76.877 17.0241 82.8549 13.9488 88.2018 15.4139C88.5222 15.51 88.8409 15.623 89.156 15.7521Z" fill="url(#paint1_linear_149_4150)"/>
<path d="M89.1938 15.7413C83.3947 13.1556 76.2419 16.692 74.694 22.8372C74.548 23.3188 74.3834 23.9196 74.1955 24.3833C74.0896 24.6815 73.9196 25.1052 73.7834 25.3847L73.5591 25.8778L73.3046 26.3558C71.43 29.9073 68.1589 32.5349 64.5798 34.2563L63.5855 34.7156C56.0508 37.7945 49.4124 42.9642 44.5765 49.4922C46.615 45.8292 49.1766 42.4585 52.1522 39.5024C54.1621 37.5057 56.3609 35.6982 58.7149 34.1175C54.9204 35.28 51.3279 36.9151 48.0426 38.9837C52.0293 35.3503 56.3045 32.032 60.7158 28.9318C63.655 26.897 66.684 24.985 69.5581 22.8559C69.7352 22.7215 69.9311 22.5542 70.0957 22.3859L69.883 22.2916C66.6243 20.8336 62.8948 20.879 59.467 21.6605C58.7585 21.8207 58.0571 22.0121 57.3637 22.2302C57.7865 21.9373 58.204 21.6356 58.6134 21.3241C60.9393 19.5955 62.9251 17.3782 64.2104 14.7685L64.3092 14.5726C61.7795 14.1543 59.2374 13.8098 56.6855 13.5633C52.3836 13.1431 47.9571 12.9713 43.6303 13.0336C40.5399 13.0933 37.3836 13.2571 34.3154 13.5659C46.8935 9.36643 60.196 7.34857 73.4559 7.58444C73.2333 9.58628 72.4198 11.5107 71.1416 13.071C77.0661 10.4363 84.3027 11.5 89.1938 15.7413Z" fill="url(#paint2_linear_149_4150)"/>
<path d="M70.0957 22.3862C69.9311 22.5544 69.7352 22.7218 69.5581 22.8562C66.684 24.9853 63.655 26.8972 60.7158 28.932C56.3045 32.0322 52.0293 35.3505 48.0426 38.9839C47.4444 39.5278 46.8534 40.0787 46.2695 40.6377C50.6782 36.2647 55.531 32.3473 60.5832 28.7424C63.5019 26.6845 66.4988 24.7378 69.3676 22.6105C69.4219 22.5678 69.4771 22.5242 69.5305 22.4805C66.3867 21.1623 62.8245 21.238 59.5436 21.9963C57.9405 22.3488 56.2609 22.9701 54.7201 23.5496L56.0535 22.6817C59.2303 20.6692 62.1097 18.2116 63.8276 14.8177C62.5975 14.6129 61.3638 14.4296 60.1275 14.2658C58.9721 14.1118 57.815 13.9738 56.6561 13.8519C51.7516 13.3223 46.703 13.1336 41.7665 13.211C39.2804 13.2537 36.7961 13.3775 34.3154 13.5662C37.3836 13.2573 40.5399 13.0935 43.6303 13.0339C47.9571 12.9716 52.3836 13.1434 56.6855 13.5635C59.2374 13.8101 61.7795 14.1545 64.3092 14.5729L64.2104 14.7687C62.9251 17.3785 60.9393 19.5957 58.6134 21.3243C58.204 21.6358 57.7865 21.9376 57.3637 22.2304C58.0571 22.0123 58.7585 21.821 59.467 21.6608C62.8948 20.8792 66.6243 20.8339 69.883 22.2918L70.0957 22.3862Z" fill="#FDF851"/>
<path d="M89.1942 15.7414C89.1826 15.7369 89.1701 15.7325 89.1586 15.728C88.8426 15.6061 88.5239 15.5019 88.2026 15.4138C82.8558 13.9487 76.8778 17.024 75.1866 22.41C75.1128 22.6717 74.9561 23.1968 74.876 23.4568C73.4785 28.2063 70.0267 31.6519 65.7088 33.7926C65.3466 33.9724 64.9772 34.1433 64.6024 34.3053L63.5859 34.7157L64.5802 34.2564C68.1593 32.5349 71.4304 29.9073 73.305 26.3558L73.5595 25.8778L73.7838 25.3847C73.92 25.1052 74.09 24.6815 74.196 24.3834C74.3838 23.9196 74.5484 23.3188 74.6944 22.8372C76.2423 16.692 83.3952 13.1556 89.1942 15.7414Z" fill="#FDF851"/>
<path d="M57.261 19.3289H54.851V19.3299C53.0879 19.3511 51.4514 19.6569 49.9415 20.2474C48.3754 20.8599 47.0136 21.7218 45.8561 22.8333C44.6986 23.9221 43.8021 25.2151 43.1665 26.7122C42.531 28.1866 42.2133 29.8084 42.2133 31.5777C42.2133 33.347 42.531 34.9802 43.1665 36.4773C43.8021 37.9517 44.6986 39.2447 45.8561 40.3562C47.0136 41.445 48.3754 42.2956 49.9415 42.908C51.4272 43.4891 53.0457 43.7945 54.797 43.8243V43.8266H76.5672V43.8243C78.3185 43.7945 79.937 43.4891 81.4228 42.908C82.9888 42.2956 84.3506 41.445 85.5081 40.3562C86.6657 39.2447 87.5622 37.9517 88.1977 36.4773C88.8332 34.9802 89.1509 33.347 89.1509 31.5777C89.1509 29.8084 88.8332 28.1866 88.1977 26.7122C87.5622 25.2151 86.6657 23.9221 85.5081 22.8333C84.3506 21.7218 82.9888 20.8599 81.4228 20.2474C81.3791 20.2303 81.3353 20.2135 81.2914 20.1969C80.2913 21.1858 79.4113 22.2961 78.6827 23.5008C79.0146 23.5879 79.3378 23.6943 79.6524 23.82C80.6511 24.2283 81.5362 24.8181 82.3079 25.5893C83.0569 26.3379 83.647 27.2225 84.0783 28.2433C84.4868 29.2413 84.6911 30.3528 84.6911 31.5777C84.6911 32.7799 84.4868 33.8914 84.0783 34.9122C83.647 35.9329 83.0569 36.8289 82.3079 37.6001C81.5589 38.3487 80.6738 38.9271 79.6524 39.3354C78.6498 39.7362 77.5597 39.9403 76.3821 39.9477V39.9482H54.9821V39.9477C53.8045 39.9403 52.7144 39.7362 51.7118 39.3354C50.6904 38.9271 49.8053 38.3487 49.0563 37.6001C48.3073 36.8289 47.7172 35.9329 47.286 34.9122C46.8774 33.8914 46.6732 32.7799 46.6732 31.5777C46.6732 30.3528 46.8774 29.2413 47.286 28.2433C47.7172 27.2225 48.3073 26.3379 49.0563 25.5893C49.828 24.8181 50.7132 24.2283 51.7118 23.82C52.1157 23.6586 52.5337 23.529 52.966 23.4314C54.9396 21.8472 56.2384 20.6261 57.261 19.3289Z" fill="white"/>
<path d="M9.39637 43.8266C7.53525 43.8266 5.75358 43.5657 4.05133 43.044C2.34909 42.4996 0.998648 41.8078 0 40.9685L1.53202 37.532C2.48527 38.2805 3.66549 38.9043 5.07268 39.4033C6.47986 39.9024 7.92109 40.1519 9.39637 40.1519C10.6447 40.1519 11.6547 40.0158 12.4264 39.7436C13.198 39.4714 13.7655 39.1085 14.1286 38.6548C14.4917 38.1784 14.6733 37.6454 14.6733 37.0556C14.6733 36.3298 14.4123 35.7513 13.8903 35.3203C13.3683 34.8667 12.6874 34.5151 11.8476 34.2656C11.0305 33.9934 10.1113 33.7439 9.08997 33.517C8.09132 33.2902 7.08132 33.0293 6.05998 32.7345C5.06133 32.4169 4.14212 32.0199 3.30235 31.5436C2.48527 31.0445 1.81572 30.3867 1.2937 29.5701C0.771683 28.7535 0.510672 27.7101 0.510672 26.4398C0.510672 25.1469 0.851121 23.9674 1.53202 22.9012C2.23561 21.8124 3.291 20.9505 4.69819 20.3153C6.12807 19.6575 7.93244 19.3286 10.1113 19.3286C11.5412 19.3286 12.9597 19.5101 14.3669 19.873C15.7741 20.2359 16.9997 20.7577 18.0438 21.4382L16.6479 24.8747C15.5812 24.2395 14.4804 23.7745 13.3456 23.4797C12.2107 23.1621 11.1213 23.0033 10.0773 23.0033C8.85165 23.0033 7.85301 23.1508 7.08132 23.4456C6.33234 23.7405 5.77627 24.1261 5.41313 24.6025C5.07268 25.0788 4.90245 25.6232 4.90245 26.2357C4.90245 26.9615 5.15212 27.5513 5.65144 28.005C6.17346 28.436 6.84301 28.7762 7.66008 29.0257C8.49986 29.2752 9.43042 29.5248 10.4518 29.7743C11.4731 30.0011 12.4831 30.262 13.4818 30.5569C14.5031 30.8517 15.4223 31.2374 16.2394 31.7137C17.0792 32.1901 17.7487 32.8365 18.248 33.6531C18.77 34.4697 19.0311 35.5018 19.0311 36.7494C19.0311 38.0197 18.6793 39.1992 17.9757 40.288C17.2948 41.3541 16.2394 42.2161 14.8095 42.8739C13.3796 43.509 11.5752 43.8266 9.39637 43.8266Z" fill="white"/>
<path d="M28.262 43.4863V23.4116H20.3636V19.6689H40.5862V23.4116H32.6878V43.4863H28.262Z" fill="white"/>
<path d="M117.679 19.6689V43.4863H121.901V27.912L129.731 40.7643H131.706L139.539 27.7064L139.57 43.4863H143.757L143.723 19.6689H140.08L130.778 35.4515L121.322 19.6689H117.679Z" fill="white"/>
<path fill-rule="evenodd" clip-rule="evenodd" d="M92.4367 19.6689V43.4863H96.8625V36.5452H102.242C102.559 36.5452 102.87 36.5378 103.174 36.5229L108.029 43.4863H112.795L107.331 35.6936C108.87 35.0836 110.249 34.0586 111.161 32.6664C111.978 31.3961 112.387 29.8877 112.387 28.1411C112.387 26.3945 111.978 24.886 111.161 23.6158C109.248 20.6413 105.59 19.6689 102.242 19.6689H92.4367ZM102.037 32.9046C103.989 32.9046 105.453 32.4849 106.429 31.6457C107.428 30.8064 107.927 29.6382 107.927 28.1411C107.927 26.6213 107.428 25.4531 106.429 24.6365C105.453 23.8199 103.989 23.4116 102.037 23.4116H96.8625V32.9046H102.037Z" fill="white"/>
<defs>
<linearGradient id="paint0_linear_149_4150" x1="82.8316" y1="-51.3453" x2="117.83" y2="11.3596" gradientUnits="userSpaceOnUse">
<stop offset="0.1875" stop-color="#A4560E"/>
<stop offset="0.567256" stop-color="#E07716"/>
<stop offset="0.863872" stop-color="#FFC401"/>
</linearGradient>
<linearGradient id="paint1_linear_149_4150" x1="98.9069" y1="-19.3566" x2="113.757" y2="17.8401" gradientUnits="userSpaceOnUse">
<stop offset="0.1875" stop-color="#A4560E"/>
<stop offset="0.567256" stop-color="#E07716"/>
<stop offset="0.863872" stop-color="#FFC401"/>
</linearGradient>
<linearGradient id="paint2_linear_149_4150" x1="71.2725" y1="14.351" x2="34.3153" y2="82.3264" gradientUnits="userSpaceOnUse">
<stop stop-color="#FFE619"/>
<stop offset="0.440758" stop-color="#FEB226"/>
<stop offset="1" stop-color="#FE9F19"/>
</linearGradient>
</defs>
</svg>
