<?xml version="1.0" encoding="UTF-8"?> <svg xmlns="http://www.w3.org/2000/svg" width="183" height="41" viewBox="0 0 183 41" fill="none"><path fill-rule="evenodd" clip-rule="evenodd" d="M2.15244 24.8979C2.15539 24.8727 2.15835 24.8491 2.16426 24.8255C2.17016 24.8019 2.17755 24.7797 2.18493 24.7576C2.1884 24.7487 2.1917 24.7396 2.195 24.7305C2.20154 24.7125 2.20809 24.6945 2.21595 24.6778C2.21742 24.6741 2.21853 24.6708 2.21964 24.6674C2.22075 24.6641 2.22185 24.6608 2.22333 24.6571L11.5189 6.06892C11.5208 6.06571 11.5233 6.06278 11.5259 6.05976C11.5292 6.05584 11.5326 6.05178 11.5351 6.04677C11.5617 5.99803 11.5927 5.95225 11.6297 5.9109C11.6341 5.90646 11.6382 5.90128 11.6422 5.89611C11.6463 5.89095 11.6503 5.88578 11.6548 5.88136C11.6976 5.83557 11.7464 5.79718 11.7995 5.76321C11.8083 5.75733 11.8172 5.75275 11.826 5.74818C11.8304 5.74586 11.8349 5.74354 11.8394 5.74105C11.8822 5.71742 11.928 5.69675 11.9753 5.68198C11.9834 5.67976 11.9915 5.67718 11.9997 5.67459C12.0078 5.67201 12.0159 5.66942 12.024 5.66721C12.0816 5.65244 12.1422 5.6421 12.2057 5.6421C12.2057 5.6421 12.2086 5.64062 12.2116 5.64062C12.2145 5.64062 12.2176 5.64108 12.2208 5.64155C12.2257 5.64226 12.2307 5.643 12.2352 5.6421C12.2839 5.64358 12.3297 5.64801 12.3755 5.65835C12.385 5.66008 12.3941 5.66335 12.4032 5.66665C12.4096 5.66896 12.4161 5.67129 12.4228 5.67312C12.4612 5.68493 12.4996 5.69675 12.5365 5.71447C12.5395 5.71596 12.5428 5.71707 12.5462 5.71819C12.5495 5.71929 12.5528 5.72039 12.5557 5.72185C12.5639 5.72596 12.5712 5.73097 12.5783 5.73588C12.584 5.73981 12.5896 5.74368 12.5955 5.74696C12.602 5.75096 12.6084 5.75485 12.6147 5.75871C12.6319 5.76914 12.6488 5.77942 12.665 5.79127C12.6807 5.80252 12.6947 5.81462 12.709 5.82693C12.7135 5.83078 12.718 5.83466 12.7226 5.83853L12.7229 5.83882C12.7405 5.85498 12.7596 5.8726 12.7758 5.89022C12.7934 5.90942 12.8097 5.92862 12.8245 5.9493C12.8393 5.9685 12.854 5.98917 12.8673 6.00985C12.8805 6.032 12.8924 6.05268 12.9027 6.07483C12.9145 6.09698 12.9249 6.12062 12.9337 6.14425C12.9426 6.16788 12.95 6.19151 12.9559 6.21514C12.9618 6.23877 12.9677 6.2624 12.9721 6.2875C12.9781 6.31557 12.9796 6.34215 12.981 6.37021C12.981 6.37742 12.9821 6.38463 12.9831 6.39201C12.9843 6.39975 12.9854 6.40768 12.9854 6.41599V23.1345L20.9562 15.1636C20.9932 15.1267 21.033 15.0942 21.0759 15.0662C21.0887 15.0583 21.1015 15.0517 21.1143 15.0451C21.1207 15.0419 21.1271 15.0386 21.1335 15.0351C21.1418 15.0307 21.15 15.026 21.1582 15.0212C21.1746 15.0117 21.1911 15.0022 21.2088 14.9953C21.229 14.9869 21.2493 14.9815 21.2704 14.9758C21.2754 14.9744 21.2805 14.9731 21.2856 14.9716C21.2955 14.9692 21.3049 14.9662 21.3142 14.9632C21.3271 14.9591 21.3398 14.955 21.3535 14.9524C21.4038 14.9436 21.4554 14.9377 21.5057 14.9377C21.5574 14.9377 21.6076 14.9421 21.6577 14.9524C21.671 14.9551 21.6843 14.9594 21.6976 14.9636C21.7065 14.9664 21.7154 14.9693 21.7242 14.9716C21.7312 14.9737 21.7383 14.9756 21.7455 14.9776C21.764 14.9827 21.7829 14.9878 21.801 14.9953C21.8188 15.0032 21.8352 15.0123 21.8516 15.0215C21.8598 15.0261 21.868 15.0307 21.8764 15.0351C21.8827 15.0386 21.8893 15.0419 21.8958 15.0451C21.909 15.0517 21.9221 15.0583 21.9339 15.0662C21.9767 15.0942 22.0167 15.1267 22.0536 15.1636L30.0243 23.1345V6.41599C30.0243 6.40482 30.0257 6.39434 30.0271 6.38408C30.0277 6.37943 30.0283 6.37482 30.0288 6.37021C30.0298 6.36115 30.0306 6.35224 30.0314 6.34338C30.033 6.32482 30.0347 6.3065 30.0377 6.2875C30.0421 6.2624 30.048 6.23877 30.0539 6.21514C30.0563 6.20743 30.0586 6.19972 30.0608 6.19201C30.0655 6.17609 30.0701 6.16017 30.0761 6.14425C30.0849 6.12062 30.0953 6.09698 30.107 6.07483C30.1104 6.0685 30.1137 6.06217 30.1169 6.05587C30.125 6.04014 30.133 6.02462 30.1426 6.00985C30.1558 5.98917 30.1705 5.9685 30.1854 5.9493L30.1896 5.94392C30.2042 5.92527 30.2179 5.90775 30.2341 5.89022C30.2503 5.8725 30.2681 5.85477 30.2873 5.83853C30.2918 5.83465 30.2963 5.83078 30.3008 5.82693C30.3151 5.81462 30.3291 5.80252 30.3449 5.79127C30.367 5.77502 30.3906 5.76025 30.4143 5.74696C30.4216 5.74327 30.4279 5.73884 30.4342 5.73441C30.4405 5.72998 30.4468 5.72555 30.4541 5.72185C30.4571 5.72038 30.4604 5.71927 30.4637 5.71816C30.467 5.71705 30.4704 5.71595 30.4733 5.71447C30.5103 5.69822 30.5487 5.68493 30.5885 5.67312C30.5959 5.67163 30.6034 5.66904 30.6108 5.66644C30.6181 5.66387 30.6255 5.6613 30.6328 5.65982C30.6787 5.64949 30.7258 5.64506 30.7746 5.64358C30.7783 5.64358 30.7824 5.64284 30.7864 5.6421C30.7905 5.64136 30.7946 5.64062 30.7982 5.64062C30.7982 5.64062 30.8012 5.6421 30.8042 5.6421C30.8662 5.6421 30.9267 5.65244 30.9858 5.66721C31.0021 5.67164 31.0183 5.67607 31.0345 5.68198C31.0818 5.69822 31.1276 5.71742 31.1704 5.74105C31.1749 5.74351 31.1793 5.74581 31.1837 5.74811C31.1926 5.7527 31.2014 5.7573 31.2103 5.76321C31.2635 5.79718 31.3122 5.83705 31.3551 5.88136C31.3607 5.88703 31.3658 5.89331 31.371 5.8998C31.374 5.90346 31.377 5.90718 31.3802 5.9109C31.417 5.95225 31.4481 5.99803 31.4746 6.04677C31.4766 6.04994 31.479 6.05284 31.4816 6.05582C31.4849 6.05978 31.4884 6.06387 31.4909 6.06892L40.7865 24.6571C40.7895 24.663 40.7909 24.6704 40.7938 24.6778C40.806 24.7008 40.8144 24.7262 40.8226 24.7507L40.8249 24.7576C40.8322 24.7797 40.8397 24.8033 40.8455 24.8255C40.8514 24.8491 40.8544 24.8742 40.8574 24.8979C40.8619 24.9259 40.8647 24.9525 40.8662 24.9806C40.8677 24.9895 40.8692 24.9968 40.8692 25.0042C40.8692 25.0153 40.8678 25.0258 40.8664 25.0361C40.8658 25.0407 40.8652 25.0454 40.8647 25.05C40.8618 25.078 40.8603 25.1046 40.8559 25.1326C40.8516 25.1567 40.846 25.1795 40.8404 25.2022L40.8397 25.205C40.8338 25.2287 40.8263 25.2523 40.8175 25.2759C40.8087 25.2996 40.7983 25.3232 40.7865 25.3453C40.783 25.3518 40.7797 25.3583 40.7764 25.3647C40.7684 25.3803 40.7605 25.3957 40.7511 25.4104C40.7378 25.431 40.723 25.4517 40.7082 25.4709C40.6919 25.4916 40.6772 25.5107 40.6595 25.5299C40.6432 25.5477 40.6255 25.5654 40.6063 25.5816C40.6016 25.5856 40.5969 25.5896 40.5924 25.5935C40.5782 25.6057 40.5643 25.6177 40.5487 25.6289C40.5265 25.6451 40.5029 25.6599 40.4793 25.6732C40.4719 25.6769 40.4657 25.6813 40.4594 25.6858C40.4531 25.6902 40.4468 25.6947 40.4394 25.6983L21.8512 34.9924C21.8453 34.9954 21.838 34.9968 21.8306 34.9998C21.8202 35.0043 21.8114 35.0101 21.801 35.0146C21.7907 35.019 21.7818 35.0219 21.7715 35.0249C21.7636 35.0272 21.7553 35.03 21.7471 35.0328C21.7398 35.0352 21.7326 35.0376 21.7257 35.0397L21.7232 35.0405C21.7092 35.0446 21.6953 35.0487 21.6814 35.0514C21.6795 35.0521 21.6777 35.0527 21.6759 35.0533C21.6693 35.0556 21.6633 35.0577 21.6563 35.0589C21.6474 35.0603 21.6385 35.0603 21.6297 35.0619C21.62 35.0626 21.6108 35.0639 21.6017 35.0651C21.5942 35.0661 21.5869 35.0671 21.5795 35.0678L21.5756 35.0681C21.5593 35.0694 21.5442 35.0706 21.5278 35.0706H21.482C21.4658 35.0706 21.4481 35.0692 21.4303 35.0678C21.4126 35.0662 21.3963 35.0648 21.3801 35.0619C21.3755 35.0611 21.3709 35.0607 21.3664 35.0603C21.3621 35.0599 21.3578 35.0596 21.3535 35.0589C21.3491 35.0581 21.345 35.0567 21.341 35.0552C21.3369 35.0537 21.3329 35.0522 21.3284 35.0514C21.3136 35.0486 21.2989 35.0441 21.2841 35.0397C21.2808 35.0387 21.2774 35.0377 21.274 35.0367C21.2622 35.0332 21.2498 35.0295 21.2383 35.0249C21.228 35.0205 21.2176 35.019 21.2088 35.0146C21.2003 35.0109 21.1928 35.0063 21.1847 35.0023C21.1829 35.0014 21.1811 35.0006 21.1792 34.9998C21.1733 34.9968 21.166 34.9954 21.1586 34.9924L2.5704 25.6983C2.5622 25.6942 2.5549 25.6892 2.54776 25.6843C2.54205 25.6804 2.53643 25.6765 2.53052 25.6732C2.52383 25.669 2.51713 25.6649 2.51047 25.6609C2.49362 25.6506 2.47699 25.6405 2.46111 25.6289C2.44545 25.6177 2.43148 25.6056 2.41728 25.5934C2.41274 25.5895 2.40817 25.5856 2.40351 25.5816C2.38579 25.5654 2.36659 25.5477 2.35034 25.5299C2.33262 25.5107 2.31638 25.4916 2.30161 25.4709C2.28684 25.4517 2.27207 25.431 2.25878 25.4104C2.24548 25.3882 2.23367 25.3675 2.22333 25.3453C2.21152 25.3232 2.20118 25.2996 2.19232 25.2759C2.18345 25.2523 2.17607 25.2287 2.17016 25.205C2.16426 25.1814 2.15835 25.1577 2.15392 25.1326C2.14801 25.1046 2.14653 25.078 2.14506 25.05C2.14506 25.0428 2.144 25.0355 2.14292 25.0281C2.14178 25.0204 2.14062 25.0125 2.14062 25.0042C2.14062 24.9995 2.14143 24.9953 2.14221 24.9912C2.14291 24.9876 2.14358 24.9841 2.14358 24.9806C2.14506 24.9525 2.14801 24.9259 2.15244 24.8979ZM17.5816 31.47L11.8896 25.7781H6.19765L17.5816 31.47ZM36.8107 25.7781H31.1188L25.4268 31.47L36.8107 25.7781ZM31.5722 9.69618V24.2288H38.8385L31.5722 9.69618ZM22.2781 17.5783V32.427L29.7024 25.0027L22.2781 17.5783ZM13.3059 25.0027L20.7302 32.427V17.5783L13.3059 25.0027ZM11.4362 9.69618L4.16988 24.2288H11.4362V9.69618ZM45.6541 14.1475C45.5773 13.8817 45.7295 13.6897 45.9968 13.6897H47.7484C47.9005 13.6897 48.0526 13.8226 48.091 13.9555L50.0715 21.5556H50.1469L53.1745 13.7089C53.2129 13.5952 53.3074 13.5006 53.4979 13.5006H53.8406C54.0311 13.5006 54.1256 13.5952 54.164 13.7089L57.2153 21.5556H57.2921L59.2342 13.9555C59.2726 13.8226 59.4247 13.6897 59.5768 13.6897H61.3284C61.5942 13.6897 61.7479 13.8802 61.6711 14.1475L58.0719 26.9463C58.0335 27.0983 57.8814 27.2121 57.7292 27.2121H57.425C57.2537 27.2121 57.1399 27.1161 57.1015 27.0024L53.6929 18.3759H53.5984L50.2266 27.0024C50.169 27.1161 50.0937 27.2121 49.9032 27.2121H49.5989C49.4468 27.2121 49.2947 27.0969 49.2563 26.9463L45.6541 14.1475ZM65.442 14.0538C65.442 13.8633 65.6133 13.6919 65.8039 13.6919H67.5746C67.7652 13.6919 67.9365 13.8633 67.9365 14.0538V26.6621C67.9365 26.8525 67.7652 27.0239 67.5746 27.0239H65.8039C65.6133 27.0239 65.442 26.8525 65.442 26.6621V14.0538ZM73.3794 13.5006C73.1889 13.5006 73.0176 13.6528 73.0176 13.8433H73.0161V26.6598C73.0161 26.8503 73.1874 27.0216 73.378 27.0216H75.1103C75.3201 27.0216 75.4722 26.8503 75.4722 26.6598V18.4704H75.4914L83.4518 27.2121H83.9097C84.1002 27.2121 84.2716 27.06 84.2716 26.8695V14.053C84.2716 13.8625 84.1002 13.6912 83.9097 13.6912H82.1581C81.9484 13.6912 81.7962 13.8625 81.7962 14.053V21.9174H81.777L73.8549 13.5006H73.3794ZM91.1154 15.9767H88.2015C87.9917 15.9767 87.8396 15.8054 87.8396 15.6149V14.0538C87.8396 13.8633 87.9917 13.6919 88.2015 13.6919H96.5237C96.7335 13.6919 96.8855 13.8633 96.8855 14.0538V15.6149C96.8855 15.8054 96.7335 15.9767 96.5237 15.9767H93.6098V26.6605C93.6098 26.8511 93.4385 27.0224 93.248 27.0224H91.4772C91.2866 27.0224 91.1154 26.8511 91.1154 26.6605V15.9767ZM100.802 13.6919C100.593 13.6919 100.441 13.8633 100.441 14.0538V26.6621C100.441 26.8525 100.593 27.0239 100.802 27.0239H108.553C108.763 27.0239 108.915 26.8525 108.915 26.6621V25.0995C108.915 24.909 108.763 24.7376 108.553 24.7376H102.916V21.4043H107.62C107.81 21.4043 107.982 21.2522 107.982 21.0424V19.4622C107.982 19.2717 107.81 19.1003 107.62 19.1003H102.916V15.9767H108.553C108.763 15.9767 108.915 15.8054 108.915 15.6149V14.0538C108.915 13.8633 108.763 13.6919 108.553 13.6919H100.802ZM113.371 14.0538C113.371 13.8633 113.523 13.6919 113.733 13.6919H119.18C121.465 13.6919 123.332 15.5203 123.332 17.7874C123.332 19.539 122.169 20.9671 120.514 21.6347L123.123 26.4715C123.256 26.7197 123.123 27.0239 122.8 27.0239H120.8C120.629 27.0239 120.534 26.9293 120.496 26.8525L117.963 21.806H115.85V26.6621C115.85 26.8525 115.678 27.0239 115.488 27.0239H113.736C113.526 27.0239 113.374 26.8525 113.374 26.6621V14.0538H113.371ZM118.97 19.7664C119.979 19.7664 120.856 18.8906 120.856 17.8243C120.856 16.8156 119.98 15.9767 118.97 15.9767H115.866V19.7664H118.97ZM129.349 13.5006C129.139 13.5006 129.026 13.6336 129.007 13.7857L126.74 26.583C126.701 26.8503 126.853 27.0216 127.101 27.0216H128.816C128.987 27.0216 129.139 26.8695 129.159 26.7366L130.263 19.519H130.321L133.693 27.0039C133.75 27.1176 133.845 27.2136 134.016 27.2136H134.357C134.529 27.2136 134.642 27.1176 134.681 27.0039L138.014 19.519H138.072L139.196 26.7366C139.234 26.8695 139.386 27.0216 139.558 27.0216H141.29C141.537 27.0216 141.69 26.8488 141.632 26.583L139.385 13.7857C139.365 13.6336 139.252 13.5006 139.042 13.5006H138.738C138.567 13.5006 138.472 13.5774 138.414 13.6912L134.224 22.681H134.167L129.977 13.6912C129.919 13.576 129.806 13.5006 129.653 13.5006H129.349ZM145.559 14.0538C145.559 13.8633 145.731 13.6919 145.921 13.6919H147.73C147.94 13.6919 148.092 13.8633 148.092 14.0538V21.8429C148.092 23.4616 149.197 24.7376 150.854 24.7376C152.512 24.7376 153.636 23.4616 153.636 21.8621V14.0538C153.636 13.8633 153.788 13.6919 153.997 13.6919H155.807C155.997 13.6919 156.169 13.8633 156.169 14.0538V21.9758C156.169 24.8706 153.864 27.2129 150.854 27.2129C147.865 27.2129 145.559 24.8706 145.559 21.9758V14.0538ZM159.999 15.9767H162.913V26.6605C162.913 26.8511 163.085 27.0224 163.275 27.0224H165.046C165.237 27.0224 165.408 26.8511 165.408 26.6605V15.9767H168.322C168.532 15.9767 168.684 15.8054 168.684 15.6149V14.0538C168.684 13.8633 168.532 13.6919 168.322 13.6919H159.999C159.79 13.6919 159.638 13.8633 159.638 14.0538V15.6149C159.638 15.8054 159.79 15.9767 159.999 15.9767ZM172.239 14.0538C172.239 13.8633 172.391 13.6919 172.601 13.6919H180.352C180.561 13.6919 180.714 13.8633 180.714 14.0538V15.6149C180.714 15.8054 180.561 15.9767 180.352 15.9767H174.715V19.1003H179.419C179.609 19.1003 179.78 19.2717 179.78 19.4622V21.0424C179.78 21.2522 179.609 21.4043 179.419 21.4043H174.715V24.7376H180.352C180.561 24.7376 180.714 24.909 180.714 25.0995V26.6621C180.714 26.8525 180.561 27.0239 180.352 27.0239H172.601C172.391 27.0239 172.239 26.8525 172.239 26.6621V14.0538Z" fill="white"></path></svg> 