<?xml version="1.0" encoding="UTF-8"?> <svg xmlns="http://www.w3.org/2000/svg" width="120" height="37" viewBox="0 0 120 37" fill="none"><mask id="mask0_353_775" style="mask-type:luminance" maskUnits="userSpaceOnUse" x="40" y="11" width="80" height="14"><path d="M119.46 11.5049H40.4399V24.9742H119.46V11.5049Z" fill="white"></path></mask><g mask="url(#mask0_353_775)"><path d="M45.7962 17.719C46.9771 17.5079 47.9424 17.1847 48.4901 16.6504C48.7994 16.41 49.048 16.1003 49.2157 15.7463C49.3834 15.3922 49.4655 15.0037 49.4555 14.612C49.4555 12.5737 47.7404 11.6084 44.198 11.6084H40.5522V24.4806H44.5212C45.5264 24.483 46.5303 24.411 47.5249 24.2651C48.2457 24.1492 48.8966 23.7661 49.3478 23.192C49.8173 22.5734 50.0796 21.8223 50.0975 21.0459C50.1149 20.5959 50.027 20.1481 49.8407 19.738C49.6544 19.328 49.3749 18.9672 49.0245 18.6843C48.0547 18.0784 46.9395 17.745 45.7962 17.719ZM42.3616 12.1427H44.2923C44.9873 12.0974 45.6837 12.2078 46.3306 12.4659C46.7151 12.6324 47.0217 12.939 47.1881 13.3235C47.432 13.784 47.5438 14.3029 47.5114 14.8231C47.5114 15.7884 47.2959 16.4349 46.7616 16.8614C46.2274 17.288 45.3653 17.508 43.9735 17.508H42.4694V12.1427H42.3616ZM47.3004 23.4075C46.7661 23.9418 46.0163 24.0495 45.0555 24.0495H42.3616V18.0422H44.1845C45.5809 18.0422 46.6539 18.2578 47.1881 18.792C47.4858 19.1055 47.7156 19.4771 47.8632 19.8834C48.0107 20.2898 48.0728 20.7222 48.0456 21.1537C48.0642 21.9684 47.801 22.7645 47.3004 23.4075Z" fill="white"></path><path d="M54.1606 14.8233V19.6499V20.3996V21.2617V24.5841H62.6374V24.1531H57.7031H56.0913V21.2617V20.3996V19.8654V19.6499V18.0425H57.3799H60.7069V17.6115H57.3799H56.0913V15.2543V14.9311V12.1429H57.811H62.7409V11.7119H54.1606V14.8233Z" fill="white"></path><path d="M68.9637 11.7119H67.0327V14.9311V21.2617V24.5841H76.0437V24.1531H68.9637V11.7119Z" fill="white"></path><path d="M88.3774 13.4315C87.1785 12.3288 85.6086 11.7168 83.9797 11.7168C82.3504 11.7168 80.781 12.3288 79.5816 13.4315C78.943 14.0129 78.4399 14.7268 78.1064 15.5233C77.7728 16.3198 77.6175 17.1797 77.6511 18.0425C77.617 18.9214 77.7717 19.7973 78.1047 20.6113C78.4377 21.4253 78.9414 22.1585 79.5816 22.7613C80.8702 23.9421 82.0515 24.5842 83.9819 24.5842C84.8159 24.6115 85.6471 24.4634 86.4205 24.1494C87.1939 23.8354 87.8924 23.3625 88.4715 22.7613C89.7601 21.585 90.299 19.9731 90.299 18.0425C90.299 16.1119 89.666 14.5046 88.3774 13.4315ZM87.201 22.658C86.8372 23.1356 86.3654 23.5206 85.8249 23.782C85.2843 24.0433 84.6898 24.1735 84.0898 24.1621C82.4775 24.1621 81.7278 23.6233 80.8702 22.658C80.1205 21.6927 79.6895 20.1931 79.6895 18.1682C79.6895 16.2377 80.1386 14.738 80.8702 13.6785C81.7278 12.7132 82.3746 12.1744 83.8741 12.1744C84.5071 12.15 85.1374 12.2731 85.7148 12.5341C86.2922 12.7951 86.8014 13.1869 87.201 13.6785C88.0586 14.7515 88.1665 16.1434 88.1665 18.0739C88.1572 20.0809 88.0586 21.585 87.201 22.658Z" fill="white"></path><path d="M103.18 13.9658V21.4727L95.889 11.7119H93.958V14.7155V21.4727V24.2608H94.3846V21.4727V12.6772L103.396 24.5841H103.719V14.0735V11.7119H103.18V13.9658Z" fill="white"></path><path d="M119.056 19.1156H115.626V19.6543H117.233V21.3694C117.254 21.8536 117.144 22.3344 116.914 22.7612C116.697 23.2111 116.311 23.5577 115.841 23.7265C115.304 23.9893 114.719 24.142 114.122 24.1755C113.532 24.1959 112.945 24.0806 112.406 23.8385C111.868 23.5965 111.391 23.234 111.015 22.7792C110.153 21.8139 109.726 20.3143 109.726 18.0604C109.726 15.8066 110.153 14.307 111.015 13.4494C111.42 13.0367 111.903 12.7099 112.437 12.4885C112.971 12.2671 113.544 12.1557 114.122 12.1609C115.204 12.1616 116.243 12.5854 117.018 13.3417C117.258 13.5689 117.475 13.8201 117.664 14.0915L118.113 13.6425C117.604 13.064 116.976 12.6016 116.273 12.2864C115.57 11.9712 114.807 11.8104 114.036 11.8152C113.163 11.7763 112.292 11.9402 111.492 12.2938C110.692 12.6473 109.985 13.1812 109.425 13.8535C108.324 15.0826 107.747 16.6942 107.818 18.3433C107.796 20.0039 108.41 21.61 109.533 22.8331C110.112 23.4027 110.8 23.8485 111.557 24.1433C112.313 24.4382 113.122 24.5759 113.933 24.5482C114.93 24.5199 115.913 24.302 116.829 23.9061C117.289 23.6714 117.72 23.3836 118.113 23.0486C118.424 22.8091 118.673 22.4996 118.841 22.1453C119.008 21.7911 119.09 21.4021 119.079 21.0102V19.0797L119.056 19.1156Z" fill="white"></path></g><mask id="mask1_353_775" style="mask-type:luminance" maskUnits="userSpaceOnUse" x="3" y="2" width="30" height="33"><path d="M32.4948 2.13574H3.80371V34.3916H32.4948V2.13574Z" fill="white"></path></mask><g mask="url(#mask1_353_775)"><path d="M3.91164 24.799V11.5768C3.9097 11.1157 4.0308 10.6624 4.26246 10.2636C4.49412 9.86486 4.82795 9.53508 5.22953 9.30835L16.68 2.69732C17.08 2.46385 17.5348 2.34082 17.9979 2.34082C18.461 2.34082 18.9158 2.46385 19.3158 2.69732L30.7663 9.30835C31.1658 9.5375 31.4979 9.86778 31.7292 10.266C31.9606 10.6642 32.083 11.1163 32.0842 11.5768V24.8205C32.0861 25.2817 31.965 25.735 31.7334 26.1338C31.5017 26.5326 31.1679 26.8623 30.7663 27.089L19.3158 33.7001C18.9158 33.9336 18.461 34.0566 17.9979 34.0566C17.5348 34.0566 17.08 33.9336 16.68 33.7001L5.22953 27.089C4.82745 26.8574 4.49377 26.5236 4.26232 26.1214C4.03087 25.7192 3.90989 25.263 3.91164 24.799Z" fill="#1F242F"></path><path d="M32.387 11.5553V24.8206C32.3914 25.3722 32.217 25.9104 31.8901 26.3546C31.6702 26.6536 31.3906 26.9038 31.0691 27.0891L24.2636 31.0212L22.7297 31.907L19.597 33.7218C19.2009 33.9551 18.7496 34.0781 18.2899 34.0781C17.8302 34.0781 17.3789 33.9551 16.9828 33.7218L13.4828 31.691L12.1866 30.9348L5.5107 27.0891C5.10012 26.8552 4.76331 26.511 4.53849 26.0953C4.3227 25.7054 4.21109 25.2663 4.21443 24.8206V11.5553C4.21195 11.1399 4.31609 10.7308 4.51689 10.3671C4.74825 9.91955 5.09991 9.54546 5.53233 9.28685L12.0569 5.50602L13.5477 4.64185L17.0044 2.65421C17.4005 2.4209 17.8518 2.29785 18.3115 2.29785C18.7712 2.29785 19.2225 2.4209 19.6186 2.65421L22.7081 4.4258L24.4365 5.41961L31.1123 9.26527C31.4523 9.46151 31.741 9.73547 31.9549 10.0646C32.2372 10.5106 32.387 11.0276 32.387 11.5553Z" stroke="#1F242F" stroke-width="0.196243" stroke-miterlimit="10"></path><path d="M18.1492 22.2281C20.3089 22.2281 22.0597 20.4774 22.0597 18.3176C22.0597 16.158 20.3089 14.4072 18.1492 14.4072C15.9896 14.4072 14.2388 16.158 14.2388 18.3176C14.2388 20.4774 15.9896 22.2281 18.1492 22.2281Z" stroke="#1F242F" stroke-width="0.196243" stroke-miterlimit="10"></path><path d="M22.7513 31.907L19.597 33.7218C19.2009 33.9551 18.7496 34.0781 18.2899 34.0781C17.8302 34.0781 17.3789 33.9551 16.9828 33.7218L13.4828 31.691L12.1866 30.9348L5.5107 27.0891C5.10012 26.8552 4.76331 26.511 4.53849 26.0953C4.3227 25.7054 4.21109 25.2663 4.21443 24.8206V11.5553C4.21195 11.1399 4.31609 10.7308 4.51689 10.3671C4.74825 9.91955 5.09991 9.54546 5.53233 9.28685L12.0569 5.50602L13.5477 4.64185L17.0044 2.65421C17.4005 2.4209 17.8518 2.29785 18.3115 2.29785C18.7712 2.29785 19.2225 2.4209 19.6186 2.65421L22.7081 4.4258L24.4365 5.41961L31.1123 9.26527C31.4523 9.46151 31.741 9.73547 31.9549 10.0646C32.2557 10.495 32.4143 11.0087 32.4086 11.5338V24.7991C32.4129 25.3506 32.2386 25.8887 31.9117 26.333C31.6918 26.632 31.4123 26.8822 31.0907 27.0675L24.2852 30.9996L22.7513 31.907Z" stroke="#1F242F" stroke-width="0.196243" stroke-miterlimit="10"></path><path d="M18.1493 22.2286C17.6281 22.2293 17.1077 22.186 16.5938 22.099C15.9978 22.0013 15.4121 21.8495 14.8437 21.6453C14.0828 21.3752 13.3516 21.0277 12.6617 20.6083C11.6279 19.963 10.6711 19.202 9.80985 18.3398C8.32075 16.8281 7.03527 15.1286 5.98582 13.2843C5.44572 12.3985 4.94881 11.4263 4.4519 10.4108L4.40869 10.3676L4.4303 10.3245C4.66301 9.86521 5.02303 9.4827 5.46732 9.22261L16.9394 2.58995C17.3511 2.35625 17.8163 2.2334 18.2897 2.2334C18.7631 2.2334 19.2284 2.35625 19.64 2.58995L31.1121 9.22261C31.4566 9.43778 31.7572 9.71637 31.9979 10.0436L32.0195 10.0868L31.9979 10.13C31.5003 11.2105 30.945 12.2634 30.3344 13.2843C29.2777 15.1295 27.9849 16.829 26.4887 18.3398C25.6287 19.2033 24.6717 19.9645 23.6369 20.6083C22.9516 21.0363 22.2194 21.3843 21.4548 21.6453C20.8888 21.8568 20.3023 22.0089 19.7048 22.099C19.1908 22.185 18.6705 22.2284 18.1493 22.2286ZM4.58153 10.3676C5.03704 11.3362 5.54182 12.2808 6.09387 13.1979C7.14872 15.0198 8.42594 16.7035 9.89627 18.2102C10.7446 19.0716 11.6951 19.8261 12.7265 20.457C13.409 20.8763 14.133 21.2238 14.887 21.4941C15.451 21.6882 16.0287 21.8398 16.6153 21.9478C17.6307 22.1206 18.6679 22.1206 19.6832 21.9478C20.2742 21.8603 20.8538 21.7081 21.4116 21.4941C22.1586 21.2235 22.8754 20.876 23.5505 20.457C24.5819 19.8261 25.5323 19.0716 26.3807 18.2102C27.8746 16.7186 29.1608 15.0328 30.2047 13.1979C30.7664 12.2473 31.3282 11.1886 31.8467 10.0868C31.635 9.78826 31.3626 9.53791 31.0473 9.35224L19.5752 2.74118C19.1874 2.51827 18.7479 2.40096 18.3005 2.40096C17.8532 2.40096 17.4137 2.51827 17.0259 2.74118L5.53213 9.37382C5.1277 9.60859 4.79809 9.95317 4.58153 10.3676Z" fill="#CB99FF"></path><path d="M12.1646 31.0215L12.1214 30.9999L5.44557 27.1543C5.01571 26.9118 4.66357 26.5521 4.43015 26.1172C4.20507 25.7143 4.08612 25.2608 4.08447 24.7994V11.5557C4.08775 11.0843 4.2128 10.6218 4.44749 10.2129C4.68218 9.80411 5.01855 9.46288 5.42396 9.22233L12.035 5.41992L12.0782 5.44153C12.4671 5.65755 12.8344 5.85203 13.1584 6.06809C14.9971 7.12469 16.6895 8.41755 18.1923 9.9137C19.0572 10.7725 19.8186 11.7296 20.4608 12.7655C20.8842 13.4458 21.2319 14.1702 21.4979 14.926C21.6865 15.477 21.8381 16.04 21.9516 16.6112V16.676C22.0385 17.1899 22.0819 17.7103 22.0812 18.2315C22.0775 18.6872 22.0414 19.142 21.9732 19.5926C21.9732 19.6574 21.9516 19.7223 21.9516 19.8086C21.8588 20.4056 21.7068 20.9918 21.4979 21.5587C21.2201 22.3201 20.8654 23.0513 20.4393 23.7407C19.801 24.7794 19.0393 25.737 18.1708 26.5925C16.6678 28.0887 14.9755 29.3816 13.1369 30.4382C12.856 30.611 12.5535 30.7838 12.1862 30.9783L12.1646 31.0215ZM12.035 5.61434L5.532 9.37359C5.11416 9.61761 4.77635 9.97794 4.55978 10.4106C4.36844 10.7693 4.27178 11.1708 4.27892 11.5772V24.8426C4.27599 25.2745 4.38783 25.6995 4.60299 26.074C4.82652 26.4778 5.15495 26.8137 5.55358 27.0462L12.1862 30.8703C12.5319 30.6758 12.8344 30.503 13.0937 30.3517C14.9212 29.2968 16.6057 28.0117 18.1059 26.5278C18.9674 25.6794 19.7219 24.7289 20.3528 23.6975C20.7718 23.0225 21.1193 22.3056 21.3898 21.5587C21.5987 20.9992 21.7507 20.4201 21.8435 19.8303C21.8614 19.7671 21.8687 19.7014 21.8652 19.6358C21.9325 19.1924 21.9685 18.7448 21.9732 18.2963C21.9739 17.7822 21.9305 17.2691 21.8435 16.7624V16.7192C21.7479 16.1462 21.6033 15.5824 21.4115 15.034C21.1453 14.2852 20.7975 13.5679 20.3744 12.8952C19.715 11.859 18.9473 10.8957 18.0843 10.0217C16.5785 8.54427 14.8948 7.25972 13.072 6.19772C12.748 6.02488 12.4023 5.80882 12.035 5.61434Z" fill="#CB99FF"></path><path d="M24.2636 31.1074L24.2204 31.0858C23.8747 30.8914 23.4858 30.6753 23.1186 30.4593C21.2858 29.3939 19.5945 28.1019 18.0847 26.6136C17.2211 25.7537 16.4599 24.7967 15.8162 23.7618C15.3881 23.0766 15.0401 22.3444 14.7791 21.5798C14.5675 21.0064 14.4154 20.4127 14.3254 19.8082C14.2394 19.2941 14.196 18.7738 14.1958 18.2526C14.2026 17.1187 14.3998 15.9941 14.7791 14.9255C15.0535 14.1663 15.4008 13.4356 15.8162 12.7434C16.4544 11.7047 17.2161 10.7471 18.0847 9.89159C19.5976 8.40695 21.2884 7.11524 23.1186 6.04597C23.529 5.80828 23.9395 5.57065 24.3716 5.35461L24.4148 5.33301L31.1339 9.22184C31.4784 9.43707 31.779 9.71566 32.0197 10.0429C32.3247 10.4886 32.4901 11.0151 32.495 11.5552V24.8205C32.4921 25.2945 32.3648 25.7594 32.126 26.1689C31.8872 26.5783 31.5451 26.9179 31.1339 27.1538L24.2636 31.1074ZM24.4148 5.52744C24.0044 5.7435 23.5939 5.98113 23.205 6.19718C21.3822 7.25924 19.6985 8.54379 18.1927 10.0212C17.3312 10.8696 16.5767 11.82 15.9458 12.8515C15.5309 13.5287 15.1836 14.2451 14.9088 14.9903C14.6997 15.5571 14.5478 16.1434 14.4551 16.7403C14.2822 17.7556 14.2822 18.7928 14.4551 19.8082C14.5426 20.3992 14.6947 20.9788 14.9088 21.5365C15.1793 22.2836 15.5269 23.0004 15.9458 23.6754C16.5877 24.6991 17.3412 25.6484 18.1927 26.5056C19.6955 27.9866 21.3796 29.2715 23.205 30.3297C23.5723 30.5457 23.9179 30.7402 24.2636 30.9346L31.0259 27.0241C31.3333 26.845 31.5986 26.6019 31.8037 26.3112C32.1206 25.8795 32.2876 25.356 32.279 24.8205V11.5552C32.2852 11.0434 32.1261 10.5433 31.8253 10.1293C31.6069 9.81722 31.3277 9.55262 31.0043 9.35148L24.4148 5.52744Z" fill="#CB99FF"></path><path d="M12.2297 24.2163C10.1288 24.1941 8.03872 23.911 6.00753 23.3737C5.46742 23.2441 4.88409 23.0712 4.19275 22.8552L4.12793 22.8336V11.5559C4.1312 11.0845 4.25625 10.622 4.49095 10.2132C4.72564 9.80433 5.06201 9.4631 5.46742 9.22261L16.9395 2.58995C17.3512 2.35625 17.8165 2.2334 18.2898 2.2334C18.7632 2.2334 19.2284 2.35625 19.6401 2.58995L22.7512 4.38314V4.40474C22.924 4.96646 23.0969 5.5282 23.2265 6.08989C23.7838 8.13176 24.0671 10.2387 24.0691 12.3553C24.0704 13.5768 23.9327 14.7945 23.6586 15.9849C23.4712 16.7638 23.2108 17.5233 22.8808 18.2534V18.275C22.6132 18.8243 22.3025 19.3517 21.9518 19.8521C21.9086 19.9169 21.8438 19.9818 21.8006 20.0466V20.0898H21.7574C21.5025 20.4224 21.2284 20.7398 20.9364 21.0403C20.7636 21.2132 20.5691 21.386 20.3963 21.5373C20.188 21.7285 19.9639 21.902 19.7266 22.0558C19.2336 22.4063 18.7134 22.717 18.171 22.9848H18.1494C17.432 23.3274 16.6782 23.5884 15.9025 23.7626C14.714 24.0473 13.495 24.1852 12.2729 24.1731C12.2513 24.2163 12.2513 24.2163 12.2297 24.2163ZM4.27916 22.7039C4.94891 22.92 5.51063 23.0712 6.02916 23.2008C8.05271 23.7395 10.1358 24.0226 12.2297 24.0434H12.2729C13.4873 24.0449 14.6978 23.9071 15.8809 23.633C16.6538 23.4489 17.4065 23.1884 18.1278 22.8552H18.1494C18.6801 22.5994 19.1863 22.2957 19.6617 21.9478C19.8961 21.7992 20.1134 21.6253 20.3099 21.4292C20.4827 21.278 20.6555 21.1268 20.85 20.9324C21.1416 20.6391 21.4158 20.3288 21.6709 20.0033V19.9818L21.6926 19.9386L21.8222 19.7441C22.1703 19.2612 22.474 18.7477 22.7296 18.2102V18.1885C23.0628 17.4673 23.3234 16.7146 23.5074 15.9417C23.7816 14.7659 23.9193 13.5625 23.9179 12.3553C23.8956 10.2543 23.6126 8.16429 23.0753 6.1331C22.924 5.59299 22.7728 5.03128 22.6 4.46955L19.5537 2.69797C19.1659 2.47506 18.7264 2.35775 18.279 2.35775C17.8317 2.35775 17.3922 2.47506 17.0043 2.69797L5.53221 9.37382C5.1144 9.61784 4.7766 9.97817 4.56002 10.4108C4.36869 10.7695 4.27202 11.1711 4.27916 11.5775V22.7039Z" fill="#CB99FF"></path><path d="M18.3006 34.1534C17.8231 34.1487 17.3547 34.0223 16.9396 33.7861L13.3964 31.7553V31.7337C13.2668 31.2584 13.1371 30.8263 13.0291 30.4374C12.481 28.3937 12.1978 26.288 12.1865 24.172C12.1852 22.9505 12.3229 21.7328 12.597 20.5424C12.7819 19.76 13.0499 18.9995 13.3964 18.2739V18.2524C13.6511 17.7029 13.9625 17.1816 14.3254 16.6968C14.6338 16.2692 14.9732 15.8648 15.3408 15.4869C15.714 15.1141 16.1188 14.7744 16.5507 14.4715C17.0437 14.121 17.5639 13.8103 18.1062 13.5425H18.1279C18.8453 13.1999 19.599 12.9389 20.3747 12.7647C21.5633 12.48 22.7822 12.3421 24.0043 12.3542H24.0908C26.1844 12.3779 28.2672 12.661 30.2913 13.1968C30.961 13.3697 31.674 13.5857 32.4086 13.8234L32.4734 13.845V24.8634C32.4704 25.3374 32.3432 25.8023 32.1043 26.2118C31.8655 26.6212 31.5234 26.9608 31.1122 27.1967L19.6402 33.8293C19.2223 34.0329 18.7653 34.1434 18.3006 34.1534ZM13.5477 31.6473L17.026 33.6565C17.4138 33.8794 17.8533 33.9967 18.3006 33.9967C18.748 33.9967 19.1875 33.8794 19.5753 33.6565L31.0474 27.0239C31.3548 26.8447 31.6201 26.6016 31.8252 26.3109C32.1422 25.8792 32.3091 25.3556 32.3005 24.8202V13.9098C31.5876 13.6722 30.8962 13.4777 30.2481 13.3048C28.2389 12.7678 26.1703 12.4847 24.0908 12.4622H24.0043C22.7971 12.4608 21.5937 12.5985 20.4179 12.8728C19.645 13.0568 18.8923 13.3173 18.1711 13.6505H18.1494C17.6187 13.9063 17.1125 14.21 16.6371 14.558C16.2167 14.8591 15.8196 15.1913 15.4488 15.5518C15.0822 15.9169 14.7496 16.3146 14.455 16.74C14.1118 17.2185 13.8083 17.7243 13.5477 18.2524V18.2739C13.2144 18.9952 12.9539 19.7479 12.7699 20.5209C12.4957 21.6965 12.3579 22.8999 12.3594 24.1072C12.3829 26.2152 12.6659 28.3122 13.202 30.351C13.2884 30.7615 13.418 31.172 13.5477 31.6473Z" fill="#CB99FF"></path><path d="M18.3007 34.1539C17.8232 34.1492 17.3548 34.0228 16.9397 33.7866L5.46754 27.154C5.03768 26.9115 4.68554 26.5518 4.45212 26.117C4.22705 25.714 4.1081 25.2606 4.10645 24.7991V13.6942L4.17126 13.6727C4.86261 13.4566 5.44594 13.2838 5.98608 13.1541C8.03004 12.6074 10.1356 12.3242 12.2514 12.3115C13.4729 12.3102 14.6906 12.4479 15.881 12.7221C16.6635 12.9069 17.424 13.1749 18.1495 13.5214H18.1711C18.7205 13.7761 19.2418 14.0875 19.7266 14.4504C19.7676 14.4724 19.8042 14.5016 19.8347 14.5368C20.2228 14.8209 20.591 15.1313 20.9365 15.4658C21.3093 15.839 21.6491 16.2438 21.9519 16.6757C21.9637 16.6874 21.9712 16.7025 21.9735 16.7189C22.3153 17.2059 22.6186 17.7188 22.8809 18.2529V18.2744C23.2109 19.0045 23.4713 19.764 23.6587 20.5429C23.9422 21.7317 24.0801 22.9505 24.0692 24.1725C24.0458 26.2876 23.7628 28.3918 23.2266 30.4379C23.097 30.9132 22.9673 31.4317 22.7945 31.9503V31.9718L19.6186 33.8082C19.2147 34.0307 18.7619 34.1495 18.3007 34.1539ZM4.27928 13.8239V24.8207C4.27636 25.2526 4.38819 25.6776 4.60336 26.0521C4.82689 26.4559 5.15532 26.7918 5.55397 27.0244L17.0261 33.657C17.4139 33.8799 17.8534 33.9972 18.3007 33.9972C18.7481 33.9972 19.1876 33.8799 19.5754 33.657L22.6865 31.8638C22.8377 31.3669 22.989 30.87 23.097 30.3947C23.6436 28.358 23.9268 26.2597 23.9396 24.1509C23.9411 22.9436 23.8033 21.7403 23.5291 20.5646C23.3451 19.7916 23.0845 19.039 22.7513 18.3176V18.2961C22.4995 17.7746 22.2031 17.2758 21.8655 16.8053L21.8439 16.7837C21.5439 16.3625 21.2116 15.9653 20.8501 15.5955C20.511 15.2622 20.1502 14.9518 19.7698 14.6665C19.7266 14.6449 19.7051 14.6017 19.6618 14.6017C19.1789 14.2536 18.6655 13.9499 18.1279 13.6942H18.1063C17.385 13.361 16.6323 13.1005 15.8594 12.9165C14.6837 12.6422 13.4803 12.5045 12.273 12.506H12.2298C10.136 12.5282 8.05311 12.8113 6.02929 13.3486C5.43719 13.4728 4.85287 13.6315 4.27928 13.8239Z" fill="#CB99FF"></path><path d="M24.1119 24.2163H24.0255C22.8039 24.2189 21.586 24.0811 20.3959 23.8058C19.622 23.6252 18.869 23.3646 18.149 23.028H18.1274C17.578 22.7732 17.0567 22.4619 16.5718 22.099C16.1442 21.7906 15.7399 21.4513 15.362 21.0836C14.9892 20.7104 14.6494 20.3056 14.3466 19.8737C13.996 19.3807 13.6854 18.8606 13.4175 18.3182V18.2966C13.0738 17.5699 12.8059 16.8097 12.6182 16.0281C12.3273 14.8403 12.1822 13.6214 12.1861 12.3985C12.2068 10.2832 12.4897 8.17866 13.0287 6.1331C13.1583 5.6362 13.288 5.1393 13.4392 4.64239V4.62079L16.9392 2.58995C17.3508 2.35625 17.816 2.2334 18.2894 2.2334C18.7628 2.2334 19.2281 2.35625 19.6397 2.58995L31.1118 9.22261C31.4564 9.43778 31.7569 9.71637 31.9976 10.0436C32.3026 10.4894 32.468 11.0158 32.4729 11.5559V22.7255L32.4081 22.7472C31.6736 22.9848 30.9606 23.2008 30.2909 23.3737C28.2741 23.9094 26.1985 24.1925 24.1119 24.2163ZM18.1706 22.8552C18.8926 23.1922 19.6449 23.4599 20.4175 23.6545C21.5985 23.9405 22.8105 24.0784 24.0255 24.065C26.1334 24.0416 28.2305 23.7586 30.2692 23.2225C30.939 23.0496 31.6304 22.8552 32.3217 22.6175V11.5559C32.328 11.0441 32.1688 10.544 31.868 10.13C31.6497 9.81793 31.3704 9.55338 31.047 9.35224L19.5749 2.74118C19.1871 2.51827 18.7476 2.40096 18.3002 2.40096C17.8529 2.40096 17.4134 2.51827 17.0256 2.74118L13.612 4.70721C13.4608 5.18251 13.3312 5.65784 13.2015 6.15473C12.6627 8.19297 12.3797 10.2903 12.359 12.3985C12.3575 13.6057 12.4953 14.8092 12.7694 15.9849C12.9535 16.7578 13.214 17.5105 13.5472 18.2317V18.2534C13.803 18.7841 14.1067 19.2903 14.4546 19.7657C14.7557 20.1861 15.0879 20.5832 15.4484 20.954C15.8135 21.3206 16.2112 21.6532 16.6367 21.9478C17.1196 22.2958 17.633 22.5995 18.1706 22.8552Z" fill="#CB99FF"></path><path d="M18.1492 34.3916C17.641 34.3904 17.1421 34.2564 16.7017 34.0027L5.25122 27.3916C4.81245 27.1363 4.44803 26.7707 4.19412 26.3311C3.94021 25.8915 3.80563 25.3931 3.80371 24.8855V11.6418C3.80563 11.1342 3.94021 10.6358 4.19412 10.1962C4.44803 9.75658 4.81245 9.39096 5.25122 9.13566L16.7017 2.52461C17.1416 2.26988 17.6409 2.13574 18.1492 2.13574C18.6576 2.13574 19.1568 2.26988 19.5968 2.52461L31.0473 9.13566C31.486 9.39096 31.8504 9.75658 32.1044 10.1962C32.3583 10.6358 32.4929 11.1342 32.4948 11.6418V24.8855C32.4929 25.3931 32.3583 25.8915 32.1044 26.3311C31.8504 26.7707 31.486 27.1363 31.0473 27.3916L19.5968 34.0027C19.1576 34.259 18.6578 34.3933 18.1492 34.3916ZM18.1492 2.67584C17.7313 2.67591 17.3211 2.7878 16.961 2.99991L5.51048 9.61098C5.14886 9.81774 4.84842 10.1165 4.63971 10.477C4.431 10.8375 4.32146 11.2468 4.32222 11.6634V24.9071C4.32322 25.3233 4.4335 25.7319 4.64203 26.0922C4.85057 26.4523 5.15004 26.7514 5.51048 26.9595L16.961 33.5706C17.3206 33.7725 17.726 33.8786 18.1384 33.8786C18.5508 33.8786 18.9563 33.7725 19.3159 33.5706L30.7664 26.9595C31.128 26.7528 31.4284 26.454 31.6372 26.0935C31.8459 25.733 31.9554 25.3237 31.9546 24.9071V11.6418C31.9536 11.2256 31.8434 10.8169 31.6349 10.4568C31.4263 10.0965 31.1268 9.79748 30.7664 9.58935L19.3159 2.97831C18.959 2.78018 18.5575 2.67609 18.1492 2.67584Z" fill="url(#paint0_linear_353_775)"></path><path d="M22.3405 18.231C22.315 19.3435 21.8487 20.4004 21.0443 21.1693C20.6552 21.5445 20.1945 21.8374 19.6896 22.0304C19.1847 22.2235 18.6462 22.3127 18.106 22.2927C17.5771 22.278 17.0561 22.1606 16.5721 21.947C16.0976 21.7304 15.6659 21.4304 15.2974 21.0613C14.9338 20.6889 14.6475 20.2483 14.4548 19.7649C14.2573 19.2851 14.1546 18.7715 14.1523 18.2526C14.156 17.1971 14.566 16.1835 15.2974 15.4224C16.0458 14.658 17.0587 14.2095 18.1276 14.1693C18.6689 14.1553 19.2075 14.2493 19.7121 14.4459C20.2166 14.6425 20.6768 14.9378 21.0659 15.3144C21.4699 15.6848 21.792 16.1356 22.0115 16.6379C22.231 17.1402 22.3431 17.6829 22.3405 18.231ZM21.4332 18.231C21.4296 17.7954 21.3491 17.3639 21.1955 16.9563C21.0411 16.5465 20.806 16.1718 20.5041 15.8545C20.1978 15.5296 19.8299 15.2687 19.422 15.087C19.0141 14.9053 18.5741 14.8063 18.1276 14.7959C17.2075 14.7785 16.3166 15.1193 15.6431 15.7465C15.1428 16.2299 14.8002 16.8532 14.6598 17.5345C14.5194 18.2159 14.5879 18.9238 14.8563 19.5656C15.1247 20.2074 15.5805 20.7534 16.1642 21.132C16.7478 21.5106 17.4321 21.7043 18.1276 21.6878C18.5758 21.6756 19.0171 21.5738 19.4252 21.3882C19.8334 21.2027 20.2003 20.9372 20.5041 20.6075C20.8087 20.2927 21.0476 19.9204 21.207 19.5125C21.3665 19.1045 21.4434 18.6689 21.4332 18.231Z" fill="url(#paint1_linear_353_775)"></path><path d="M31.8249 26.3547C31.8033 26.3764 31.8033 26.3979 31.7817 26.4412L31.7386 26.4844L31.6521 26.5708C31.6001 26.6337 31.5422 26.6916 31.4793 26.7436C31.3549 26.8511 31.2251 26.9521 31.0904 27.0461C30.8095 27.219 30.5071 27.3702 30.2262 27.543L28.4978 28.5368L25.0626 30.5245L21.6275 32.5121L19.8991 33.5059C19.6177 33.6827 19.3213 33.8345 19.0133 33.9596C18.6935 34.0662 18.3561 34.1101 18.0195 34.0892C17.6812 34.0696 17.3504 33.9814 17.0473 33.83C16.7448 33.6788 16.464 33.5059 16.1831 33.3331L14.4548 32.3393L11.0196 30.3516L7.58448 28.364L5.8561 27.3702C5.55802 27.2185 5.27579 27.0375 5.01349 26.8301C4.75245 26.6119 4.5329 26.3484 4.36536 26.0523L4.34375 26.0307L4.36536 26.009C4.9842 24.5373 5.71364 23.1145 6.54742 21.753C7.38879 20.3779 8.37373 19.0961 9.48566 17.9289C10.6116 16.7424 11.9255 15.7497 13.3745 14.9907C14.1163 14.6135 14.8993 14.3235 15.7078 14.1265L16.3128 13.9968C16.5197 13.956 16.729 13.9271 16.9393 13.9105C17.1461 13.8746 17.3561 13.8601 17.5658 13.8672C17.7742 13.8492 17.9833 13.842 18.1924 13.8456C19.0304 13.8563 19.8642 13.9651 20.6769 14.1697C21.4853 14.3864 22.2677 14.6907 23.0102 15.0771C24.4721 15.8439 25.7942 16.8518 26.9207 18.0586C27.4808 18.6478 28.0073 19.2681 28.4978 19.9166C28.9731 20.5647 29.4269 21.2561 29.8373 21.9258C30.2478 22.5955 30.6151 23.3301 30.9608 24.0647C31.1336 24.4319 31.2848 24.7992 31.4361 25.1665C31.5174 25.35 31.5895 25.5375 31.6521 25.7282L31.7601 26.009L31.8249 26.1603V26.3547ZM31.7169 26.3547L31.6305 26.2467C31.6089 26.2035 31.5873 26.1819 31.5657 26.1387L31.4144 25.8795L31.112 25.3609L30.4854 24.3455C30.0534 23.6758 29.6213 23.0276 29.1676 22.3795C28.7139 21.7313 28.2386 21.1264 27.7417 20.5215C27.2501 19.922 26.7234 19.3521 26.1645 18.8147C25.0911 17.7172 23.8606 16.7852 22.5133 16.0493C22.178 15.8691 21.8317 15.7104 21.4763 15.574C21.1306 15.4444 20.7633 15.3147 20.3961 15.2067C19.6696 15.0114 18.9227 14.9026 18.1707 14.8826C17.9833 14.879 17.7957 14.8863 17.6091 14.9043C17.4211 14.9071 17.2335 14.9215 17.0473 14.9475L16.4856 15.0123C16.2965 15.0379 16.109 15.0739 15.9239 15.1203C15.1846 15.2804 14.4666 15.5269 13.785 15.8548C12.3886 16.5292 11.1116 17.4267 10.0042 18.5122C7.73569 20.6727 5.9641 23.3301 4.47338 26.1171V26.0739C4.62721 26.3608 4.84087 26.6113 5.09992 26.8084C5.36141 27.0109 5.64389 27.1848 5.94252 27.327L7.67085 28.3208L11.106 30.3084L14.5412 32.2961L16.2696 33.2899C16.5504 33.4411 16.8313 33.6355 17.1337 33.7652C17.4275 33.8971 17.7418 33.9774 18.0627 34.0028C18.3851 34.0251 18.7087 33.981 19.0133 33.8732C19.3118 33.751 19.6007 33.6065 19.8775 33.4411L21.6059 32.4473L25.0411 30.4596L28.4762 28.472L30.2046 27.4782C30.4854 27.3054 30.7879 27.1541 31.0688 26.9813C31.2036 26.8872 31.3334 26.7863 31.4577 26.6788L31.6305 26.506L31.7169 26.4196L31.7601 26.3764C31.6953 26.3547 31.7169 26.3547 31.7169 26.3547Z" fill="url(#paint2_linear_353_775)"></path><path d="M18.9487 14.9473C19.4648 15.0217 19.9768 15.1227 20.4826 15.2497C20.7554 15.3154 21.0226 15.402 21.282 15.509C21.282 15.509 21.5629 15.8331 21.6925 16.0275C21.7963 16.1946 21.8901 16.3677 21.9734 16.546L21.1092 16.7404C20.9301 16.347 20.6728 15.9942 20.353 15.7034C19.9661 15.3232 19.4791 15.0609 18.9487 14.9473Z" fill="url(#paint3_linear_353_775)"></path></g><defs><linearGradient id="paint0_linear_353_775" x1="3.80371" y1="18.2636" x2="32.4948" y2="18.2636" gradientUnits="userSpaceOnUse"><stop stop-color="#E0BDFF"></stop><stop offset="1" stop-color="#8660C2"></stop></linearGradient><linearGradient id="paint1_linear_353_775" x1="13.9039" y1="18.2332" x2="22.347" y2="18.2332" gradientUnits="userSpaceOnUse"><stop stop-color="#E0BDFF"></stop><stop offset="0.23" stop-color="#C5A1ED"></stop><stop offset="0.56" stop-color="#A37ED5"></stop><stop offset="0.83" stop-color="#8E68C7"></stop><stop offset="1" stop-color="#8660C2"></stop></linearGradient><linearGradient id="paint2_linear_353_775" x1="3.81227" y1="23.9675" x2="32.3888" y2="23.9675" gradientUnits="userSpaceOnUse"><stop stop-color="#E0BDFF"></stop><stop offset="0.03" stop-color="#DCB8FC"></stop><stop offset="0.32" stop-color="#B792E3"></stop><stop offset="0.59" stop-color="#9C77D1"></stop><stop offset="0.82" stop-color="#8C66C6"></stop><stop offset="1" stop-color="#8660C2"></stop></linearGradient><linearGradient id="paint3_linear_353_775" x1="20.4611" y1="14.9386" x2="20.4611" y2="16.7448" gradientUnits="userSpaceOnUse"><stop stop-color="#7541ED" stop-opacity="0.98"></stop><stop offset="1" stop-color="#7540EE" stop-opacity="0"></stop></linearGradient></defs></svg> 