<?xml version="1.0" encoding="UTF-8"?> <svg xmlns="http://www.w3.org/2000/svg" width="161" height="40" viewBox="0 0 161 40" fill="none"><path fill-rule="evenodd" clip-rule="evenodd" d="M28.7814 13.5112C29.4803 13.5112 30.1633 13.3022 30.7444 12.9103C31.3253 12.5186 31.7782 11.9616 32.0455 11.3102C32.3129 10.6587 32.3829 9.94153 32.2466 9.24999C32.1102 8.55822 31.7738 7.92288 31.2797 7.42425C30.7854 6.92561 30.156 6.58592 29.4708 6.44836C28.7854 6.31081 28.075 6.38148 27.4295 6.65134C26.784 6.92121 26.2322 7.37811 25.8439 7.9646C25.4558 8.55089 25.2485 9.24034 25.2485 9.94551C25.2485 10.4137 25.3399 10.8776 25.5173 11.3102C25.695 11.7427 25.9553 12.1359 26.2833 12.467C26.6114 12.7981 27.0007 13.0608 27.4295 13.2399C27.8582 13.4192 28.3175 13.5112 28.7814 13.5112ZM17.9486 29.5702C16.2454 29.5702 14.5804 29.0605 13.1643 28.1055C11.748 27.1505 10.6442 25.7932 9.99244 24.205C9.34065 22.6168 9.1701 20.8693 9.50239 19.1832C9.83466 17.4974 10.6548 15.9486 11.8592 14.733C13.0635 13.5177 14.598 12.6899 16.2684 12.3546C17.939 12.0191 19.6705 12.1912 21.2441 12.849C22.8177 13.507 24.1625 14.6208 25.1089 16.0504C26.0549 17.4796 26.56 19.16 26.56 20.8789C26.5602 22.0203 26.3376 23.1505 25.9048 24.205C25.472 25.2595 24.8375 26.2178 24.0379 27.0249C23.2381 27.8317 22.289 28.4721 21.2441 28.9089C20.1993 29.3457 19.0794 29.5704 17.9486 29.5702ZM141.411 27.7845L136.099 15.471H139.656L143.283 24.302L147.475 15.471H150.973L142.706 32.4318H139.15L141.411 27.7845ZM128.478 25.235C128.791 25.1629 129.094 25.049 129.378 24.8964C129.653 24.7487 129.908 24.5672 130.138 24.3555C130.368 24.1434 130.566 23.8993 130.726 23.6305C130.895 23.3483 131.026 23.0444 131.115 22.7271C131.212 22.3812 131.259 22.023 131.256 21.6634C131.259 21.3 131.213 20.9378 131.115 20.5877C131.026 20.2705 130.895 19.9668 130.726 19.6844C130.565 19.4145 130.367 19.1686 130.138 18.9535C129.911 18.7399 129.655 18.5601 129.378 18.4185C129.092 18.2732 128.79 18.1635 128.478 18.0918C128.149 18.0157 127.813 17.9779 127.476 17.9787C127.141 17.9777 126.808 18.0155 126.481 18.0918C126.172 18.1635 125.874 18.2734 125.592 18.4185C125.317 18.562 125.061 18.7418 124.832 18.9535C124.601 19.1675 124.401 19.4135 124.238 19.6844C124.069 19.9662 123.941 20.2702 123.855 20.5877C123.762 20.9385 123.717 21.3002 123.72 21.6634C123.717 22.0226 123.762 22.3803 123.855 22.7271C123.941 23.0448 124.069 23.3489 124.238 23.6305C124.4 23.9003 124.6 24.1446 124.832 24.3555C125.064 24.5655 125.319 24.7468 125.592 24.8964C125.872 25.049 126.171 25.1629 126.481 25.235C126.807 25.3113 127.141 25.3493 127.476 25.348C127.813 25.3491 128.149 25.3111 128.478 25.235ZM124.892 27.9926C124.346 27.8525 123.821 27.6407 123.331 27.3627C122.376 26.8205 121.587 26.0223 121.052 25.0567C120.776 24.5574 120.567 24.024 120.428 23.4701C120.137 22.2794 120.137 21.0356 120.428 19.845C120.566 19.2925 120.776 18.761 121.052 18.2642C121.589 17.3019 122.378 16.5066 123.331 15.9643C123.821 15.6861 124.346 15.4743 124.892 15.3343C125.474 15.1851 126.074 15.1111 126.675 15.1145C127 15.1136 127.325 15.1335 127.647 15.1738C127.944 15.211 128.237 15.2705 128.525 15.3521C128.791 15.4286 129.052 15.5216 129.308 15.6313C129.546 15.7339 129.776 15.8551 129.996 15.9939C130.204 16.1246 130.397 16.2759 130.574 16.4456C130.739 16.6041 130.892 16.775 131.033 16.9568V15.471H134.412V27.8559H131.033V26.3703C130.817 26.6439 130.57 26.8911 130.297 27.1071C129.995 27.3461 129.664 27.5457 129.314 27.7013C128.923 27.8745 128.514 28.0022 128.094 28.0817C127.626 28.171 127.151 28.2148 126.675 28.2125C126.074 28.2157 125.474 28.1419 124.892 27.9926ZM112.621 18.6087C113.105 18.6177 113.588 18.5618 114.058 18.4424C114.424 18.3491 114.765 18.1768 115.059 17.9373C115.324 17.7141 115.526 17.4254 115.648 17.0994C115.779 16.7297 115.844 16.339 115.836 15.9463C115.844 15.5557 115.779 15.1669 115.648 14.7993C115.526 14.4768 115.323 14.1921 115.059 13.9733C114.764 13.7375 114.423 13.5672 114.058 13.4741C113.588 13.355 113.105 13.299 112.621 13.3078H109.3V18.6087H112.621ZM105.802 10.384H112.951C114.073 10.384 115.047 10.5226 115.872 10.8C116.696 11.0772 117.375 11.4615 117.909 11.9528C118.44 12.44 118.849 13.0468 119.104 13.7239C119.371 14.4377 119.506 15.1952 119.499 15.9582C119.507 16.7196 119.373 17.4756 119.104 18.1868C118.845 18.8582 118.437 19.4602 117.909 19.9459C117.375 20.4414 116.696 20.8276 115.872 21.1048C115.047 21.3824 114.073 21.521 112.951 21.5208H109.3V27.8559H105.802V10.384ZM90.7834 15.471H94.1398V16.9566C94.347 16.6682 94.5925 16.4103 94.8699 16.19C95.1634 15.9576 95.4836 15.762 95.8237 15.6077C96.1986 15.4384 96.592 15.3147 96.9957 15.2392C97.444 15.1541 97.8994 15.1124 98.3557 15.1145C99.0662 15.1042 99.7728 15.225 100.44 15.471C101.035 15.6922 101.574 16.0432 102.018 16.4991C102.465 16.9715 102.803 17.5377 103.007 18.1572C103.244 18.8693 103.359 19.6169 103.349 20.368V27.8559H99.9926V21.2474C100.001 20.7643 99.9332 20.283 99.7926 19.8211C99.676 19.4399 99.4816 19.0876 99.2214 18.7871C98.9713 18.5081 98.6582 18.2939 98.3088 18.1631C97.9125 18.0184 97.4935 17.948 97.0721 17.9551C96.649 17.9484 96.228 18.0188 95.8298 18.1631C95.478 18.2929 95.1626 18.507 94.9112 18.7871C94.6509 19.0876 94.4564 19.4399 94.3398 19.8211C94.1992 20.283 94.1317 20.7643 94.1398 21.2474V27.8559H90.7834V15.471ZM82.5244 25.1993C82.8447 25.1213 83.1549 25.0055 83.4486 24.8546C83.7283 24.7106 83.9844 24.5242 84.2082 24.302C84.4301 24.083 84.622 23.8351 84.7796 23.565C84.9399 23.287 85.059 22.9867 85.1327 22.6736C85.213 22.335 85.2524 21.9878 85.2505 21.6397C85.2526 21.2933 85.2132 20.9482 85.1327 20.6114C84.9842 19.9912 84.6636 19.4263 84.2082 18.9832C83.9813 18.7631 83.7258 18.5752 83.4486 18.4245C83.1574 18.2667 82.8466 18.1488 82.5244 18.074C82.1746 17.9929 81.8171 17.953 81.4585 17.9551C81.1038 17.9534 80.7501 17.9933 80.4045 18.074C80.0839 18.1482 79.7748 18.2661 79.4858 18.4245C79.2112 18.5762 78.9577 18.7641 78.7322 18.9832C78.5102 19.1989 78.3215 19.4474 78.1728 19.72C78.0209 20.0002 77.9022 20.2975 77.8196 20.6055C77.7307 20.9429 77.687 21.2906 77.6899 21.6397C77.6881 21.9887 77.7315 22.3363 77.8196 22.6736C77.9002 22.9844 78.0188 23.2841 78.1728 23.565C78.3234 23.8366 78.5118 24.0846 78.7322 24.302C78.9548 24.5231 79.2089 24.7095 79.4858 24.8548C79.7773 25.0062 80.0859 25.1219 80.4045 25.1995C80.7494 25.2841 81.1034 25.326 81.4585 25.3243C81.8176 25.3264 82.1753 25.2845 82.5244 25.1993ZM79.48 27.9867C78.8744 27.8443 78.2874 27.6308 77.7311 27.3507C77.2079 27.0874 76.7226 26.7535 76.2886 26.3582C75.8679 25.9741 75.5033 25.5322 75.2051 25.045C74.903 24.5491 74.6712 24.0129 74.5162 23.4522C74.1943 22.2656 74.1943 21.0136 74.5162 19.8272C74.6704 19.2679 74.9024 18.7336 75.2051 18.2403C75.5053 17.7548 75.8698 17.3128 76.2886 16.927C76.7214 16.5286 77.2068 16.1925 77.7311 15.9287C78.2874 15.6485 78.8744 15.4351 79.48 15.2927C80.7902 14.9916 82.1504 14.9916 83.4605 15.2927C84.0626 15.4338 84.6458 15.6473 85.1975 15.9287C85.7195 16.1965 86.2044 16.5322 86.6401 16.927C87.0654 17.3116 87.4359 17.7534 87.7412 18.2403C88.0474 18.7326 88.2814 19.2671 88.4361 19.8272C88.758 21.0136 88.758 22.2656 88.4361 23.4522C88.2808 24.0138 88.0468 24.5501 87.7412 25.045C87.438 25.5334 87.0672 25.9755 86.6401 26.3582C86.2033 26.7499 85.7185 27.0836 85.1975 27.3507C84.6477 27.6315 84.0666 27.8449 83.4663 27.9867C82.1543 28.2876 80.7921 28.2876 79.48 27.9867ZM66.3832 25.1993C66.7035 25.1213 67.0137 25.0055 67.3076 24.8546C67.5872 24.7106 67.8433 24.5242 68.0671 24.302C68.289 24.0827 68.4809 23.8351 68.6384 23.565C68.7988 23.2872 68.9179 22.9867 68.9916 22.6736C69.0718 22.335 69.1113 21.9878 69.1094 21.6397C69.1115 21.2933 69.072 20.9482 68.9916 20.6114C68.8431 19.991 68.5225 19.4263 68.0671 18.9832C67.8402 18.7631 67.5847 18.5752 67.3076 18.4245C67.0162 18.2667 66.7054 18.1488 66.3832 18.074C66.0336 17.9929 65.676 17.953 65.3174 17.9551C64.9627 17.9534 64.6089 17.9933 64.2634 18.074C63.9428 18.1482 63.6337 18.2661 63.3447 18.4245C63.07 18.5762 62.8165 18.7641 62.5912 18.9832C62.369 19.1989 62.1804 19.4474 62.0316 19.72C61.88 20.0002 61.7614 20.2975 61.6785 20.6055C61.5895 20.9429 61.546 21.2906 61.5489 21.6397C61.547 21.9887 61.5903 22.3363 61.6785 22.6736C61.7591 22.9844 61.8779 23.2839 62.0316 23.565C62.1822 23.8366 62.3707 24.0846 62.5912 24.302C62.8136 24.5231 63.0677 24.7093 63.3447 24.8546C63.6362 25.0062 63.9447 25.1219 64.2634 25.1993C64.6082 25.2841 64.9623 25.3257 65.3174 25.3243C65.6764 25.3264 66.0342 25.2845 66.3832 25.1993ZM63.3389 27.9867C62.7332 27.8443 62.1463 27.6311 61.5901 27.3507C61.0668 27.0876 60.5814 26.7535 60.1475 26.3582C59.7267 25.9741 59.3621 25.5322 59.064 25.045C58.7619 24.5491 58.53 24.0129 58.3751 23.4522C58.0532 22.2658 58.0532 21.0136 58.3751 19.8272C58.5294 19.2679 58.7613 18.7339 59.064 18.2405C59.3642 17.7548 59.7288 17.313 60.1475 16.927C60.5804 16.5286 61.0658 16.1927 61.5901 15.9287C62.1465 15.6485 62.7335 15.4351 63.3389 15.2927C64.649 14.9916 66.0092 14.9916 67.3194 15.2927C67.9214 15.4338 68.5046 15.6473 69.0564 15.9287C69.5783 16.1965 70.0635 16.5322 70.4992 16.927C70.9242 17.3116 71.2949 17.7536 71.6001 18.2405C71.9063 18.7328 72.1404 19.2671 72.2951 19.8272C72.6169 21.0136 72.6169 22.2658 72.2951 23.4522C72.1396 24.0138 71.9057 24.5501 71.6001 25.045C71.2969 25.5334 70.9263 25.9758 70.4992 26.3582C70.0622 26.7501 69.5773 27.0836 69.0564 27.3507C68.5065 27.6315 67.9254 27.8449 67.3252 27.9867C66.0131 28.2876 64.6509 28.2876 63.3389 27.9867ZM36.8485 10.384H40.3816L46.4228 19.7022L52.4878 10.384H56.0209V27.8559H52.523V15.875L47.5063 23.6007H45.363L40.3462 15.875V27.8559H36.8485V10.384Z" fill="white"></path></svg> 