<?xml version="1.0" encoding="UTF-8"?> <svg xmlns="http://www.w3.org/2000/svg" width="92" height="18" viewBox="0 0 92 18" fill="none"><path d="M33.7085 14.4572L28.6806 6.47391H28.6162V14.4572H26.3994V3.32422H29.1303L34.094 11.1671H34.1582V3.32422H36.375V14.4572H33.7085Z" fill="white"></path><path d="M47.1245 14.3185V13.0087C46.7283 13.518 46.2357 13.9078 45.6466 14.1781C45.0576 14.438 44.3722 14.5679 43.5904 14.5679C42.4982 14.5679 41.5235 14.3288 40.6668 13.8507C39.8101 13.3725 39.1409 12.6968 38.659 11.8236C38.1876 10.9401 37.9521 9.91103 37.9521 8.73641C37.9521 7.56179 38.1876 6.53786 38.659 5.66468C39.1409 4.79157 39.8101 4.12106 40.6668 3.65328C41.5235 3.17516 42.4982 2.93604 43.5904 2.93604C44.865 2.93604 45.9572 3.24789 46.8674 3.87159C47.7886 4.4953 48.431 5.33725 48.7952 6.39757L46.3695 6.6782C46.1233 6.08572 45.7645 5.62835 45.2933 5.30609C44.8326 4.98383 44.2651 4.82273 43.5904 4.82273C42.6267 4.82273 41.8555 5.16057 41.2774 5.83619C40.6989 6.51187 40.4099 7.47859 40.4099 8.73641C40.4099 10.015 40.6989 10.992 41.2774 11.6677C41.8555 12.3434 42.6267 12.6812 43.5904 12.6812C44.4043 12.6812 45.0791 12.4526 45.6144 11.9952C46.1608 11.5378 46.4926 10.9505 46.6106 10.2332H43.7833V8.47129H48.8433V14.3185H47.1245Z" fill="white"></path><path d="M55.4067 10.3876H53.0776V14.4572H50.668V3.32422H56.2741C57.5806 3.32422 58.5981 3.64131 59.3264 4.27536C60.0545 4.89906 60.4185 5.75666 60.4185 6.84808C60.4185 7.67968 60.2045 8.38652 59.7762 8.96866C59.3585 9.54039 58.7533 9.94055 57.9608 10.1693L60.6757 14.4572H57.8644L55.4067 10.3876ZM55.9046 8.53204C56.5794 8.53204 57.0934 8.38652 57.4468 8.09549C57.8002 7.80445 57.9769 7.38865 57.9769 6.84808C57.9769 6.31798 57.8002 5.90735 57.4468 5.61631C57.0934 5.32527 56.5794 5.17976 55.9046 5.17976H53.0776V8.53204H55.9046Z" fill="white"></path><path d="M64.2667 11.8064L63.3187 14.4572H60.7646L65.0375 3.32422H68.2183L72.507 14.4572H69.9048L68.9573 11.8064H64.2667ZM66.6282 5.32004H66.5635L64.893 10.0289H68.3146L66.6282 5.32004Z" fill="white"></path><path d="M77.5596 14.4572H74.7488L70.5723 3.32422H73.158L76.1463 11.9624H76.2103L79.182 3.32422H81.7361L77.5596 14.4572Z" fill="white"></path><path d="M90.9071 7.84602V9.63911H85.2367V12.5393H91.1961V14.4572H82.8271V3.32422H91.1961V5.17976H85.2367V7.84602H90.9071Z" fill="white"></path><g clip-path="url(#clip0_299_33402)"><path opacity="0.5" d="M16.4621 0.317383L13.2818 2.92925L10.1016 5.54766L10.8801 11.2951L11.7973 17.4287L17.4848 11.2951L22.816 5.66549L19.6357 2.93579L16.4555 0.323929L16.4621 0.317383Z" fill="url(#paint0_linear_299_33402)"></path><path opacity="0.5" d="M7.13906 0.317383L3.95881 2.92925L0.785156 5.54766L6.11637 11.2951L11.8039 17.4287L12.721 11.2951L13.4996 5.54766L10.3193 2.92925L7.13906 0.317383Z" fill="url(#paint1_linear_299_33402)"></path><path d="M11.9406 0.317383L8.76033 2.92925L5.58008 5.54766L8.76033 11.2951L11.7954 17.4287L15.1142 11.2951L18.2945 5.54766L15.1142 2.92925L11.934 0.317383L11.9406 0.317383Z" fill="url(#paint2_linear_299_33402)"></path></g><defs><linearGradient id="paint0_linear_299_33402" x1="16.4588" y1="0.317383" x2="16.4588" y2="17.4287" gradientUnits="userSpaceOnUse"><stop stop-color="#42689B"></stop><stop offset="1" stop-color="#E6D48B"></stop></linearGradient><linearGradient id="paint1_linear_299_33402" x1="7.14236" y1="0.317383" x2="7.14236" y2="17.4287" gradientUnits="userSpaceOnUse"><stop stop-color="#42689B"></stop><stop offset="1" stop-color="#E6D48B"></stop></linearGradient><linearGradient id="paint2_linear_299_33402" x1="11.9373" y1="0.317383" x2="11.9373" y2="17.4287" gradientUnits="userSpaceOnUse"><stop stop-color="#42689B"></stop><stop offset="1" stop-color="#E6D48B"></stop></linearGradient><clipPath id="clip0_299_33402"><rect width="22.0374" height="17.1113" fill="white" transform="translate(0.785156 0.317383)"></rect></clipPath></defs></svg> 