<?xml version="1.0" encoding="UTF-8"?> <svg xmlns="http://www.w3.org/2000/svg" width="121" height="31" viewBox="0 0 121 31" fill="none"><g clip-path="url(#clip0_353_738)"><path d="M15.6558 0.000171555C23.7945 -0.0389979 31.2357 6.63319 30.9204 15.9345C30.651 23.8792 23.932 30.8676 15.0549 30.5925C7.38341 30.3546 0.012856 23.8983 0.351051 14.6438C0.637657 6.78605 7.12451 -0.00938198 15.6558 0.000171555ZM7.99961 15.282C7.99961 16.9864 7.99483 18.6897 8.00057 20.3941C8.0063 21.9485 8.97503 22.9296 10.5217 22.9334C13.9285 22.9401 17.3363 22.9411 20.744 22.9334C22.2898 22.9296 23.2767 21.937 23.2795 20.3922C23.2853 16.9844 23.2862 13.5757 23.2795 10.168C23.2767 8.65472 22.2869 7.65924 20.767 7.65542C17.3439 7.64586 13.9209 7.64395 10.4979 7.66401C10.0995 7.66593 9.67339 7.76433 9.3094 7.92769C8.35691 8.35378 8.01394 9.18685 8.00534 10.1718C7.99006 11.8762 8.00152 13.5796 8.00152 15.2839L7.99961 15.282Z" fill="white"></path><path d="M69.468 26.6295C66.473 26.5741 64.0387 25.7104 62.3458 23.4396C60.3979 20.8267 60.1638 17.8995 61.3723 14.9312C62.5531 12.0317 64.9033 10.5652 67.9442 10.1458C69.768 9.89456 71.5392 10.1248 73.2072 10.9149C75.7083 12.0995 77.17 14.1019 77.6171 16.8151C77.9458 18.8137 77.7127 20.7512 76.6933 22.5444C75.4179 24.7866 73.448 26.0238 70.9459 26.4642C70.3832 26.5636 69.809 26.5922 69.4689 26.6285L69.468 26.6295ZM74.3632 18.3829C74.4062 15.4518 72.3168 13.3033 69.4842 13.1657C66.4949 13.0214 64.1371 15.2694 64.0578 18.1421C63.9718 21.2575 66.2589 23.4319 68.9081 23.5007C72.1439 23.5848 74.3174 21.526 74.3632 18.3829Z" fill="white"></path><path d="M57.78 26.1885H54.3436C54.3436 25.9869 54.3436 25.8159 54.3436 25.6449C54.3436 23.0177 54.335 20.3895 54.3474 17.7623C54.3521 16.7716 54.2002 15.8201 53.714 14.9555C52.9812 13.6543 51.4555 12.975 49.9184 13.2196C47.8319 13.552 46.417 15.0711 46.202 17.2282C46.1533 17.7183 46.1285 18.2132 46.1266 18.7052C46.1189 20.9981 46.1227 23.2919 46.1227 25.5847V26.1828H42.7217V10.4596H45.3642C45.4903 11.0528 45.6183 11.6538 45.732 12.1868C46.4991 11.6843 47.2147 11.0748 48.0373 10.7022C50.1677 9.73923 52.3526 9.75356 54.442 10.8178C56.4577 11.8439 57.3548 13.6724 57.6663 15.8277C57.7522 16.4229 57.7714 17.0324 57.7742 17.6352C57.7857 20.2787 57.779 22.9221 57.779 25.5656C57.779 25.7548 57.779 25.943 57.779 26.1875L57.78 26.1885Z" fill="white"></path><path d="M88.5586 10.4521H91.889C91.8976 10.6556 91.9129 10.841 91.9129 11.0263C91.9148 13.558 91.8861 16.0906 91.9301 18.6214C91.9444 19.4382 92.0419 20.2837 92.2845 21.0594C93.1644 23.871 96.5855 24.0344 98.2966 22.6224C99.5089 21.6212 99.978 20.2789 100.002 18.7799C100.043 16.1852 100.013 13.5886 100.013 10.9938V10.454H103.413V26.2135C102.598 26.2135 101.791 26.226 100.987 26.1973C100.888 26.1935 100.747 25.9814 100.712 25.8448C100.59 25.3709 100.508 24.8875 100.412 24.407C100.354 24.3678 100.297 24.3296 100.241 24.2904C100.14 24.4509 100.066 24.6382 99.935 24.7681C97.4243 27.252 92.7603 27.2549 90.3595 24.7633C89.2283 23.5892 88.6293 22.1246 88.5825 20.5368C88.4851 17.2437 88.529 13.9459 88.5166 10.6499C88.5166 10.5907 88.5414 10.5314 88.5596 10.4512L88.5586 10.4521Z" fill="white"></path><path d="M120.042 15.0732H116.748C116.686 14.8697 116.635 14.6557 116.555 14.4532C116.218 13.6039 115.531 13.1806 114.689 12.9733C113.696 12.7278 112.7 12.7517 111.72 13.0517C111.181 13.2169 110.748 13.5408 110.518 14.0662C110.156 14.8936 110.475 15.7257 111.394 16.0897C112.276 16.4393 113.202 16.6896 114.125 16.918C115.593 17.282 117.074 17.5896 118.359 18.4551C119.54 19.249 120.271 20.3162 120.335 21.7635C120.409 23.4707 119.636 24.7375 118.19 25.5907C115.553 27.145 110.675 26.9568 108.383 24.9133C107.291 23.9398 106.784 22.7332 106.723 21.2266C107.622 21.2266 108.492 21.2553 109.36 21.2152C109.857 21.1922 110.107 21.2706 110.217 21.8419C110.376 22.6682 111.005 23.1583 111.776 23.4478C113.029 23.9188 114.306 23.9073 115.572 23.5367C116.272 23.3322 116.835 22.9243 116.943 22.1151C117.055 21.2792 116.633 20.6754 115.934 20.3964C114.894 19.9818 113.792 19.721 112.718 19.3923C111.612 19.0541 110.45 18.8335 109.413 18.3481C106.788 17.1196 106.181 13.8035 108.142 11.7438C109.025 10.8171 110.172 10.3834 111.408 10.2038C113.523 9.89708 115.602 9.96205 117.547 10.9948C119.036 11.7858 120.051 13.4357 120.041 15.0722L120.042 15.0732Z" fill="white"></path><path d="M81.0078 26.1909V3.86426H84.3859V26.1909H81.0078Z" fill="white"></path></g><defs><clipPath id="clip0_353_738"><rect width="120" height="30.6009" fill="white" transform="translate(0.339844)"></rect></clipPath></defs></svg> 