<?xml version="1.0" encoding="UTF-8"?> <svg xmlns="http://www.w3.org/2000/svg" width="175" height="32" viewBox="0 0 175 32" fill="none"><path fill-rule="evenodd" clip-rule="evenodd" d="M31.507 8.16333L32.1377 9.27681L34.6443 13.7003L35.8965 15.9133C32.9694 21.0808 30.0422 26.2458 27.1151 31.4133H17.1254L19.632 26.9898H24.6085L27.6165 21.6799L30.8832 15.9133L29.631 13.7003L27.1244 9.27681L24.6085 4.83684H12.0566L9.54066 9.27681H22.111L25.8699 15.9133L22.1017 22.5663H17.0884L12.075 31.4133H9.55005L5.15935 23.6633C3.69571 21.0803 2.23209 18.4971 0.768555 15.9133L2.0231 13.7003L4.52969 9.27681L5.16036 8.16333L9.55227 0.41333H27.1151L31.507 8.16333ZM7.03463 13.6994L7.03416 13.7003L5.77961 15.9133L10.793 24.7603C12.045 22.5545 13.2949 20.3487 14.5448 18.1428H19.5952L20.8565 15.9133L19.6043 13.7003L19.5952 13.6838C18.3369 13.6838 15.4822 13.688 12.6255 13.6921C10.5628 13.695 8.49908 13.698 7.03463 13.6994ZM57.9469 24.7997V21.7303L64.2674 16.0914C64.7413 15.6547 65.1445 15.2552 65.4775 14.893C65.8102 14.5251 66.064 14.1572 66.239 13.7894C66.4139 13.4157 66.5012 13.0105 66.5012 12.5736C66.5012 12.085 66.397 11.6683 66.1882 11.3234C65.9794 10.9729 65.6918 10.7026 65.3252 10.5129C64.9584 10.3233 64.5382 10.2285 64.0644 10.2285C63.5849 10.2285 63.1646 10.3291 62.8036 10.5302C62.4427 10.7257 62.1605 11.0101 61.9575 11.3838C61.7601 11.7574 61.6614 12.2115 61.6614 12.7461H57.6931C57.6931 11.5447 57.9581 10.5071 58.4884 9.6335C59.0187 8.75989 59.7633 8.08717 60.7221 7.61597C61.6867 7.13878 62.8064 6.90027 64.0813 6.90027C65.3957 6.90027 66.5379 7.12442 67.5081 7.57278C68.4784 8.02112 69.2287 8.64771 69.7588 9.45235C70.2948 10.2514 70.5627 11.1798 70.5627 12.2373C70.5627 12.9098 70.4302 13.5767 70.1649 14.2378C69.8999 14.8986 69.4232 15.6287 68.7351 16.4277C68.0525 17.2268 67.0822 18.1837 65.8243 19.2989L64.7878 20.2731L62.9893 21.8097C62.8606 21.9198 62.8521 22.1186 62.9709 22.2398C63.0757 22.3466 63.243 22.354 63.3571 22.2577C64.0461 21.6762 64.4874 21.3596 65.4775 21.3596H70.7743V24.7997H57.9469ZM126.58 14.66V11.5561H124.237V8.38304H120.099V11.5561H118.256V14.66H120.099V21.1008C120.088 21.9975 120.263 22.7419 120.624 23.3338C120.99 23.9259 121.518 24.3628 122.206 24.6445C122.9 24.9204 123.732 25.0353 124.702 24.9894C125.198 24.9663 125.624 24.9117 125.98 24.8254C126.34 24.7392 126.62 24.6673 126.817 24.61V21.6009C125.973 21.7384 125.441 21.7384 125.296 21.7384C124.946 21.7384 124.532 21.5896 124.355 21.2645C124.276 21.1035 124.237 20.8939 124.237 20.6352V14.66H126.58ZM141.483 11.5565V24.7999H145.621V17.609C145.621 17.0803 145.731 16.6205 145.951 16.2295C146.178 15.8329 146.484 15.5254 146.874 15.3071C147.269 15.0829 147.712 14.9707 148.203 14.9707C148.45 14.9707 148.733 14.9909 149.049 15.0312C149.37 15.0713 149.629 15.1259 149.826 15.1949V11.5305C149.651 11.4788 149.463 11.4414 149.26 11.4185C149.056 11.3897 148.859 11.3753 148.667 11.3753C147.957 11.3753 147.334 11.591 146.798 12.0221C146.337 12.3874 145.66 13.2555 145.33 14.0469C145.259 14.2128 145.041 14.269 144.917 14.1413C144.843 14.0659 144.828 13.9491 144.879 13.8567L145.075 13.5141C145.354 13.0226 145.503 12.464 145.503 11.8953V11.5565H141.483ZM155.96 25.05C154.601 25.05 153.428 24.7768 152.441 24.2308C151.46 23.679 150.703 22.8943 150.172 21.877C149.648 20.8538 149.385 19.6382 149.385 18.2298C149.385 16.8617 149.651 15.6663 150.182 14.6431C150.711 13.6141 151.46 12.8152 152.424 12.246C153.388 11.6714 154.525 11.3838 155.833 11.3838C156.759 11.3838 157.605 11.5305 158.371 11.8237C159.139 12.1168 159.801 12.5508 160.36 13.1256C160.919 13.7003 161.352 14.4102 161.662 15.2552C161.974 16.0945 162.128 17.0572 162.128 18.1436V19.1954H153.464V19.3076C153.464 19.848 153.568 20.3221 153.777 20.7303C153.987 21.1326 154.281 21.4459 154.665 21.67C155.049 21.8942 155.506 22.0064 156.036 22.0064C156.403 22.0064 156.736 21.9546 157.034 21.8512C157.333 21.7477 157.59 21.5952 157.805 21.3941C158.019 21.193 158.179 20.9458 158.287 20.6526L162.086 20.7648C161.929 21.6326 161.581 22.3886 161.046 23.0323C160.516 23.6703 159.818 24.1677 158.955 24.524C158.092 24.8747 157.093 25.05 155.96 25.05ZM153.802 15.6C153.599 15.9383 153.487 16.3206 153.468 16.7468H158.278C158.272 16.2985 158.168 15.899 157.966 15.5483C157.763 15.1978 157.483 14.9246 157.128 14.7293C156.778 14.528 156.375 14.4274 155.918 14.4274C155.454 14.4274 155.04 14.5338 154.675 14.7466C154.308 14.9535 154.017 15.2379 153.802 15.6ZM174.447 15.6L170.648 15.7035C170.608 15.4276 170.502 15.1833 170.327 14.9707C170.152 14.7522 169.924 14.5827 169.641 14.4619C169.365 14.3356 169.044 14.2723 168.677 14.2723C168.197 14.2723 167.789 14.3701 167.45 14.5654C167.117 14.7609 166.954 15.0254 166.96 15.3586C166.954 15.6173 167.055 15.8414 167.264 16.0311C167.479 16.2208 167.859 16.3733 168.407 16.4882L170.911 16.971C172.207 17.2239 173.173 17.6435 173.805 18.2298C174.442 18.8161 174.763 19.592 174.769 20.5579C174.763 21.466 174.499 22.2563 173.974 22.9288C173.455 23.6013 172.744 24.1245 171.84 24.4982C170.939 24.8659 169.907 25.05 168.745 25.05C166.889 25.05 165.425 24.6619 164.353 23.8859C163.286 23.1042 162.678 22.0581 162.526 20.7476L166.612 20.6441C166.703 21.1269 166.937 21.4947 167.315 21.7477C167.692 22.0006 168.175 22.1271 168.762 22.1271C169.291 22.1271 169.722 22.0265 170.055 21.8252C170.388 21.6241 170.557 21.3567 170.563 21.0235C170.557 20.7245 170.428 20.486 170.175 20.3078C169.92 20.1239 169.523 19.9801 168.981 19.8767L166.714 19.4369C165.41 19.1955 164.44 18.75 163.803 18.1006C163.166 17.4453 162.849 16.6118 162.855 15.6C162.849 14.715 163.081 13.959 163.549 13.3326C164.018 12.7002 164.684 12.2174 165.545 11.8839C166.408 11.5507 167.427 11.3838 168.601 11.3838C170.361 11.3838 171.747 11.7605 172.763 12.5134C173.778 13.2607 174.341 14.2895 174.447 15.6ZM135.945 19.0833V11.5563H140.074V24.7997H136.131V24.1597C136.131 23.5653 136.266 22.9788 136.524 22.4464L136.715 22.0583C136.764 21.9543 136.732 21.8281 136.637 21.7638C136.515 21.6807 136.348 21.7359 136.287 21.8723C135.924 22.6897 135.144 23.8381 134.523 24.2651C133.835 24.7365 133.003 24.9721 132.027 24.9721C131.142 24.9721 130.363 24.7652 129.692 24.3513C129.021 23.9375 128.499 23.3599 128.127 22.6182C127.754 21.8711 127.565 20.9973 127.56 19.9972V11.5563H131.697V19.1695C131.703 19.8879 131.889 20.4542 132.256 20.8681C132.622 21.2819 133.122 21.4889 133.753 21.4889C134.165 21.4889 134.535 21.3968 134.862 21.213C135.195 21.0233 135.457 20.7503 135.649 20.3938C135.846 20.0317 135.945 19.5948 135.945 19.0833ZM109.505 17.2469V24.7999H105.367V11.5563H109.302V12.2199V12.4468C109.302 12.8389 109.19 13.2225 108.98 13.5511L108.625 14.107C108.561 14.2079 108.588 14.3428 108.686 14.4096C108.803 14.4887 108.962 14.436 109.024 14.3081C109.406 13.5172 110.294 12.4956 110.918 12.0823C111.612 11.6167 112.438 11.3838 113.397 11.3838C114.311 11.3838 115.104 11.5937 115.775 12.0133C116.452 12.4272 116.976 13.0076 117.349 13.755C117.727 14.4964 117.913 15.3644 117.907 16.3588V24.7999H113.769V17.1867C113.775 16.4508 113.592 15.8759 113.22 15.4621C112.853 15.0482 112.342 14.8413 111.688 14.8413C111.254 14.8413 110.87 14.9392 110.537 15.1345C110.21 15.3241 109.956 15.5973 109.776 15.9536C109.601 16.3099 109.511 16.741 109.505 17.2469ZM94.5186 24.2308C95.5056 24.7768 96.6789 25.05 98.0384 25.05C99.1722 25.05 100.171 24.8747 101.034 24.524C101.897 24.1677 102.593 23.6703 103.124 23.0323C103.66 22.3886 104.006 21.6326 104.164 20.7648L100.365 20.6526C100.258 20.9458 100.097 21.193 99.8829 21.3941C99.6687 21.5952 99.412 21.7477 99.1131 21.8512C98.814 21.9546 98.4813 22.0064 98.1147 22.0064C97.5844 22.0064 97.1275 21.8942 96.7438 21.67C96.3603 21.4459 96.064 21.1326 95.8555 20.7303C95.6467 20.3221 95.5423 19.848 95.5423 19.3076V19.1954H104.207V18.1436C104.207 17.0572 104.052 16.0945 103.741 15.2552C103.431 14.4102 102.997 13.7003 102.438 13.1256C101.88 12.5508 101.217 12.1168 100.45 11.8237C99.6827 11.5305 98.8366 11.3838 97.9116 11.3838C96.6029 11.3838 95.4662 11.6714 94.5017 12.246C93.5369 12.8152 92.7897 13.6141 92.2594 14.6431C91.7291 15.6663 91.4641 16.8617 91.4641 18.2298C91.4641 19.6382 91.7263 20.8538 92.2508 21.877C92.7811 22.8943 93.5369 23.679 94.5186 24.2308ZM100.357 16.7468H95.5448C95.5653 16.3206 95.6773 15.9383 95.8808 15.6C96.0952 15.2379 96.3856 14.9535 96.7523 14.7466C97.1189 14.5338 97.5336 14.4274 97.9962 14.4274C98.4531 14.4274 98.8564 14.528 99.2061 14.7293C99.5614 14.9246 99.8407 15.1978 100.044 15.5483C100.247 15.899 100.351 16.2985 100.357 16.7468ZM43.3904 7.14167V24.7997H47.5787V19.3162H50.4217C51.7473 19.3162 52.8925 19.066 53.8571 18.566C54.8216 18.0659 55.5634 17.3618 56.0824 16.4535C56.607 15.5396 56.8692 14.4734 56.8692 13.2547C56.8692 12.042 56.6125 10.9785 56.0993 10.0646C55.586 9.14487 54.8555 8.42935 53.9078 7.91764C52.9657 7.40034 51.8462 7.14167 50.5487 7.14167H43.3904ZM49.6432 15.9534H47.5787V10.5819H49.6432C50.2694 10.5819 50.7968 10.6912 51.2256 10.9095C51.6543 11.1281 51.9787 11.4385 52.1987 11.8407C52.4187 12.2373 52.5286 12.7087 52.5286 13.2547C52.5286 13.7951 52.4187 14.2694 52.1987 14.6774C51.9787 15.0798 51.6543 15.3931 51.2256 15.6173C50.8025 15.8414 50.2751 15.9534 49.6432 15.9534ZM80.9588 7.14167L82.8965 13.6083L83.8652 16.8416L84.3497 18.4582L84.3609 18.4956C84.4839 18.9079 84.5463 19.3363 84.5463 19.7672V20.4769C84.5463 20.6674 84.6978 20.8218 84.8848 20.8218C85.0718 20.8218 85.2232 20.6674 85.2232 20.4769V19.8201C85.2232 19.3553 85.3042 18.8942 85.4624 18.4582L85.9467 16.8416L86.9156 13.6083L88.8531 7.14167H93.5407L87.694 24.7997H82.1181L76.2712 7.14167H80.9588Z" fill="white"></path></svg> 