<?xml version="1.0" encoding="UTF-8"?> <svg xmlns="http://www.w3.org/2000/svg" width="117" height="28" viewBox="0 0 117 28" fill="none"><g clip-path="url(#clip0_353_1017)"><path d="M40.2789 10.5197H38.5867C38.4798 10.5197 38.3729 10.5545 38.2839 10.642C38.2126 10.7119 38.1592 10.8168 38.1592 10.9394V22.2003C38.1592 22.3052 38.2126 22.4102 38.2839 22.4977C38.3551 22.5675 38.462 22.62 38.5867 22.62H40.2789C40.3858 22.62 40.4927 22.5852 40.5817 22.4977C40.653 22.4278 40.7064 22.3229 40.7064 22.2003V10.9217C40.7064 10.8168 40.653 10.7119 40.5817 10.642C40.4927 10.5721 40.3858 10.5197 40.2789 10.5197ZM54.8498 10.5197H45.5337C45.4268 10.5197 45.32 10.5545 45.2309 10.642C45.1596 10.7119 45.1062 10.8168 45.1062 10.9394V12.4432C45.1062 12.5481 45.1596 12.653 45.2309 12.7403C45.3021 12.8102 45.409 12.8627 45.5337 12.8627H48.9182V22.2003C48.9182 22.3052 48.9717 22.4102 49.0429 22.4977C49.114 22.5675 49.2209 22.62 49.3458 22.62H51.0557C51.1626 22.62 51.2695 22.5852 51.3585 22.4977C51.4299 22.4278 51.4833 22.3229 51.4833 22.2003V12.8453H54.8678C54.9747 12.8453 55.0813 12.8102 55.1705 12.7229C55.2417 12.653 55.2951 12.5481 55.2951 12.4256V10.9217C55.2951 10.8693 55.2774 10.8168 55.2596 10.7644C55.2417 10.7119 55.2062 10.6594 55.1705 10.6246C55.1348 10.5896 55.0813 10.5545 55.0279 10.5371C54.9567 10.5371 54.9033 10.5197 54.8498 10.5197ZM68.9933 10.5197H67.3368C67.2833 10.5197 67.2299 10.5371 67.1765 10.5545C67.123 10.5721 67.0696 10.607 67.0339 10.642C66.9982 10.6771 66.9627 10.7295 66.9447 10.782C66.927 10.8345 66.9092 10.8869 66.9092 10.9394V15.3633H62.1709V10.9394C62.1709 10.8345 62.1175 10.7295 62.0463 10.642C61.9751 10.5721 61.8503 10.5197 61.7434 10.5197H60.0512C59.9443 10.5197 59.8374 10.5545 59.7484 10.642C59.6773 10.7119 59.6238 10.8168 59.6238 10.9394V22.2003C59.6238 22.3052 59.6593 22.4102 59.7484 22.4977C59.8196 22.5675 59.9265 22.62 60.0512 22.62H61.7434C61.8503 22.62 61.9572 22.5852 62.0463 22.4977C62.1175 22.4278 62.1709 22.3229 62.1709 22.2003V17.7239H66.9092V22.1829C66.9092 22.2354 66.927 22.2878 66.9447 22.3403C66.9627 22.3927 66.9982 22.4452 67.0339 22.4803C67.0696 22.5151 67.123 22.5501 67.1765 22.5675C67.2299 22.5852 67.2833 22.6026 67.3368 22.6026H69.0111C69.0645 22.6026 69.118 22.5852 69.1714 22.5675C69.2248 22.5501 69.2783 22.5151 69.314 22.4803C69.3495 22.4452 69.3852 22.3927 69.4029 22.3403C69.4209 22.2878 69.4386 22.2354 69.4386 22.1829V10.9217C69.4386 10.8168 69.3852 10.7119 69.314 10.642C69.2248 10.5721 69.118 10.5197 68.9933 10.5197ZM83.4395 20.277H77.5257V17.7239H83.1368C83.1903 17.7239 83.2437 17.7065 83.2972 17.6889C83.3506 17.6715 83.4041 17.6364 83.4395 17.6016C83.4752 17.5665 83.5109 17.5141 83.5287 17.4616C83.5464 17.4092 83.5644 17.3567 83.5644 17.3042V15.783C83.5644 15.7305 83.5464 15.6781 83.5287 15.6256C83.5109 15.5731 83.4752 15.5207 83.4395 15.4856C83.4041 15.4508 83.3506 15.4158 83.2972 15.3983C83.2437 15.3807 83.1903 15.3633 83.1368 15.3633H77.5257V12.8627H83.3861C83.493 12.8627 83.5999 12.8102 83.689 12.7403C83.7602 12.6705 83.8136 12.5481 83.8136 12.4432V10.9394C83.8136 10.8869 83.7959 10.8345 83.7779 10.782C83.7602 10.7295 83.7245 10.6771 83.689 10.642C83.6533 10.607 83.5999 10.5721 83.5464 10.5545C83.493 10.5371 83.4395 10.5197 83.3861 10.5197H75.4594C75.3525 10.5197 75.2456 10.5721 75.1567 10.642C75.0852 10.7119 75.0318 10.8168 75.0318 10.9394V22.2003C75.0318 22.3052 75.0675 22.4102 75.1567 22.4977C75.2278 22.5675 75.3347 22.62 75.4594 22.62H83.4575C83.5644 22.62 83.6711 22.5675 83.7602 22.4977C83.8314 22.4278 83.8848 22.3229 83.8848 22.2003V20.6791C83.8848 20.6266 83.8671 20.5742 83.8494 20.5217C83.8314 20.4692 83.7959 20.4168 83.7602 20.3819C83.7245 20.3469 83.6711 20.3118 83.6178 20.2944C83.5644 20.2594 83.493 20.2594 83.4395 20.277ZM98.2419 10.5197H96.5499C96.4429 10.5197 96.3359 10.5545 96.2469 10.642C96.1759 10.7119 96.1219 10.8168 96.1219 10.9394V18.808C96.1219 20.0321 94.9109 20.4692 93.7709 20.4692C92.1322 20.4692 91.3128 19.9098 91.3128 18.808V10.9217C91.3128 10.8168 91.2774 10.7119 91.1882 10.6246C91.117 10.5545 91.0101 10.502 90.8853 10.502H89.1933C89.0864 10.502 88.9795 10.5371 88.8904 10.6246C88.8192 10.6945 88.7657 10.7994 88.7657 10.9217V18.8955C88.7657 21.3611 90.5292 22.7249 93.7179 22.7249C96.7989 22.7249 98.6519 21.3261 98.6519 19.0005V10.9217C98.6519 10.8168 98.5989 10.7119 98.5269 10.642C98.4559 10.5721 98.3489 10.5197 98.2419 10.5197ZM115.77 10.5197H113.49C113.401 10.5197 113.312 10.5371 113.241 10.5896C113.169 10.642 113.116 10.7119 113.081 10.782L110.123 18.8257L107.238 10.782C107.202 10.6945 107.149 10.6246 107.078 10.5721C107.006 10.5197 106.917 10.502 106.828 10.502H104.494C104.388 10.502 104.281 10.5545 104.192 10.6246C104.121 10.6945 104.067 10.7994 104.067 10.9217V22.1829C104.067 22.2878 104.121 22.3927 104.192 22.4803C104.263 22.5501 104.37 22.6026 104.494 22.6026H106.08C106.187 22.6026 106.294 22.5501 106.383 22.4803C106.454 22.4102 106.507 22.3052 106.507 22.1829V15.9404L108.805 22.3229C108.841 22.4102 108.894 22.4803 108.966 22.5327C109.037 22.5852 109.126 22.6026 109.215 22.6026H110.978C111.068 22.6026 111.157 22.5675 111.228 22.5327C111.299 22.4803 111.353 22.4102 111.388 22.3403L113.757 15.9053V22.2003C113.757 22.3052 113.811 22.4102 113.882 22.4977C113.953 22.5675 114.078 22.62 114.185 22.62H115.77C115.877 22.62 115.984 22.5675 116.073 22.4977C116.144 22.4278 116.198 22.3229 116.198 22.2003V10.9217C116.198 10.8168 116.144 10.7119 116.073 10.642C115.984 10.5721 115.877 10.5197 115.77 10.5197Z" fill="white"></path><path d="M22.6487 22.084C22.7635 21.9569 22.9038 21.8424 23.0695 21.7661C23.2352 21.6898 23.401 21.6389 23.5794 21.6389L24.3698 17.2005C24.2806 17.1623 24.2041 17.1115 24.1276 17.0607L20.6855 20.1C20.7875 20.2908 20.8511 20.5071 20.8511 20.736C20.8511 20.8505 20.8385 20.9776 20.8002 21.0921L22.6487 22.084ZM30.604 25.5051L25.6957 17.0352C25.4917 17.2005 25.2367 17.2894 24.9691 17.3023L24.1659 21.7406C24.3827 21.8297 24.5739 21.9823 24.7267 22.1858C24.867 22.3766 24.9563 22.6055 24.9818 22.8471C25.0074 23.0887 24.9563 23.3303 24.8544 23.5466C24.7523 23.7627 24.5866 23.9535 24.3827 24.0806C24.1786 24.2079 23.9492 24.2842 23.7069 24.2969C23.4647 24.3096 23.2225 24.2587 23.0185 24.1443C22.8017 24.0298 22.6233 23.8645 22.5086 23.6482C22.381 23.4448 22.3173 23.2032 22.3173 22.9616C22.3173 22.8471 22.33 22.72 22.3683 22.6055L20.5071 21.6008C20.2776 21.8551 19.9716 22.0205 19.6273 22.0458L19.1174 25.8103C19.4107 25.912 19.6529 26.1156 19.8059 26.3825C19.9589 26.6496 20.0225 26.9549 19.9716 27.2601H29.5841C29.7881 27.2601 29.992 27.2093 30.1706 27.1075C30.349 27.0057 30.502 26.8531 30.604 26.6751C30.7059 26.497 30.757 26.2935 30.757 26.0901C30.757 25.8866 30.7059 25.683 30.604 25.5051ZM15.7773 15.5981C15.637 15.3819 15.5605 15.1275 15.5605 14.8732C15.5605 14.6315 15.6243 14.3899 15.7517 14.1864L11.124 9.72257C10.9837 9.81157 10.8307 9.87507 10.665 9.91317L10.3207 20.6215C10.4482 20.6597 10.5629 20.7105 10.6777 20.7742L15.7773 15.5981ZM11.7487 8.59077C11.7487 8.83237 11.6849 9.07397 11.5574 9.27737L16.1852 13.7414C16.402 13.6014 16.6569 13.5251 16.9119 13.5251C17.2433 13.5251 17.562 13.6522 17.817 13.8685C18.0592 14.0975 18.2122 14.4025 18.2505 14.7333L23.6559 15.4709C23.7197 15.3056 23.8216 15.153 23.9492 15.0257C24.0767 14.8986 24.2168 14.7969 24.3827 14.7206L16.7334 1.51967C16.6313 1.34167 16.4785 1.18907 16.2999 1.08727C16.1214 0.98557 15.9174 0.93457 15.7135 0.93457C15.5095 0.93457 15.3056 0.98557 15.127 1.08727C14.9485 1.18907 14.7956 1.34167 14.6936 1.51967L11.2132 7.52237C11.3789 7.64947 11.5192 7.80207 11.6084 7.99287C11.6976 8.18367 11.7487 8.38717 11.7487 8.59077ZM18.2505 21.1811L11.3279 22.0458C11.3152 22.135 11.3024 22.2239 11.277 22.3129L17.7023 26.1409C17.9189 25.912 18.2249 25.7722 18.5436 25.734L19.0536 21.9695C18.8752 21.906 18.7095 21.8042 18.5819 21.6644C18.4162 21.5245 18.3141 21.3718 18.2505 21.1811ZM16.9119 16.2086C16.6696 16.2086 16.4274 16.1449 16.2107 16.0178L11.124 21.1937C11.1749 21.27 11.2132 21.3592 11.2514 21.4482L18.174 20.5834C18.1995 20.4053 18.2505 20.2273 18.3397 20.0619C18.4289 19.8966 18.5565 19.7694 18.6966 19.655L17.1541 16.1831C17.0903 16.2086 17.0011 16.2086 16.9119 16.2086ZM10.9454 22.8471C10.8053 22.9997 10.6267 23.1142 10.4228 23.1777C10.2188 23.2413 10.0147 23.2668 9.81082 23.2413C9.60682 23.2159 9.40292 23.1395 9.23702 23.0124C9.05862 22.8979 8.91832 22.7326 8.81652 22.5545C8.71442 22.3766 8.66352 22.1603 8.65062 21.9569C8.63792 21.7534 8.68892 21.5371 8.77822 21.3464C8.86742 21.1556 8.99482 20.9903 9.16072 20.8631C9.32642 20.736 9.51762 20.6469 9.72162 20.6087L10.0658 9.90057C10.002 9.88787 9.95112 9.86237 9.88732 9.83687L0.822922 25.4924C0.721022 25.6704 0.669922 25.8738 0.669922 26.0774C0.669922 26.2809 0.721022 26.4843 0.822922 26.6624C0.924972 26.8404 1.07797 26.993 1.25636 27.0948C1.43491 27.1965 1.63886 27.2474 1.84281 27.2474H17.3198C17.3071 27.1838 17.3071 27.1201 17.3071 27.0438C17.3071 26.904 17.3325 26.7641 17.3707 26.6369L10.9454 22.8471ZM19.4999 19.4134C19.7803 19.4134 20.0481 19.4897 20.2776 19.655L23.7197 16.6154C23.6304 16.4628 23.5794 16.2849 23.5667 16.1068L18.1613 15.3691C18.0719 15.5981 17.9189 15.8015 17.715 15.9541L19.2577 19.426C19.3342 19.4134 19.4107 19.4007 19.4999 19.4134Z" fill="white"></path></g><defs><clipPath id="clip0_353_1017"><rect width="116" height="28" fill="white" transform="translate(0.669922)"></rect></clipPath></defs></svg> 