<?xml version="1.0" encoding="UTF-8"?> <svg xmlns="http://www.w3.org/2000/svg" width="121" height="30" viewBox="0 0 121 30" fill="none"><g clip-path="url(#clip0_353_955)"><mask id="mask0_353_955" style="mask-type:alpha" maskUnits="userSpaceOnUse" x="0" y="0" width="30" height="27"><path d="M8.60003 10.9706L8.39251 11.6598C8.14349 12.4999 7.39643 13.0814 6.52486 13.0814C5.21751 13.0814 4.28369 11.7675 4.65721 10.4751L4.86473 9.78587C5.11375 8.94583 5.86081 8.36426 6.73238 8.36426C8.03973 8.36426 8.97355 9.67817 8.60003 10.9706Z" fill="black"></path><path d="M29.2474 10.7325C29.2474 16.2036 24.9726 20.6407 19.7016 20.6407H12.4593L11.3595 25.5949C11.2557 26.0903 10.8199 26.4349 10.3427 26.4349H9.84461C8.18448 26.4349 6.93939 24.8194 7.31292 23.1394L7.87321 20.6407L8.62027 17.2375C8.78628 16.4405 9.47109 15.8805 10.2389 15.8805H16.8794C17.4812 15.8805 18.0208 15.4927 18.2075 14.9112C18.249 14.7604 18.2698 14.6096 18.2698 14.4804C18.2698 13.7265 17.6887 13.0803 16.9209 13.0803H12.3763C11.2765 13.0803 10.3842 12.2618 10.1767 11.2494C10.1144 10.9263 10.0936 10.5817 10.1767 10.2371V10.2155V10.1724C10.4257 9.09546 11.3387 8.34156 12.3971 8.34156H18.5603C19.1413 8.34156 19.7016 7.97539 19.8884 7.39382C19.9299 7.24305 19.9714 7.09228 19.9714 6.91995C19.9714 6.16607 19.3904 5.51987 18.6226 5.51987H2.62306C1.08743 5.56294 -0.0124053 4.01209 0.444131 2.50431C0.734655 1.49195 1.62697 0.824219 2.62306 0.824219H19.7016C24.9726 0.824219 29.2474 5.2614 29.2474 10.7325Z" fill="black"></path></mask><g mask="url(#mask0_353_955)"><path d="M-4.80176 34.9715V0.112306L32.209 0.112305V34.9715H-4.80176Z" fill="url(#paint0_radial_353_955)"></path></g><path d="M42.8558 16.1373V26.4369H38.8838V2.41851C38.8838 1.29265 39.7754 0.375283 40.8698 0.375283C41.9639 0.375283 42.8558 1.29265 42.8558 2.41851V2.75209C44.0716 1.08416 46.0979 0 48.4894 0C52.8664 0 57.0409 3.37757 57.0409 9.29876C57.0409 15.1783 52.7044 18.5558 48.5299 18.5558C46.1386 18.5975 44.0716 17.7219 42.8558 16.1373ZM53.1096 9.25706C53.1096 6.17139 50.8399 3.75287 47.8812 3.75287C44.8416 3.75287 42.6531 6.25476 42.7341 9.38216C42.8151 12.4262 45.247 14.9698 48.2056 14.803C50.9616 14.6362 53.1096 12.2593 53.1096 9.25706Z" fill="white"></path><path d="M58.7021 2.25387V18.2244H62.7551V2.25387C62.7551 1.12801 61.8635 0.168945 60.7286 0.168945C59.5938 0.168946 58.7021 1.12801 58.7021 2.25387Z" fill="white"></path><path d="M64.5 9.34046C64.5 4.12815 68.4313 0 73.4974 0C78.6448 0 82.4141 3.91965 82.4141 9.17366V10.7165H68.3098C68.8772 13.2601 70.782 14.9281 73.6596 14.9281C75.9294 14.9281 77.6314 13.7188 78.4826 11.8007L81.7654 13.7605C80.2659 16.6794 77.5909 18.5975 73.6596 18.5975C68.1883 18.5975 64.5 14.5111 64.5 9.34046ZM68.5125 7.29724H78.3611C77.7531 4.87873 75.9699 3.62777 73.4974 3.62777C71.1062 3.62777 69.2419 5.12891 68.5125 7.29724Z" fill="white"></path><path d="M84.1943 0.372645H88.1663V2.58266C89.3417 1.03982 91.0845 0.0390625 93.354 0.0390625C97.7312 0.0390625 100.244 2.83286 100.244 7.66989V16.1764C100.244 17.3439 99.3523 18.2613 98.2176 18.2613C97.0828 18.2613 96.1911 17.3439 96.1911 16.1764V8.08686C96.1911 5.29307 94.8941 3.58344 92.2598 3.58344C89.9901 3.58344 88.2068 5.29307 88.2068 8.42046V18.2196H84.1943V0.372645Z" fill="white"></path><path d="M101.988 9.33782C101.988 3.41664 106.203 0.0390625 110.58 0.0390625C112.85 0.0390625 114.877 0.998127 116.174 2.54098V2.45758C116.174 1.33171 117.065 0.414347 118.16 0.414347C119.254 0.414347 120.146 1.33171 120.146 2.45758V18.2613H116.133V15.9262C114.877 17.5941 112.769 18.5949 110.499 18.5949C106.365 18.5949 101.988 15.1756 101.988 9.33782ZM116.376 9.62972C116.579 6.41893 114.309 3.79194 111.188 3.79194C108.23 3.79194 105.92 6.21043 105.92 9.29612C105.92 12.3401 108.149 14.7586 111.026 14.842C113.904 14.8837 116.214 12.5486 116.376 9.62972Z" fill="white"></path><path d="M76.9135 24.3486V25.0984H74.6014V26.7516H76.4042V27.5014H74.6014V29.9528H73.708V24.3486H76.9135Z" fill="white"></path><path d="M80.8748 24.3486V29.9528H79.9814V24.3486H80.8748Z" fill="white"></path><path d="M88.7625 29.9532H87.8689L85.1807 25.7682V29.9532H84.2871V24.3408H85.1807L87.8689 28.5179V24.3408H88.7625V29.9532Z" fill="white"></path><path d="M95.4589 28.8083H93.178L92.7861 29.9532H91.8535L93.805 24.3408H94.8396L96.7913 29.9532H95.8508L95.4589 28.8083ZM95.2079 28.0583L94.3223 25.4536L93.4289 28.0583H95.2079Z" fill="white"></path><path d="M104.355 29.9532H103.462L100.773 25.7682V29.9532H99.8799V24.3408H100.773L103.462 28.5179V24.3408H104.355V29.9532Z" fill="white"></path><path d="M107.47 27.139C107.47 26.5907 107.593 26.0989 107.838 25.6634C108.089 25.228 108.426 24.8892 108.849 24.6473C109.278 24.4 109.745 24.2764 110.252 24.2764C110.832 24.2764 111.347 24.4242 111.796 24.7199C112.251 25.0101 112.58 25.4241 112.784 25.9617H111.71C111.569 25.666 111.373 25.4457 111.122 25.3004C110.871 25.1554 110.581 25.0827 110.252 25.0827C109.892 25.0827 109.57 25.1661 109.288 25.3328C109.006 25.4993 108.784 25.7387 108.622 26.0504C108.465 26.3622 108.387 26.725 108.387 27.139C108.387 27.553 108.465 27.9158 108.622 28.2276C108.784 28.5394 109.006 28.7813 109.288 28.9534C109.57 29.1201 109.892 29.2034 110.252 29.2034C110.581 29.2034 110.871 29.1308 111.122 28.9857C111.373 28.8404 111.569 28.6202 111.71 28.3244H112.784C112.58 28.8621 112.251 29.2759 111.796 29.5662C111.347 29.8566 110.832 30.0017 110.252 30.0017C109.74 30.0017 109.272 29.8808 108.849 29.6389C108.426 29.3916 108.089 29.0502 107.838 28.6148C107.593 28.1792 107.47 27.6874 107.47 27.139Z" fill="white"></path><path d="M116.963 25.0908V26.7359H118.844V27.4857H116.963V29.2034H119.079V29.9532H116.069V24.3408H119.079V25.0908H116.963Z" fill="white"></path></g><defs><radialGradient id="paint0_radial_353_955" cx="0" cy="0" r="1" gradientUnits="userSpaceOnUse" gradientTransform="translate(1.56065 19.4168) rotate(-36.4481) scale(26.3344 24.1749)"><stop stop-color="#85EAFF"></stop><stop offset="0.706211" stop-color="#DADADA"></stop><stop offset="1" stop-color="#FFCB80"></stop></radialGradient><clipPath id="clip0_353_955"><rect width="120" height="30" fill="white" transform="translate(0.339844)"></rect></clipPath></defs></svg> 