<?xml version="1.0" encoding="UTF-8"?> <svg xmlns="http://www.w3.org/2000/svg" width="60" height="35" viewBox="0 0 60 35" fill="none"><path fill-rule="evenodd" clip-rule="evenodd" d="M17.3536 13.0816C17.3536 13.771 17.4309 14.33 17.5663 14.7399C17.721 15.1498 17.9143 15.597 18.185 16.0814C18.2817 16.2305 18.3204 16.3796 18.3204 16.51C18.3204 16.6963 18.2043 16.8826 17.953 17.069L16.7349 17.8515C16.5609 17.9633 16.3869 18.0192 16.2322 18.0192C16.0388 18.0192 15.8455 17.9261 15.6521 17.7584C15.3814 17.4789 15.1494 17.1808 14.9561 16.8826C14.7627 16.5659 14.5694 16.2119 14.3567 15.7833C12.8486 17.4975 10.9537 18.3546 8.67221 18.3546C7.04807 18.3546 5.75263 17.9074 4.80522 17.0131C3.8578 16.1187 3.37443 14.9262 3.37443 13.4356C3.37443 11.8519 3.95448 10.5662 5.13391 9.59732C6.31334 8.62842 7.87948 8.14398 9.87098 8.14398C10.5284 8.14398 11.2051 8.19987 11.9205 8.29304C12.6359 8.3862 13.3706 8.53526 14.144 8.70295V7.34278C14.144 5.9267 13.8346 4.93918 13.2353 4.36157C12.6165 3.78396 11.5725 3.50447 10.0837 3.50447C9.40694 3.50447 8.71088 3.579 7.99548 3.7467C7.28009 3.91439 6.58403 4.11935 5.90731 4.3802C5.59795 4.51063 5.36593 4.58516 5.23059 4.62243C5.09524 4.65969 4.99857 4.67832 4.92123 4.67832C4.65054 4.67832 4.51519 4.492 4.51519 4.10072V3.18772C4.51519 2.8896 4.55386 2.66601 4.65054 2.53558C4.74721 2.40515 4.92123 2.27473 5.19192 2.1443C5.86864 1.80891 6.68071 1.52943 7.62812 1.30583C8.57553 1.06361 9.58095 0.951816 10.6444 0.951816C12.9452 0.951816 14.6274 1.45489 15.7101 2.46105C16.7736 3.46721 17.3149 4.99508 17.3149 7.04466V13.0816H17.3536ZM9.50361 15.9137C10.1417 15.9137 10.7991 15.802 11.4951 15.5784C12.1912 15.3548 12.8099 14.9449 13.3319 14.3859C13.6413 14.0319 13.8733 13.6406 13.9893 13.1934C14.1053 12.7462 14.1827 12.2059 14.1827 11.5724V10.7898C13.622 10.6594 13.0226 10.5476 12.4039 10.473C11.7851 10.3985 11.1858 10.3612 10.5864 10.3612C9.29093 10.3612 8.34351 10.6035 7.70546 11.1066C7.06741 11.6096 6.75805 12.3177 6.75805 13.2493C6.75805 14.125 6.99007 14.7772 7.47344 15.2243C7.93748 15.6902 8.6142 15.9137 9.50361 15.9137Z" fill="white"></path><path d="M25.0296 17.9261C24.6816 17.9261 24.4495 17.8702 24.2949 17.7397C24.1402 17.6279 24.0048 17.3671 23.8888 17.0131L19.3451 2.61011C19.2291 2.23746 19.1711 1.99524 19.1711 1.86481C19.1711 1.56669 19.3258 1.399 19.6351 1.399H21.53C21.8973 1.399 22.1487 1.45489 22.284 1.58532C22.4387 1.69712 22.5547 1.95797 22.6707 2.31199L25.919 14.6467L28.9353 2.31199C29.0319 1.93934 29.1479 1.69712 29.3026 1.58532C29.4573 1.47353 29.728 1.399 30.076 1.399H31.6228C31.9902 1.399 32.2415 1.45489 32.3962 1.58532C32.5509 1.69712 32.6862 1.95797 32.7636 2.31199L35.8185 14.7958L39.1634 2.31199C39.2795 1.93934 39.4148 1.69712 39.5501 1.58532C39.7048 1.47353 39.9562 1.399 40.3042 1.399H42.1024C42.4117 1.399 42.5857 1.54806 42.5857 1.86481C42.5857 1.94437 42.5716 2.02393 42.5555 2.1151L42.5553 2.11632C42.5526 2.13151 42.5498 2.14703 42.5471 2.16293C42.5277 2.27473 42.4891 2.42379 42.4117 2.62874L37.752 17.0317C37.636 17.4044 37.5006 17.6466 37.346 17.7584C37.1913 17.8702 36.9399 17.9447 36.6112 17.9447H34.9484C34.5811 17.9447 34.3297 17.8888 34.175 17.7584C34.0203 17.6279 33.885 17.3857 33.8077 17.0131L30.8107 4.99508L27.8332 16.9944C27.7365 17.3671 27.6205 17.6093 27.4658 17.7397C27.3111 17.8702 27.0404 17.9261 26.6924 17.9261H25.0296Z" fill="white"></path><path d="M49.875 18.4291C48.8696 18.4291 47.8642 18.3173 46.8974 18.0938C45.9307 17.8702 45.1766 17.6279 44.6739 17.3485C44.3645 17.1808 44.1519 16.9944 44.0745 16.8267C43.9972 16.659 43.9585 16.4727 43.9585 16.305V15.3548C43.9585 14.9635 44.1132 14.7772 44.4032 14.7772C44.5192 14.7772 44.6352 14.7958 44.7513 14.8331C44.8262 14.8571 44.9253 14.8967 45.0381 14.9418C45.1 14.9666 45.1662 14.993 45.2346 15.0194C45.892 15.2989 46.6074 15.5225 47.3615 15.6715C48.1349 15.8206 48.8889 15.8951 49.6623 15.8951C50.8804 15.8951 51.8278 15.6902 52.4852 15.2802C53.1426 14.8703 53.4907 14.2741 53.4907 13.5101C53.4907 12.9884 53.3166 12.5599 52.9686 12.2059C52.6206 11.8519 51.9632 11.5351 51.0158 11.237L48.2122 10.3985C46.8008 9.96997 45.7567 9.33646 45.1186 8.498C44.4806 7.67816 44.1519 6.76517 44.1519 5.79628C44.1519 5.01371 44.3259 4.32431 44.6739 3.72807C45.0219 3.13182 45.486 2.61011 46.066 2.2002C46.6461 1.77165 47.3035 1.45489 48.0769 1.2313C48.8503 1.00771 49.6623 0.914551 50.5131 0.914551C50.9384 0.914551 51.3831 0.933184 51.8085 0.989081C52.2532 1.04498 52.6592 1.1195 53.0653 1.19403C53.452 1.2872 53.8193 1.38036 54.1674 1.49216C54.5154 1.60395 54.7861 1.71575 54.9794 1.82755C55.2501 1.97661 55.4435 2.12567 55.5595 2.29336C55.6755 2.44242 55.7335 2.64738 55.7335 2.90823V3.78396C55.7335 4.17525 55.5788 4.3802 55.2888 4.3802C55.1341 4.3802 54.8828 4.30567 54.5541 4.15661C53.452 3.67217 52.2145 3.42994 50.8418 3.42994C49.7397 3.42994 48.8696 3.59764 48.2702 3.95166C47.6708 4.30567 47.3615 4.84602 47.3615 5.60995C47.3615 6.13166 47.5548 6.57884 47.9415 6.93286C48.3282 7.28688 49.0436 7.6409 50.0684 7.95765L52.8139 8.79612C54.206 9.22466 55.2115 9.82091 55.8108 10.5848C56.4102 11.3488 56.7003 12.2245 56.7003 13.1934C56.7003 13.9946 56.5262 14.7213 56.1975 15.3548C55.8495 15.9883 55.3855 16.5473 54.7861 16.9944C54.1867 17.4602 53.4713 17.7956 52.6399 18.0379C51.7698 18.2987 50.8611 18.4291 49.875 18.4291Z" fill="white"></path><path d="M53.5293 27.4846C47.1681 32.0123 37.926 34.4159 29.9793 34.4159C18.8424 34.4159 8.80755 30.4471 1.22825 23.8512C0.628864 23.3295 1.17024 22.6215 1.88564 23.0314C10.0837 27.615 20.1958 30.3912 30.6561 30.3912C37.7133 30.3912 45.4666 28.9752 52.6012 26.0685C53.6647 25.6027 54.5734 26.7393 53.5293 27.4846Z" fill="white"></path><path d="M48.7343 24.3357C50.8031 24.0934 55.3661 23.5717 56.1782 24.5779C56.9903 25.5654 55.2695 29.7205 54.4961 31.5651C54.2641 32.1241 54.7668 32.3476 55.2888 31.9191C58.6918 29.1615 59.5812 23.404 58.8851 22.5656C58.1891 21.7457 52.2145 21.0377 48.5796 23.4972C48.0189 23.8885 48.1155 24.4102 48.7343 24.3357Z" fill="white"></path></svg> 