<?xml version="1.0" encoding="UTF-8"?> <svg xmlns="http://www.w3.org/2000/svg" width="145" height="34" viewBox="0 0 145 34" fill="none"><path fill-rule="evenodd" clip-rule="evenodd" d="M0 16.7065V33.2065H1.47266H2.94531V28.6258V24.045L4.58789 24.1106L6.23047 24.1761L6.29187 28.6913L6.35304 33.2065H7.70312H9.05321L9.11438 28.6913L9.17578 24.1761L10.8184 24.1106L12.4609 24.045V28.6258V33.2065H13.9336H15.4062V28.6327V24.0589L23.166 24.1175L30.9258 24.1761L30.9872 28.6913L31.0484 33.2065H32.4032H33.7578V27.2993V21.3921L18.4082 21.3348L3.05859 21.2775V19.7167V18.1559L20.1074 18.0988L37.1562 18.0415V25.6241V33.2065H38.6289H40.1016V25.6255V18.0444H41.6875H43.2734V25.6255V33.2065H44.7461H46.2188V16.7065V0.206543H44.7461H43.2734V4.77749V9.34843H41.6875H40.1016V4.77749V0.206543H38.6289H37.1562V4.7873V9.36806L35.5137 9.3025L33.8711 9.23695L33.8097 4.72175L33.7485 0.206543H32.3984H31.0484L30.9872 4.72175L30.9258 9.23695L23.166 9.29559L15.4062 9.35423V4.78039V0.206543H13.9336H12.4609V6.11377V12.021L27.8105 12.0783L43.1602 12.1356L43.2268 13.7535L43.2934 15.3716L26.2346 15.3143L9.17578 15.2572L9.1162 7.73188L9.05638 0.206543H7.70312H6.34987L6.29005 7.73188L6.23047 15.2572L4.58789 15.3228L2.94531 15.3883V7.79743V0.206543H1.47266H0V16.7065ZM57.0938 16.7065V21.166H58.3398H59.5859V19.4937V17.8214H63.4375H67.2891V19.4937V21.166H68.4219H69.5547V16.7065V12.2471H68.4219H67.2891V13.9194V15.5917H63.4375H59.5859V13.9194V12.2471H58.3398H57.0938V16.7065ZM72.2734 16.7065V21.166H73.4062H74.5391V19.4937V17.8214H78.3906H82.2422V19.4937V21.166H83.375H84.5078V16.7065V12.2471H78.3906H72.2734V16.7065ZM87.2266 16.7065V21.166H93.457H99.6875V19.9397V18.7133H94.7031H89.7188V16.5951V14.4768H94.7031H99.6875V13.3619V12.2471H93.457H87.2266V16.7065ZM102.406 16.7065V21.166H103.539H104.672V19.4937V17.8214H108.474H112.276L113.571 16.5328L114.867 15.2443V13.7457V12.2471H113.621H112.375V13.9194V15.5917H108.523H104.672V13.9194V12.2471H103.539H102.406V16.7065ZM117.359 16.7065V21.166H123.59H129.82V19.9397V18.7133H124.836C120.003 18.7133 119.852 18.6997 119.852 18.2674C119.852 17.835 120.003 17.8214 124.836 17.8214H129.82V16.7065V15.5917H124.836H119.852V15.0342V14.4768H124.836H129.82V13.3619V12.2471H123.59H117.359V16.7065ZM132.539 16.7065V21.166H133.672H134.805V18.2674C134.805 16.6731 134.853 15.3687 134.913 15.3687C134.972 15.3687 136.731 16.6706 138.821 18.2622C142.578 21.1227 142.635 21.1557 143.811 21.1609L145 21.166V16.7065V12.2471H143.754H142.508V15.0528C142.508 16.7647 142.422 17.8297 142.288 17.7842C142.168 17.7434 140.439 16.4809 138.447 14.9785C134.918 12.3175 134.795 12.2471 133.682 12.2471H132.539V16.7065ZM82.2422 15.0342V15.5917H78.3906H74.5391V15.0342V14.4768H78.3906H82.2422V15.0342ZM112.375 19.6052V21.166H113.621H114.867V19.6052V18.0444H113.621H112.375V19.6052Z" fill="white"></path></svg> 