<?xml version="1.0" encoding="UTF-8"?> <svg xmlns="http://www.w3.org/2000/svg" width="139" height="41" viewBox="0 0 139 41" fill="none"><path d="M2.74372 12.1968V14.7249L8.78334 14.1028H11.0128V18.1951L7.25888 19.3433L2.17285 20.5701L2.92792 23.0418L7.80206 21.169L11.0128 20.188V26.9055H8.78334L2.74372 26.2831V28.8112H21.1879V26.2831L15.1481 26.9055H12.9187V20.188L16.1134 21.1639L21.0039 23.0418L21.7586 20.5701L16.6865 19.347L12.9187 18.1951V14.1028H15.1481L21.1879 14.7249V12.1968H2.74372Z" fill="white"></path><path d="M69.5615 12.2354V28.8496H71.7729V20.9838H81.351V18.7991H71.7729V14.4464H82.5574V12.2354H69.5615Z" fill="white"></path><path d="M97.6071 22.5389C97.6071 22.7173 97.5583 26.905 93.3344 26.905C89.4033 26.905 89.0704 23.562 89.0619 22.5389V12.2354H86.8506V22.5389C86.8506 25.5452 88.5489 29.0556 93.3344 29.0556C98.1198 29.0556 99.8182 25.545 99.8182 22.5389V12.2354H97.6071V22.5389Z" fill="white"></path><path d="M118.795 17.487C118.795 14.8733 116.978 12.2354 112.917 12.2354H105.8V28.8493H108.011V22.7383H112.263L115.996 28.8493H118.661L114.769 22.512C115.817 22.2655 118.795 21.2344 118.795 17.487ZM108.011 20.5278V14.4258H112.917C114.288 14.4258 116.586 14.8236 116.586 17.487C116.586 20.0001 114.591 20.5278 112.917 20.5278H108.011Z" fill="white"></path><path d="M60.4513 12.2354V25.439H59.9686L52.1657 12.2354H49.3047V28.8496H51.5156V16.0636H51.9981L59.4477 28.8496H62.6619V12.2354H60.4513Z" fill="white"></path><path d="M31.4414 12.2354V14.2862H36.3513V26.7991H31.4414V28.8496H43.4719V26.7991H38.5622V14.2862H43.4719V12.2354H31.4414Z" fill="white"></path><path d="M131.456 12.2212H128.807L122.771 28.8493H125.094L126.914 23.8142H133.345L135.167 28.8493H137.491L131.456 12.2212ZM127.691 21.6631L129.864 15.6483H130.392L132.568 21.6631H127.691Z" fill="white"></path></svg> 