<?xml version="1.0" encoding="UTF-8"?> <svg xmlns="http://www.w3.org/2000/svg" width="178" height="54" viewBox="0 0 178 54" fill="none"><path fill-rule="evenodd" clip-rule="evenodd" d="M28.2587 1.02138C27.7374 1.35152 27.0977 1.72701 26.837 1.8555C26.5764 1.98376 26.1461 2.21794 25.8809 2.37564C25.6158 2.53334 24.4221 3.24324 23.2285 3.95338C22.0348 4.66353 21.1159 5.33804 21.1865 5.45252C21.2571 5.56676 21.5443 5.76531 21.8249 5.89356C22.1054 6.02158 22.5504 6.25552 22.8137 6.41322C23.0769 6.57093 24.0098 7.12289 24.8869 7.63994L26.4816 8.57998V11.8557C26.4816 13.8478 26.5731 15.1313 26.715 15.1313C26.8434 15.1313 27.4683 14.8107 28.1037 14.4188C28.739 14.0269 29.3804 13.7063 29.529 13.7063C29.6773 13.7063 29.7989 13.5994 29.7989 13.4688C29.7989 13.3382 29.9512 13.2313 30.1375 13.2313C30.3235 13.2313 30.6171 13.0978 30.7898 12.9344C31.1862 12.5596 32.7934 11.6196 33.6493 11.2619C34.0075 11.112 34.3009 10.9061 34.3009 10.8042C34.3009 10.7021 34.4495 10.6187 34.631 10.6187C34.8125 10.6187 35.0257 10.4496 35.1048 10.243C35.3096 9.70837 35.2766 3.89781 35.0674 3.61233C34.9717 3.4817 34.68 3.26011 34.4194 3.11998C32.3788 2.02247 31.7975 1.69685 31.6937 1.59353C31.4739 1.37432 29.5887 0.406009 29.3965 0.413372C29.292 0.417409 28.78 0.691015 28.2587 1.02138ZM17.4819 7.2319C17.2887 7.30791 16.9878 7.51311 16.8132 7.68815C16.6388 7.86296 16.3526 8.00617 16.1772 8.00617C16.0019 8.00617 15.823 8.08621 15.7794 8.1843C15.7047 8.35269 14.2006 9.22457 13.0367 9.77416C12.7446 9.91215 12.5045 10.105 12.5036 10.2031C12.5026 10.3012 12.3818 10.3812 12.2356 10.3812C12.0892 10.3812 11.179 10.8622 10.213 11.45C9.24721 12.0378 8.41197 12.5188 8.35747 12.5188C8.30273 12.5188 7.02227 13.2669 5.51173 14.1813C4.00118 15.0957 2.7148 15.8438 2.65295 15.8438C2.59111 15.8438 2.11603 16.1125 1.59735 16.4407L0.654297 17.0373L0.654534 23.6252L0.654771 30.2129L1.88453 30.9254C2.56102 31.3173 3.49388 31.8517 3.95759 32.1129C4.64568 32.5003 7.15022 33.9705 9.21877 35.2005C9.43819 35.3311 10.1069 35.6974 10.7044 36.0144C11.302 36.3315 11.7908 36.7065 11.7908 36.8476C11.7908 37.1122 9.81565 38.4068 9.41165 38.4068C9.28678 38.4068 9.18442 38.5066 9.18442 38.6284C9.18442 38.7503 8.95624 38.9224 8.67735 39.011C8.3987 39.0999 6.95426 39.9086 5.46789 40.8085C3.98152 41.7081 2.7148 42.4444 2.65295 42.4444C2.59111 42.4444 2.11603 42.713 1.59735 43.0413L0.654297 43.6379L0.658799 46.9007L0.6633 50.1633L2.13972 51.0269C2.95174 51.5019 4.14928 52.1831 4.80088 52.5405C5.45249 52.8982 6.07945 53.277 6.19414 53.3825C6.30882 53.4879 6.81328 53.3143 7.3149 52.9968C7.81675 52.6794 8.29468 52.4196 8.37737 52.4196C8.46007 52.4196 9.29744 51.9387 10.2384 51.3508C11.1793 50.763 12.0645 50.2821 12.2057 50.2821C12.3467 50.2821 12.4977 50.2018 12.5413 50.1039C12.5846 50.0061 12.9668 49.7389 13.3902 49.5102C15.3202 48.4685 15.6995 48.2445 16.0028 47.9664C16.181 47.803 16.4239 47.6695 16.5426 47.6695C16.6613 47.6695 17.4266 47.2617 18.2434 46.7634C19.0604 46.2651 19.8885 45.7849 20.084 45.6961C20.2795 45.6075 20.5994 45.4298 20.7949 45.3014C21.4394 44.8776 25.408 42.5377 25.7708 42.3675C25.9662 42.2758 26.6593 41.8749 27.3109 41.4768C27.9625 41.0785 28.789 40.6292 29.1473 40.4779C29.5055 40.3266 29.7989 40.1192 29.7989 40.0173C29.7989 39.9152 29.9512 39.8318 30.1375 39.8318C30.3235 39.8318 30.6216 39.6984 30.7997 39.535C31.103 39.2569 31.4824 39.0329 33.4123 37.9912C33.8358 37.7625 34.2179 37.4953 34.2613 37.3974C34.3049 37.2996 34.48 37.2193 34.6506 37.2193C34.8215 37.2193 35.0257 37.0502 35.1048 36.8436C35.3112 36.3047 35.2759 23.8473 35.0672 23.5628C34.9712 23.4321 34.5198 23.1281 34.0637 22.8873C32.6354 22.1327 31.8172 21.6672 31.6945 21.5392C31.6293 21.471 31.3094 21.2877 30.9836 21.1314C30.6578 20.9754 29.8581 20.5246 29.2065 20.1301C28.5549 19.7356 27.8618 19.338 27.6663 19.2468C27.4709 19.1556 26.6712 18.6929 25.8892 18.2189C25.1073 17.7448 24.2811 17.2869 24.0529 17.2017C23.684 17.0634 23.6382 16.6642 23.6382 13.5892C23.6382 10.2318 23.6228 10.1252 23.1051 9.89671C22.8118 9.76751 22.2521 9.45068 21.8611 9.19275C21.4702 8.93482 20.9903 8.64957 20.7949 8.55861C20.5994 8.46764 19.9478 8.09262 19.3469 7.72473C18.2204 7.03525 18.0773 6.99749 17.4819 7.2319ZM23.6382 23.7798V30.2908L22.5127 30.9798C21.8936 31.3589 21.2273 31.7431 21.0318 31.8341C20.8363 31.9251 20.3565 32.2063 19.9655 32.459C19.5746 32.7117 18.7749 33.1646 18.1884 33.4658C17.602 33.7667 16.9812 34.1467 16.8092 34.3099C16.6369 34.4733 16.3436 34.6067 16.1576 34.6067C15.9713 34.6067 15.819 34.6901 15.819 34.7922C15.819 34.8941 15.5259 35.1062 15.1673 35.2634C14.8088 35.4207 14.0359 35.8235 13.4495 36.1586L12.3832 36.7678L12.3166 30.5217C12.2801 27.0861 12.3022 24.0615 12.3659 23.8003C12.4297 23.539 12.6917 23.2184 12.9483 23.0877C14.9377 22.0748 15.7434 21.6221 16.0135 21.3658C16.1858 21.2027 16.4791 21.069 16.6651 21.069C16.8513 21.069 17.0037 20.9856 17.0037 20.8835C17.0037 20.7816 17.2968 20.5757 17.6553 20.4258C18.5112 20.0681 20.1184 19.1281 20.5148 18.7533C20.6875 18.5901 20.9543 18.4502 21.1079 18.4426C21.2616 18.4353 21.7604 18.1742 22.2165 17.8626C22.6727 17.551 23.1793 17.29 23.342 17.2826C23.5721 17.272 23.6382 18.7222 23.6382 23.7798ZM49.7094 19.6385C48.44 20.142 47.1619 21.5437 46.9527 22.6621C46.5203 24.9731 47.547 26.8479 49.6743 27.6319C50.2761 27.8535 50.8699 28.1243 50.9939 28.2333C51.1175 28.3423 51.4151 28.4316 51.6549 28.4316C52.3274 28.4316 53.9216 29.327 54.2097 29.8664C54.486 30.3839 54.3095 31.289 53.8763 31.575C53.7311 31.6709 53.1754 31.751 52.6418 31.7531C51.6962 31.7567 50.8872 31.2413 50.8872 30.6352C50.8872 30.2357 50.2622 30.0941 48.4983 30.0941C46.8994 30.0941 46.8591 30.1089 46.8591 30.6998C46.8591 31.408 47.447 32.6499 48.0607 33.238C49.1795 34.3101 50.4612 34.7238 52.6643 34.7248C55.2077 34.7257 56.2731 34.2821 57.4625 32.7267C58.1359 31.8462 58.2326 31.5391 58.2326 30.2818C58.2326 28.8907 57.5891 27.2441 57.0455 27.2441C56.9351 27.2441 56.7022 27.1106 56.528 26.9472C56.1133 26.5584 54.8729 25.9981 53.2652 25.4735C51.2941 24.8301 50.8872 24.4871 50.8872 23.4687C50.8872 22.7194 50.9863 22.5607 51.5981 22.3292C52.4947 21.99 53.5754 22.3531 53.9922 23.1341C54.2616 23.6385 54.44 23.6815 56.2586 23.6815C57.3443 23.6815 58.2326 23.5834 58.2326 23.4637C58.2326 22.8968 57.2678 21.1229 56.6605 20.5735C55.1407 19.1988 51.9125 18.7644 49.7094 19.6385ZM171.494 21.069V22.494H170.783H170.072V24.0221C170.072 25.5124 170.088 25.5519 170.724 25.6252L171.375 25.7003L171.494 28.9066C171.591 31.5441 171.696 32.2557 172.086 32.9174C172.798 34.1256 173.893 34.6067 175.933 34.6067H177.654V33.063V31.5192H176.735C176.23 31.5192 175.693 31.37 175.543 31.1879C175.362 30.9698 175.291 29.9759 175.336 28.2784L175.403 25.7003L176.529 25.6279L177.654 25.5554V24.0247V22.494H176.47H175.285V21.069V19.6439H173.389H171.494V21.069ZM60.1739 27.4027C60.2282 31.0655 60.3218 32.3364 60.5429 32.4101C60.7059 32.4644 60.839 32.6594 60.839 32.8437C60.839 33.3895 62.6922 34.5714 63.812 34.7395C64.9946 34.9174 67.0748 34.4946 67.4909 33.9921C67.8956 33.5033 68.4214 33.5821 68.4214 34.1317C68.4214 34.5671 68.5794 34.6067 70.3169 34.6067H72.2125V28.5504V22.494H70.3409H68.4692L68.3861 26.5522L68.3029 30.6105L67.638 31.1836C66.6528 32.0329 65.3529 31.9695 64.4115 31.0259L63.6824 30.2951V26.3945V22.494H61.8918H60.1012L60.1739 27.4027ZM74.3451 31.5292V40.5643L76.1814 40.495L78.0178 40.4256L78.0834 36.9231L78.1488 33.4209L79.053 34.0206C80.7028 35.115 83.1349 35.0373 84.843 33.8358C86.5555 32.6312 87.4303 29.8013 86.9305 27.0831C86.5979 25.2723 85.9688 24.2757 84.4739 23.1903C83.6273 22.5754 83.3176 22.494 81.8283 22.494C80.4199 22.494 79.9982 22.5918 79.27 23.0877C78.7907 23.4143 78.3393 23.6815 78.2673 23.6815C78.1952 23.6815 78.1362 23.4143 78.1362 23.0877C78.1362 22.504 78.1047 22.494 76.2406 22.494H74.3451V31.5292ZM91.1684 22.9248C90.0883 23.4461 88.851 24.5655 88.6539 25.1992C88.5681 25.4747 88.3792 25.7765 88.2337 25.8699C88.0667 25.977 87.9724 26.9368 87.9774 28.4824C87.9847 30.7126 88.0399 31.0107 88.6126 31.9039C90.2255 34.4201 92.6618 35.3126 95.8824 34.5676C96.6971 34.379 97.3847 34.0044 98.0391 33.3929C98.9708 32.5222 99.7712 31.1168 99.5449 30.7497C99.4836 30.6504 98.6587 30.5692 97.7117 30.5692C96.1815 30.5692 95.9279 30.6352 95.4334 31.1629C94.756 31.8859 93.0362 32.0004 92.4021 31.3648C92.0503 31.0119 91.4053 29.9419 91.4053 29.7108C91.4053 29.6605 93.3246 29.6191 95.6704 29.6191H99.9354V28.0827C99.9354 25.7758 98.8469 23.9874 96.8084 22.945C95.6419 22.3486 92.3858 22.337 91.1684 22.9248ZM101.357 28.5504V34.6067H103.253H105.148V31.6676C105.148 30.0512 105.211 28.4212 105.287 28.0457C105.476 27.1189 106.293 26.5674 107.799 26.3511L109.058 26.1701L109.127 24.332L109.196 22.494L108.416 22.5023C107.926 22.5078 107.197 22.8134 106.451 23.3269L105.267 24.143L105.193 23.3184L105.12 22.494H103.238H101.357V28.5504ZM112.158 22.9312C110.859 23.6718 109.887 25.0564 109.887 26.166C109.887 26.7964 110.697 28.4316 111.009 28.4316C111.174 28.4316 111.309 28.5323 111.309 28.6553C111.309 28.7786 112.082 29.114 113.027 29.4009C116.077 30.3269 116.398 30.4791 116.481 31.0356C116.566 31.6004 115.953 32.2117 115.289 32.2241C114.608 32.2369 113.746 31.7334 113.427 31.1368C113.153 30.6233 112.97 30.5692 111.506 30.5692C110.383 30.5692 109.879 30.6601 109.86 30.866C109.695 32.6618 111.237 34.1906 113.728 34.6998C115.829 35.1295 117.875 34.6882 119.084 33.5444C119.917 32.7573 119.958 32.6461 119.958 31.1748C119.958 29.741 119.903 29.5814 119.2 28.937C118.527 28.3207 116.772 27.6091 114.775 27.1422C114.071 26.9776 113.441 26.4902 113.441 26.1102C113.441 25.7008 114.307 25.1065 114.905 25.1065C115.537 25.1065 116.522 25.8107 116.522 26.2625C116.522 26.4394 117.14 26.5316 118.324 26.5316H120.127L119.965 25.8784C119.695 24.7935 118.886 23.6841 117.92 23.0725C117.121 22.5671 116.743 22.4968 114.927 22.5156C113.46 22.531 112.646 22.6531 112.158 22.9312ZM124.372 22.968C123.189 23.6297 122.564 24.295 121.877 25.6224C121.357 26.6263 121.261 27.1239 121.261 28.7957C121.261 29.8863 121.355 30.8373 121.471 30.9093C121.587 30.981 121.753 31.3216 121.839 31.6662C122.155 32.9292 123.794 34.1716 125.853 34.7084C127.111 35.0366 127.39 35.0352 128.742 34.6949C130.479 34.2576 131.848 33.2164 132.608 31.7531C132.883 31.2244 133.108 30.6884 133.108 30.5618C133.108 30.4323 132.273 30.3316 131.197 30.3316C129.365 30.3316 129.262 30.3609 128.688 31.0442C127.716 32.2022 126.074 31.8921 125.317 30.4067C124.93 29.6486 124.993 27.5583 125.431 26.633C125.716 26.0319 126.007 25.7946 126.596 25.6839C127.777 25.4618 129.08 26.0221 129.08 26.7522C129.08 26.913 129.82 27.0066 131.094 27.0066C133.332 27.0066 133.421 26.9251 132.693 25.5478C132.164 24.5451 131.062 23.4407 130.061 22.9096C128.937 22.313 125.479 22.3484 124.372 22.968ZM134.53 28.5504V34.6067H136.408H138.287L138.363 31.0572C138.452 26.9258 138.533 26.7634 140.694 26.3962L141.994 26.1753L142.065 24.9284C142.17 23.0977 142.282 23.1863 143.487 26.0566C143.679 26.5138 143.922 27.1016 144.028 27.3628C144.133 27.6241 144.444 28.3722 144.719 29.0254C144.993 29.6785 145.33 30.4801 145.467 30.8067C146.038 32.1683 146.442 33.0874 146.64 33.4753C146.921 34.0248 146.908 34.7811 146.614 34.963C146.484 35.0437 146.377 35.2661 146.377 35.457C146.377 35.6477 145.962 36.6835 145.454 37.7587C144.022 40.7904 143.956 40.5453 146.207 40.5382L148.154 40.532L148.558 39.6475C148.78 39.1611 149.132 38.3356 149.34 37.8131C149.548 37.2905 149.862 36.5424 150.037 36.1505C150.212 35.7586 150.466 35.1708 150.602 34.8442C150.738 34.5177 151.176 33.5216 151.575 32.6307C151.974 31.7398 152.301 30.9544 152.301 30.8853C152.301 30.8162 152.472 30.3694 152.682 29.8925C153.295 28.4969 153.632 27.7041 154.666 25.2253C154.938 24.5721 155.264 23.8523 155.389 23.6255C155.935 22.6405 155.719 22.494 153.715 22.494C152.11 22.494 151.792 22.5591 151.684 22.9096C151.613 23.1383 151.457 23.5107 151.336 23.7376C151.215 23.9644 151.116 24.2689 151.116 24.4142C151.116 24.5596 150.971 25.0153 150.793 25.4269C150.44 26.2447 149.93 27.5467 149.385 29.0254L149.035 29.9754L148.625 29.0254C148.399 28.5029 148.135 27.9115 148.037 27.7113C147.939 27.511 147.784 27.0047 147.692 26.586C147.601 26.1672 147.427 25.7635 147.307 25.6889C147.186 25.6146 147.088 25.3889 147.088 25.1878C147.088 24.9866 146.939 24.4852 146.758 24.0736C146.576 23.662 146.367 23.1383 146.291 22.9096C146.172 22.5453 145.813 22.494 143.386 22.494C140.462 22.494 140.145 22.5994 138.697 24.0511C138.354 24.3952 138.321 24.3439 138.321 23.4609V22.494H136.425H134.53V28.5504ZM156.803 31.5192V40.5444H158.58H160.357V36.863C160.357 34.8383 160.415 33.1817 160.487 33.1817C160.558 33.1817 160.852 33.4313 161.139 33.7365C162.128 34.7889 164.022 35.1145 165.89 34.5538C168.587 33.7436 170.309 29.6039 169.24 26.5021C168.617 24.6961 168.134 24.0024 166.969 23.2376C165.968 22.5811 165.639 22.494 164.154 22.494C162.49 22.494 161.474 22.8552 160.997 23.6164C160.667 24.1432 160.357 23.9447 160.357 23.2065V22.494H158.58H156.803V31.5192ZM95.1794 25.6915C95.8421 26.0349 96.1443 26.49 96.1443 27.1448C96.1443 27.4089 95.7135 27.4816 94.1496 27.4816C91.5084 27.4816 91.334 27.4087 91.8408 26.5159C92.4661 25.4146 93.9423 25.0502 95.1794 25.6915ZM82.3807 26.2394C83.8637 27.726 83.5995 30.3637 81.8679 31.36C81.027 31.8436 80.4453 31.8602 79.6048 31.4246C78.4054 30.8031 78.1123 30.2651 78.1047 28.6727C78.0988 27.4502 78.1924 27.0949 78.6502 26.6009C78.9539 26.2729 79.4157 25.9138 79.6764 25.8027C80.3164 25.53 81.9333 25.791 82.3807 26.2394ZM164.896 26.4484C165.494 27.0225 165.569 27.2581 165.562 28.5354C165.558 29.4163 165.421 30.1523 165.211 30.4314C164.708 31.0971 163.633 31.7534 163.042 31.755C162.263 31.7574 161.072 30.9926 160.917 30.391C160.841 30.097 160.685 29.8566 160.568 29.8566C160.247 29.8566 160.316 27.8526 160.66 27.188C161.062 26.4121 161.591 25.8989 162.151 25.743C163.036 25.4968 164.223 25.802 164.896 26.4484Z" fill="white"></path></svg> 