<?xml version="1.0" encoding="UTF-8"?> <svg xmlns="http://www.w3.org/2000/svg" width="126" height="40" viewBox="0 0 126 40" fill="none"><g clip-path="url(#clip0_299_46657)"><path d="M43.572 19.4638C43.536 18.547 43.6761 17.6319 43.984 16.7713C44.2919 15.9107 44.7617 15.1217 45.3661 14.4497C45.9706 13.7777 46.6978 13.2362 47.5058 12.8562C48.3138 12.4762 49.1865 12.2654 50.0738 12.2358H50.3494C53.7785 12.2358 55.8023 14.3208 56.4007 16.7603L54.2693 17.497C54.0778 16.5879 53.5766 15.7803 52.857 15.2215C52.1374 14.6627 51.2474 14.3899 50.3494 14.4529C48.1306 14.4529 45.9051 16.1278 45.9051 19.5055C45.9051 22.8832 48.0768 24.4956 50.3763 24.4956C51.2788 24.5211 52.1634 24.2329 52.8887 23.6773C53.614 23.1216 54.138 22.3306 54.3769 21.4307L56.4679 22.1257C56.107 23.4984 55.3041 24.703 54.1918 25.5407C53.0795 26.3783 51.7242 26.7991 50.3494 26.7335C48.5833 26.767 46.8766 26.0742 45.6045 24.8075C44.3323 23.5407 43.5989 21.8037 43.5653 19.9781C43.5586 19.8113 43.5653 19.6376 43.572 19.4638Z" fill="white"></path><path d="M60.6165 26.415H58.4111V12.1953H60.6165V17.7553C60.9366 17.3628 61.3393 17.051 61.7937 16.8439C62.2482 16.6367 62.7424 16.5396 63.2387 16.5599C65.518 16.5599 66.6005 18.2487 66.6005 20.3546V26.415H64.4759V20.7577C64.5395 20.2754 64.4173 19.7866 64.1356 19.3966C63.8539 19.0066 63.4352 18.7466 62.9698 18.6727C62.8379 18.6587 62.7049 18.6587 62.5731 18.6727C62.0631 18.6727 61.574 18.8821 61.2133 19.2549C60.8527 19.6276 60.6501 20.1332 60.6501 20.6604C60.6467 20.7182 60.6467 20.7763 60.6501 20.8341L60.6165 26.415Z" fill="white"></path><path d="M71.5501 20.9365L73.9168 20.5542C74.4547 20.4847 74.5892 20.1998 74.5892 19.8592C74.5892 19.053 74.0648 18.4067 72.8411 18.4067C72.3789 18.3681 71.9207 18.5193 71.5657 18.8277C71.2108 19.136 70.9877 19.5766 70.945 20.0538V20.1581L68.9279 19.6924C69.096 18.0383 70.5483 16.5649 72.8209 16.5649C75.6717 16.5649 76.7542 18.2329 76.7542 20.1789V24.9258C76.7519 25.4401 76.7901 25.9538 76.8685 26.4617H74.8514C74.7787 26.0586 74.7494 25.6483 74.764 25.2385C74.4578 25.7256 74.0335 26.1211 73.5333 26.3858C73.0331 26.6504 72.4745 26.7748 71.9132 26.7467C71.1466 26.8121 70.3862 26.5605 69.7988 26.0472C69.2114 25.5338 68.845 24.8006 68.78 24.0084C68.78 23.9597 68.78 23.9111 68.78 23.8694C68.7464 22.111 69.9633 21.1658 71.5501 20.9365ZM74.6026 22.4724V22.0346L72.1889 22.4099C71.8612 22.4206 71.5502 22.5618 71.3209 22.804C71.0916 23.0462 70.9617 23.3707 70.9584 23.7095C70.961 23.8774 70.9959 24.0431 71.0611 24.1969C71.1263 24.3508 71.2205 24.4896 71.3382 24.6054C71.4558 24.7212 71.5946 24.8117 71.7465 24.8714C71.8983 24.9312 72.0601 24.9591 72.2225 24.9536H72.3233C72.5986 24.9833 72.8767 24.9565 73.1419 24.8747C73.407 24.7929 73.6539 24.6576 73.8683 24.4767C74.0826 24.2958 74.2603 24.0729 74.3909 23.8208C74.5216 23.5686 74.6027 23.2922 74.6295 23.0076C74.6391 22.8284 74.6278 22.6488 74.5959 22.4724H74.6026Z" fill="white"></path><path d="M80.5056 11.9997C80.6951 11.997 80.8833 12.033 81.0593 12.1056C81.2353 12.1782 81.3958 12.2861 81.5313 12.423C81.6669 12.5599 81.775 12.7232 81.8493 12.9034C81.9237 13.0836 81.9629 13.2772 81.9646 13.4731C81.9646 13.7664 81.8807 14.0531 81.7235 14.2972C81.5662 14.5413 81.3427 14.732 81.081 14.8451C80.8192 14.9583 80.5309 14.9889 80.2524 14.9332C79.9739 14.8775 79.7175 14.7379 79.5154 14.532C79.3134 14.326 79.1748 14.063 79.1171 13.7759C79.0593 13.4887 79.0849 13.1904 79.1907 12.9183C79.2966 12.6462 79.4778 12.4125 79.7118 12.2466C79.9457 12.0807 80.2219 11.99 80.5056 11.9858V11.9997ZM79.4298 26.4557V16.8508H81.6352V26.414L79.4298 26.4557Z" fill="white"></path><path d="M86.6566 26.4143H84.458V16.8511H86.6028V18.123C86.8825 17.6346 87.2841 17.233 87.7656 16.9603C88.2471 16.6876 88.7907 16.5539 89.3394 16.5731C91.5985 16.5731 92.7012 18.262 92.7012 20.3678V26.4143H90.5026V20.757C90.5026 19.5824 89.9848 18.6303 88.5998 18.6303C88.3437 18.6321 88.0905 18.6861 87.8546 18.789C87.6187 18.892 87.4048 19.042 87.2249 19.2304C87.0451 19.4189 86.903 19.6421 86.8066 19.8873C86.7103 20.1326 86.6616 20.395 86.6634 20.6597C86.6634 20.7361 86.6634 20.8126 86.6634 20.889L86.6566 26.4143Z" fill="white"></path><path d="M95.3652 26.415V12.1953H97.5706V26.415H95.3652Z" fill="white"></path><path d="M101.503 12C101.786 11.9986 102.064 12.0845 102.301 12.2466C102.537 12.4087 102.722 12.6399 102.831 12.9106C102.94 13.1814 102.969 13.4796 102.914 13.7674C102.859 14.0552 102.723 14.3197 102.522 14.5271C102.321 14.7346 102.065 14.8757 101.787 14.9326C101.509 14.9895 101.22 14.9596 100.958 14.8467C100.696 14.7338 100.473 14.543 100.316 14.2985C100.159 14.0539 100.076 13.7668 100.077 13.4734C100.081 13.0838 100.232 12.7111 100.499 12.4356C100.765 12.16 101.126 12.0036 101.503 12ZM100.42 26.456V16.8511H102.605V26.4143L100.42 26.456Z" fill="white"></path><path d="M107.662 26.4141H105.457V16.851H107.602V18.1228C107.882 17.6349 108.284 17.2338 108.765 16.9611C109.246 16.6885 109.79 16.5545 110.338 16.573C112.598 16.573 113.7 18.2618 113.7 20.3677V26.4141H111.495V20.7569C111.559 20.2746 111.436 19.7858 111.155 19.3958C110.873 19.0058 110.454 18.7458 109.989 18.6719C109.855 18.6579 109.719 18.6579 109.585 18.6719C109.072 18.6774 108.581 18.8921 108.22 19.2695C107.858 19.6469 107.656 20.1564 107.656 20.6874C107.649 20.7683 107.649 20.8497 107.656 20.9306L107.662 26.4141Z" fill="white"></path><path d="M121.223 20.8897L125.103 26.4497H122.413L119.724 22.5091L118.588 23.7462V26.415H116.402V12.1953H118.588V20.716L122.138 16.8518H125.062L121.223 20.8897Z" fill="white"></path><path d="M17.4644 8.34436L26.9985 14.0016V25.3718L17.4913 31.0638L7.96392 25.4205V14.0572L17.4644 8.34436ZM17.4644 0.00439453L13.9681 2.08939L4.44746 7.80227L0.951172 9.88726V29.6043L4.44746 31.6893L13.9816 37.3466L17.4779 39.4316L20.9742 37.3466L30.4746 31.6476L33.9709 29.5626V9.81776L30.4746 7.73277L20.9473 2.08939L17.451 0.00439453H17.4644Z" fill="white"></path></g><defs><clipPath id="clip0_299_46657"><rect width="124.152" height="39.4133" fill="white" transform="translate(0.953125)"></rect></clipPath></defs></svg> 