<?xml version="1.0" encoding="UTF-8"?> <svg xmlns="http://www.w3.org/2000/svg" width="76" height="35" viewBox="0 0 76 35" fill="none"><g clip-path="url(#clip0_299_46684)"><path fill-rule="evenodd" clip-rule="evenodd" d="M66.1579 1.19182C67.7007 1.48716 69.076 2.44576 69.3689 2.75406C73.04 6.61717 65.5467 12.9069 57.974 12.0063C53.4531 11.4685 51.7798 8.05945 54.565 4.96846C54.1987 5.6232 54.1685 6.38497 54.4202 6.96343C54.7203 7.65336 55.5421 8.35719 56.5546 8.61494C56.9784 8.74141 57.447 8.80674 57.9422 8.81804C59.2785 8.89119 60.8594 8.67713 62.4551 8.14739C66.0921 6.93991 68.5188 4.47017 67.7622 2.73073C67.3945 1.88582 66.2071 1.14683 64.829 0.957031L65.112 0.988139C65.3173 1.01792 65.5365 1.0642 65.7521 1.10972L65.7528 1.10985C65.8908 1.139 66.0274 1.16784 66.1579 1.19182ZM52.2086 9.54816C52.0816 9.97796 51.9766 10.6001 51.9329 10.999C51.171 19.189 62.6582 21.6292 70.1927 16.0684C73.1142 13.9122 74.2332 10.3326 73.7204 8.05854C73.3869 6.58147 72.9023 5.92172 72.4042 5.28846C71.8419 4.57353 71.2463 4.04859 70.7851 3.66122C75.9132 7.96816 68.0904 15.6338 60.1131 15.5764C56.3728 15.5496 51.727 14.1677 52.2086 9.54816ZM74.9694 13.359L74.8606 13.654C74.7737 13.8742 74.6317 14.2061 74.4233 14.6143C73.2541 16.8516 70.2982 21.3983 63.2428 21.9684C61.1765 22.1353 55.8773 21.6033 53.2442 18.0385C53.2442 18.0385 53.2779 18.0985 53.3384 18.2002L53.3829 18.2796L53.3831 18.2802C53.4909 18.4738 53.6073 18.683 53.7398 18.839C54.0902 19.3678 54.5823 20.0368 55.0636 20.4488C55.669 21.0693 56.3126 21.6488 57.4125 22.3053L58.0525 22.6579C65.2716 26.1795 70.999 21.9181 72.8316 19.1854L73.0831 18.8243C73.1622 18.7004 73.2294 18.596 73.2887 18.5046L73.2894 18.5035C73.5623 18.0797 73.657 17.9325 73.8984 17.3941C73.926 17.3327 73.9526 17.2743 73.978 17.2183C74.0001 17.1697 74.0214 17.123 74.0418 17.0777C74.3067 16.4984 74.46 16.1626 74.6607 15.284C74.6868 15.1675 74.7094 15.0623 74.7292 14.966V14.9651C74.7313 14.9543 74.7335 14.9436 74.7356 14.9331C74.7398 14.9126 74.7438 14.8927 74.7475 14.873L74.749 14.8638V14.865C74.9157 14.1224 74.9694 13.359 74.9694 13.359ZM16.4918 19.3643V14.6735H11.3943V11.1237H20.2747V21.2028C20.2747 21.2028 17.4215 23.9917 11.9716 23.9917C5.39939 23.9917 0.173828 19.079 0.173828 12.5181C0.173828 5.95717 5.23907 1.04455 11.8112 1.04455C17.3252 1.04455 20.1144 4.37253 20.1144 4.37253L17.4857 6.908C17.4857 6.908 15.6261 4.59435 11.8112 4.59435C7.29083 4.59435 4.08518 8.23933 4.08518 12.5181C4.08518 16.797 7.45112 20.4419 11.9716 20.4419C15.1772 20.4419 16.4918 19.3643 16.4918 19.3643ZM4.74927 33.2425V32.0093H3.4094V31.0761H5.74396V33.7256C5.74396 33.7256 4.99387 34.4588 3.56092 34.4588C1.83335 34.4588 0.459776 33.1675 0.459776 31.4427C0.459776 29.7179 1.79121 28.4264 3.51896 28.4264C4.96839 28.4264 5.70163 29.3014 5.70163 29.3014L5.01072 29.9678C5.01072 29.9678 4.52171 29.3596 3.51896 29.3596C2.33061 29.3596 1.48781 30.3178 1.48781 31.4427C1.48781 32.5674 2.37275 33.5256 3.56092 33.5256C4.40371 33.5256 4.74927 33.2425 4.74927 33.2425ZM11.3571 30.3446C11.3571 29.7698 10.9527 29.478 10.3038 29.478H9.50314V31.2112H10.3038C10.9527 31.2112 11.3571 30.9196 11.3571 30.3446ZM8.49176 28.5281H10.4302C11.6017 28.5281 12.3853 29.278 12.3853 30.3446C12.3853 31.2197 11.9134 31.8861 11.0708 32.0944L12.5455 34.3606H11.3655L9.96651 32.1611H9.50314V34.3606H8.49176V28.5281ZM17.7388 29.3761C18.9269 29.3761 19.6938 30.3177 19.6938 31.4426C19.6938 32.5673 18.9269 33.5089 17.7388 33.5089C16.5504 33.5089 15.7834 32.5673 15.7834 31.4426C15.7834 30.3177 16.5504 29.3761 17.7388 29.3761ZM17.7385 34.4588C19.4576 34.4588 20.7218 33.1674 20.7218 31.4427C20.7218 29.7179 19.4576 28.4264 17.7385 28.4264C16.0192 28.4264 14.7551 29.7179 14.7551 31.4427C14.7551 33.1674 16.0192 34.4588 17.7385 34.4588ZM26.8569 28.5281H27.8681V32.2442C27.8681 33.5274 26.9833 34.4607 25.5927 34.4607C24.202 34.4607 23.3173 33.5274 23.3173 32.2442V28.5281H24.3285V32.1194C24.3285 32.9527 24.7499 33.5107 25.5927 33.5107C26.427 33.5107 26.8569 32.9527 26.8569 32.1194V28.5281ZM32.681 29.4779C33.3722 29.4779 33.7346 29.8445 33.7346 30.3945C33.7346 30.9444 33.3722 31.3108 32.681 31.3108H31.813V29.4779H32.681ZM32.8075 28.5281H30.8018V34.3606H31.8131V32.2609H32.8075C33.979 32.2609 34.7628 31.4612 34.7628 30.3946C34.7628 29.328 33.979 28.5281 32.8075 28.5281ZM31.5593 17.5876H22.9998V13.9743H31.5593V17.5876ZM42.5643 12.7571L42.5645 12.7569C43.4587 11.6829 44.7361 10.1487 44.7361 8.01748C44.7361 6.24251 43.5179 4.59454 41.4019 4.59454C38.1002 4.59454 37.3947 7.82734 37.3947 7.82734L33.9647 6.59117C33.9647 6.59117 35.4072 1.04455 41.4019 1.04455C46.243 1.04455 48.5832 4.27753 48.5832 7.95418C48.5832 10.7117 47.1727 12.6766 46.6277 13.4058L41.4662 19.9982H48.6793V23.6116H33.9004L42.1394 13.2788C42.2635 13.1185 42.408 12.9448 42.5643 12.7571Z" fill="white"></path></g><defs><clipPath id="clip0_299_46684"><rect width="74.8853" height="33.5013" fill="white" transform="translate(0.173828 0.957031)"></rect></clipPath></defs></svg> 