<?xml version="1.0" encoding="UTF-8"?> <svg xmlns="http://www.w3.org/2000/svg" width="63" height="41" viewBox="0 0 63 41" fill="none"><path fill-rule="evenodd" clip-rule="evenodd" d="M8.04783 13.2545V8.00903C8.04783 7.24616 7.74997 6.61235 7.18638 6.17741C6.62403 5.74226 5.9328 5.55952 5.13311 5.63227C4.13114 5.72345 3.37626 5.8554 2.87698 6.02913C2.52122 6.16583 2.48302 6.43303 2.48302 6.54131V7.20399C2.48302 7.33253 2.5169 7.4385 2.58246 7.51889C2.66698 7.62065 2.79343 7.6692 2.93854 7.65598C2.96241 7.65381 3.02077 7.64348 3.04412 7.63637C3.43121 7.5179 4.13363 7.41278 5.13311 7.32181C5.39034 7.29839 5.61211 7.37456 5.79797 7.55612C5.98376 7.72781 6.07758 7.94088 6.07758 8.18835V8.62672L3.84728 8.82965C3.04602 8.90261 2.34982 9.21665 1.77759 9.76402C1.20589 10.3096 0.916016 10.9734 0.916016 11.7375C0.916016 12.5117 1.21152 13.1335 1.79428 13.5842C2.35571 14.0173 3.04635 14.2011 3.84728 14.1282L7.55731 13.7905C7.8462 13.7643 8.04783 13.5433 8.04783 13.2545ZM6.07751 12.2215L3.84722 12.4245C3.57972 12.4488 3.35042 12.3757 3.16626 12.2046C2.97982 12.033 2.886 11.8162 2.886 11.5582C2.886 11.3105 2.97982 11.0802 3.16626 10.876C3.35042 10.6727 3.57972 10.5575 3.84722 10.5331L6.07751 10.3301V12.2215Z" fill="white"></path><path fill-rule="evenodd" clip-rule="evenodd" d="M10.1663 13.5353L11.1229 13.4482C11.4257 13.4207 11.629 13.2045 11.629 12.9107V7.66526C11.629 7.41976 11.7252 7.18235 11.9092 6.96797C12.0937 6.76471 12.3227 6.64959 12.5902 6.62525L13.8767 6.50816C14.1343 6.48474 14.3551 6.56098 14.5409 6.74247C14.727 6.91416 14.8209 7.12723 14.8209 7.3747V12.6202C14.8209 12.9138 15.0246 13.093 15.3275 13.0655L16.3009 12.9769C16.5892 12.9507 16.7909 12.7297 16.7909 12.4409V7.19538C16.7909 6.41442 16.4939 5.79785 15.9132 5.36527C15.3512 4.93006 14.6661 4.74679 13.8767 4.81862L12.5902 4.93572C11.798 5.00788 11.1027 5.31574 10.5208 5.85613C9.95755 6.39284 9.65956 7.08059 9.65956 7.84458V13.0901C9.65962 13.3837 9.86341 13.5629 10.1663 13.5353Z" fill="white"></path><path fill-rule="evenodd" clip-rule="evenodd" d="M18.3841 2.997L19.9838 2.85136C20.2868 2.82373 20.4905 2.6077 20.4905 2.31386V1.57684C20.4905 1.34029 20.3336 1.11591 19.9838 1.14781L18.3841 1.29339C18.0343 1.32522 17.8778 1.57815 17.8778 1.8147V2.55172C17.8778 2.84563 18.0813 3.02456 18.3841 2.997ZM19.6707 4.25573L18.6977 4.34434C18.3478 4.37617 18.191 4.62996 18.191 4.86677V12.278C18.191 12.5716 18.3948 12.7508 18.6977 12.7233L19.6707 12.6347C19.9733 12.6072 20.177 12.3909 20.177 12.0972V4.68594C20.177 4.44919 20.0205 4.22382 19.6707 4.25573Z" fill="white"></path><path fill-rule="evenodd" clip-rule="evenodd" d="M22.28 12.3794L23.2366 12.2923C23.5394 12.2647 23.7433 12.0484 23.7433 11.7548V6.50928C23.7433 6.26372 23.8397 6.02631 24.0232 5.81213C24.2077 5.6088 24.4367 5.49368 24.7045 5.46927L25.9907 5.35225C26.2484 5.32883 26.4695 5.40494 26.6549 5.58656C26.8411 5.75825 26.9346 5.97138 26.9346 6.21885V11.4643C26.9346 11.758 27.139 11.9371 27.442 11.9096L28.4147 11.821C28.4628 11.8166 28.5095 11.8014 28.5536 11.7779C28.8434 11.6224 28.9047 11.4245 28.9047 11.285V6.03953C28.9047 5.79298 29.0009 5.55564 29.1849 5.34232C29.3694 5.13892 29.5984 5.02387 29.8659 4.99953L31.1518 4.8825C31.4119 4.85882 31.635 4.93486 31.833 5.1153C32.0192 5.28699 32.113 5.50006 32.113 5.74753V10.993C32.113 11.2867 32.317 11.4659 32.62 11.4383L33.5759 11.3513C33.8788 11.3237 34.0826 11.1074 34.0826 10.8138V5.56827C34.0826 4.78725 33.7859 4.17061 33.205 3.7381C32.6429 3.30289 31.9517 3.12015 31.1517 3.19297L29.8659 3.30999C29.1077 3.379 28.4551 3.65304 27.9198 4.12582C27.3869 3.75027 26.7392 3.59456 25.9907 3.66271L24.7045 3.7798C23.9117 3.8519 23.2167 4.15976 22.6348 4.70016C22.0716 5.23687 21.7736 5.92461 21.7736 6.6886V11.9341C21.7736 12.2278 21.9772 12.4069 22.28 12.3794Z" fill="white"></path><path fill-rule="evenodd" clip-rule="evenodd" d="M49.055 9.30013C49.6162 9.7333 50.3066 9.91709 51.1076 9.84421C52.217 9.74323 53.0573 9.55839 53.6816 9.27987C53.8975 9.18106 54.0217 8.99858 54.0217 8.77881V8.1452C54.0224 7.73084 53.6786 7.63388 53.4354 7.71729C52.847 7.91312 52.0861 8.05146 51.1076 8.14046C50.8401 8.1648 50.6111 8.09165 50.4264 7.92069C50.241 7.74887 50.1467 7.53218 50.1467 7.27419V4.20883C50.1467 3.95202 50.241 3.71705 50.4261 3.51266C50.6118 3.30821 50.8408 3.1931 51.1077 3.16882C52.085 3.07989 52.8676 3.07982 53.4318 3.1679C53.7095 3.2127 54.0218 3.04489 54.0218 2.63382V2.00001C54.0218 1.79168 53.9108 1.63414 53.6959 1.55934C53.0757 1.39423 52.2289 1.36312 51.1077 1.46521C50.3074 1.53803 49.6108 1.85306 49.0382 2.40062C48.4751 2.93707 48.177 3.62521 48.177 4.38808V7.45344C48.177 8.22887 48.4721 8.84946 49.055 9.30013Z" fill="white"></path><path fill-rule="evenodd" clip-rule="evenodd" d="M61.1454 1.26576C60.5831 0.830612 59.8922 0.647871 59.0921 0.720625C58.0902 0.811798 57.3353 0.943756 56.8364 1.11749C56.4805 1.25411 56.4422 1.52138 56.4422 1.62966V2.29234C56.4422 2.42088 56.476 2.52686 56.5419 2.60724C56.6264 2.70901 56.7526 2.75755 56.8977 2.74433C56.9217 2.74216 56.98 2.73183 57.0035 2.72473C57.39 2.60632 58.0928 2.50114 59.0922 2.41016C59.3498 2.38674 59.5713 2.46292 59.7567 2.64447C59.9432 2.8161 60.0368 3.02923 60.0368 3.2767V3.715L57.8063 3.91801C57.0047 3.99096 56.3088 4.305 55.7363 4.8525C55.1652 5.39796 54.8754 6.06176 54.8754 6.82588C54.8754 7.60013 55.1706 8.22131 55.7531 8.6727C56.3148 9.10574 57.0054 9.28947 57.8063 9.21665L61.5163 8.87899C61.8049 8.85274 62.0066 8.63178 62.0066 8.34294V3.09738C62.0066 2.33451 61.7086 1.70071 61.1454 1.26576ZM60.0367 7.30984L57.8062 7.51284C57.5387 7.53718 57.3099 7.46396 57.1253 7.293C56.9392 7.12124 56.845 6.90462 56.845 6.64656C56.845 6.39889 56.9392 6.16859 57.1253 5.96434C57.3099 5.76094 57.5387 5.64582 57.8062 5.62149L60.0367 5.41842V7.30984Z" fill="white"></path><path d="M56.7219 11.1362L53.9498 11.3947C54.0866 11.5101 54.1799 11.6797 54.1969 11.8752C54.2303 12.2614 53.9527 12.6023 53.5769 12.6366L49.857 12.9764L49.9852 14.7156L53.5642 14.4464C53.9404 14.4182 54.2678 14.7087 54.2953 15.0954C54.3228 15.482 54.0401 15.8184 53.6639 15.8467L50.0884 16.1156L50.2419 18.198L54.1416 17.8569C54.5175 17.824 54.8482 18.1105 54.8802 18.4969C54.9122 18.8832 54.6334 19.223 54.2575 19.2559L49.6708 19.657C49.4892 19.6729 49.3089 19.6136 49.1701 19.4921C49.0313 19.3707 48.9455 19.1974 48.9317 19.0106L48.4437 12.3916C48.43 12.2045 48.4888 12.0289 48.5961 11.8941L45.4564 12.187C46.1497 12.5833 46.638 13.3246 46.6867 14.2012C46.7403 15.1647 46.247 16.0335 45.4801 16.4831L47.3309 19.04C47.5561 19.3511 47.4932 19.7909 47.1905 20.0223C46.8878 20.2537 46.4598 20.1891 46.2347 19.878L44.0343 16.8381L42.106 17.0104L42.2919 19.6081C42.3195 19.9948 42.0369 20.3313 41.6607 20.3597C41.2844 20.3881 40.957 20.0977 40.9293 19.711L40.4413 12.8914C40.4354 12.8087 40.4437 12.7283 40.4641 12.6527L38.3706 12.848L38.6813 17.51C38.7905 19.1482 37.6014 20.5738 36.0093 20.7134L35.4679 20.7608C33.8506 20.9026 32.4297 19.6652 32.3007 18.0024L31.947 13.4472L30.3571 13.5955C30.5833 13.6923 30.7512 13.9111 30.7753 14.1793C30.8101 14.5653 30.5338 14.9073 30.1581 14.943L28.1899 15.1303L28.6292 20.9086C28.6586 21.2952 28.3775 21.633 28.0013 21.6632C27.6252 21.6934 27.2965 21.4045 27.2671 21.018L26.8293 15.2598L24.8883 15.4445C24.5126 15.4802 24.1799 15.1962 24.1451 14.8102C24.1204 14.5367 24.2519 14.2854 24.4642 14.1493L22.99 14.2896L23.3605 21.4274C23.3759 21.7243 23.2075 21.9991 22.9402 22.1131C22.673 22.2272 22.3648 22.1557 22.171 21.9349L18.1109 17.3073L18.3831 21.9237C18.406 22.3107 18.1192 22.6435 17.7426 22.6669C17.366 22.6904 17.0422 22.3957 17.0194 22.0087L16.6291 15.3896C16.6178 15.1981 16.683 15.0153 16.8022 14.8786L14.6002 15.0882C14.7486 15.2036 14.8508 15.3804 14.8685 15.5859C14.9019 15.9721 14.6244 16.313 14.2486 16.3473L10.5287 16.6871L10.6561 18.4155L14.2193 18.0583C14.5948 18.0206 14.9289 18.3029 14.9655 18.6888C15.0021 19.0747 14.7274 19.418 14.3519 19.4557L10.7594 19.8159L10.9136 21.9086L14.8133 21.5676C15.1892 21.5347 15.5199 21.8212 15.5519 22.2075C15.5839 22.5938 15.3051 22.9337 14.9292 22.9666L10.3425 23.3677C10.1609 23.3836 9.98059 23.3242 9.84179 23.2028C9.70298 23.0814 9.61715 22.908 9.60338 22.7212L9.11543 16.1022C9.10131 15.9106 9.16348 15.7309 9.27577 15.5949L7.79183 15.7362L5.7584 23.05C5.62408 23.5332 5.23719 23.8049 4.8289 23.8451L50.0032 40.1184L61.1115 18.3514C60.5784 18.7764 59.8342 19.0141 58.9143 19.0571C57.6179 19.1177 56.7999 18.5899 56.3247 17.9795C56.0983 17.6886 55.9626 17.3963 55.8829 17.1771C55.8428 17.0667 55.8158 16.9721 55.7984 16.9016C55.7896 16.8663 55.7831 16.8367 55.7785 16.8139C55.7775 16.8088 55.7766 16.804 55.7757 16.7996C55.7746 16.7941 55.7737 16.7891 55.7729 16.7847L55.771 16.7741L55.77 16.7679L55.7699 16.767C55.7698 16.7666 55.7697 16.7662 56.4436 16.6509L55.7697 16.7662C55.7078 16.3837 55.9593 16.0221 56.3314 15.9584C56.7011 15.8952 57.0507 16.1497 57.1161 16.5279L57.1162 16.5285C57.117 16.5321 57.1189 16.5412 57.1223 16.555C57.1292 16.5828 57.1419 16.6285 57.1627 16.6857C57.205 16.8019 57.2765 16.9546 57.3916 17.1025C57.5995 17.3696 58.0013 17.6943 58.8522 17.6545C59.8127 17.6097 60.2557 17.317 60.4471 17.0668C60.6342 16.8222 60.6918 16.4727 60.57 16.0465C60.5407 15.9441 60.4405 15.7985 60.0343 15.6431C59.6939 15.5129 59.2831 15.4285 58.8033 15.33C58.7099 15.3108 58.6137 15.291 58.515 15.2703C57.9594 15.1536 57.301 15.0018 56.7812 14.694C56.5101 14.5335 56.2487 14.3154 56.0564 14.0115C55.86 13.7012 55.7605 13.3403 55.7605 12.9403C55.7604 12.2604 56.0889 11.6953 56.5281 11.2967C56.59 11.2404 56.6547 11.1869 56.7219 11.1362Z" fill="white"></path><path d="M61.5187 14.9836C61.2349 14.6586 60.8556 14.4591 60.5109 14.3273C60.058 14.1541 59.5175 14.0438 59.0416 13.9468C58.9547 13.9291 58.8701 13.9118 58.7885 13.8947C58.2095 13.7731 57.7639 13.6555 57.4632 13.4775C57.3241 13.3951 57.2462 13.3162 57.2017 13.246C57.1614 13.1822 57.1267 13.0918 57.1267 12.9402C57.1267 12.7544 57.213 12.5483 57.4325 12.349C57.655 12.1471 57.985 11.9843 58.3646 11.9174C59.1192 11.7842 59.9095 12.0414 60.327 12.8638C60.5015 13.2076 60.9142 13.3408 61.2487 13.1615C61.3647 13.0993 61.4561 13.0076 61.5187 12.9001V14.9836Z" fill="white"></path><path d="M2.01808 16.267L4.65627 21.9034L6.33313 15.8721L2.01808 16.267Z" fill="white"></path><path d="M17.7272 14.7905C17.7597 14.8162 17.7902 14.845 17.8183 14.8771L21.8934 19.5218L21.6286 14.4192L17.7272 14.7905Z" fill="white"></path><path d="M33.3079 13.3203L33.6749 18.0155C33.7453 18.9161 34.5251 19.5794 35.3991 19.4823L35.9248 19.4239C36.7572 19.3314 37.3705 18.5808 37.315 17.7223L37.0084 12.9751L33.3079 13.3203Z" fill="white"></path><path d="M44.2091 13.2854C44.7866 13.2369 45.2896 13.6868 45.3227 14.2813C45.3536 14.8368 44.9619 15.319 44.4307 15.3922C44.3812 15.3856 44.3306 15.3846 44.2797 15.3894L42.0056 15.6072L41.8536 13.483L44.2091 13.2854Z" fill="white"></path><path d="M47.1731 5.92007C47.1731 6.03085 47.0858 6.12065 46.978 6.12065C46.8702 6.12065 46.7828 6.03085 46.7828 5.92007C46.7828 5.80929 46.8702 5.71949 46.978 5.71949C47.0858 5.71949 47.1731 5.80929 47.1731 5.92007Z" fill="white"></path><path d="M41.8233 1.38303C41.8233 1.5359 41.6999 1.65982 41.5475 1.65982C41.3952 1.65982 41.2717 1.5359 41.2717 1.38303C41.2717 1.23016 41.3952 1.10623 41.5475 1.10623C41.6999 1.10623 41.8233 1.23016 41.8233 1.38303Z" fill="white"></path><path d="M37.1345 3.13607C37.3884 3.13607 37.5942 2.92952 37.5942 2.67474C37.5942 2.41996 37.3884 2.21341 37.1345 2.21341C36.8806 2.21341 36.6748 2.41996 36.6748 2.67474C36.6748 2.92952 36.8806 3.13607 37.1345 3.13607Z" fill="white"></path><path d="M45.8686 7.93386C46.1733 7.93386 46.4203 7.68601 46.4203 7.38027C46.4203 7.07453 46.1733 6.82668 45.8686 6.82668C45.564 6.82668 45.317 7.07453 45.317 7.38027C45.317 7.68601 45.564 7.93386 45.8686 7.93386Z" fill="white"></path><path d="M38.9733 2.02888C39.1256 2.02888 39.2491 1.90496 39.2491 1.75209C39.2491 1.59922 39.1256 1.47529 38.9733 1.47529C38.8209 1.47529 38.6974 1.59922 38.6974 1.75209C38.6974 1.90496 38.8209 2.02888 38.9733 2.02888Z" fill="white"></path><path d="M36.307 4.88911C36.307 5.04198 36.1836 5.1659 36.0312 5.1659C35.8789 5.1659 35.7554 5.04198 35.7554 4.88911C35.7554 4.73624 35.8789 4.61231 36.0312 4.61231C36.1836 4.61231 36.307 4.73624 36.307 4.88911Z" fill="white"></path><path d="M35.0199 2.95154C35.1214 2.95154 35.2038 2.86892 35.2038 2.76701C35.2038 2.66509 35.1214 2.58248 35.0199 2.58248C34.9184 2.58248 34.836 2.66509 34.836 2.76701C34.836 2.86892 34.9184 2.95154 35.0199 2.95154Z" fill="white"></path><path d="M36.7833 7.33502C36.7432 7.15908 36.7138 6.97907 36.6958 6.7957C35.2732 7.82974 34.4813 8.76909 34.7257 9.28117C34.9861 9.827 36.3615 9.75663 38.2314 9.20139C38.3013 9.18063 38.3719 9.15918 38.4432 9.13707C39.4788 8.81575 40.6537 8.35271 41.8681 7.76903C41.9786 7.71597 42.088 7.66254 42.1964 7.60879C43.2187 7.10182 44.1486 6.56634 44.9364 6.04308C46.7381 4.84648 47.7971 3.71379 47.5196 3.13223C47.2572 2.58258 45.8644 2.65779 43.9745 3.22374C44.1305 3.37271 44.2753 3.53325 44.4078 3.704C45.1016 3.61486 45.5742 3.69108 45.7016 3.95834C45.8587 4.28732 45.4634 4.84347 44.6973 5.47669C43.9315 6.10977 42.7949 6.81987 41.4693 7.45705C41.469 7.4572 41.4687 7.45736 41.4683 7.45751C40.1115 8.10961 38.8196 8.55892 37.8392 8.75415C36.9033 8.94052 36.2514 8.89535 36.098 8.57402C35.9646 8.29441 36.2302 7.85069 36.7833 7.33502Z" fill="white"></path><path d="M40.9959 10.3328C40.0756 10.3328 39.2288 10.0172 38.557 9.48805C39.6125 9.16026 40.8024 8.69047 42.027 8.10188C43.1079 7.58242 44.0999 7.02614 44.9477 6.47657C44.889 8.61628 43.1422 10.3328 40.9959 10.3328Z" fill="white"></path><path d="M44.7033 4.98475C44.5617 4.60205 44.3631 4.2472 44.1176 3.93069C43.9964 3.77441 43.8638 3.62744 43.721 3.49107C43.0118 2.8137 42.0522 2.39794 40.9959 2.39794C38.8125 2.39794 37.0425 4.17421 37.0425 6.36535C37.0425 7.1179 37.2513 7.82151 37.6139 8.42103C37.6841 8.40867 37.7567 8.39469 37.8318 8.37907C38.7669 8.18467 40.0023 7.75294 41.3095 7.12465C42.6168 6.49636 43.7264 5.80108 44.4635 5.19182C44.5494 5.12083 44.6294 5.05173 44.7033 4.98475Z" fill="white"></path></svg> 