<?xml version="1.0" encoding="UTF-8"?> <svg xmlns="http://www.w3.org/2000/svg" width="146" height="24" viewBox="0 0 146 24" fill="none"><g clip-path="url(#clip0_353_1057)"><mask id="mask0_353_1057" style="mask-type:luminance" maskUnits="userSpaceOnUse" x="0" y="-1" width="146" height="25"><path d="M145.76 -0.000976562H0V23.0138H145.76V-0.000976562Z" fill="white"></path></mask><g mask="url(#mask0_353_1057)"><path d="M13.1292 5.26473H11.5428L10.7233 6.5605C9.59091 5.51755 8.14105 4.78223 6.55972 4.78223C2.93669 4.78223 0 7.66347 0 11.2171C0 14.7708 2.93899 17.652 6.55972 17.652C8.05805 17.652 9.44109 17.0546 10.5464 16.1456V17.3877C10.1655 19.204 8.52942 20.5708 6.56317 20.5708C5.95277 20.5729 5.34963 20.4383 4.79785 20.1768C4.24608 19.9154 3.75963 19.5337 3.37408 19.0597H0.505391C1.496 21.3817 3.83452 23.014 6.56317 23.014C10.1361 23.014 13.0451 20.5668 13.1229 16.7383H13.1292V5.26473ZM6.55972 15.2083C4.31225 15.2083 2.49123 13.419 2.49123 11.2171C2.49123 9.01523 4.31283 7.22597 6.55972 7.22597C8.52654 7.22597 10.1678 8.59442 10.5464 10.4142V12.0205C10.1678 13.8398 8.52654 15.2083 6.55972 15.2083Z" fill="white"></path><path d="M56.0779 -0.000976562L56.0842 6.42642C54.9645 5.42387 53.5278 4.80283 51.9598 4.80283C48.3869 4.80283 45.4917 7.63676 45.4917 11.1944C45.4917 14.7521 48.3875 17.6357 51.9598 17.6357C53.5521 17.6357 55.0089 16.8669 56.1355 15.7887L57.0898 17.2894H58.7033V0.0111418L56.0779 -0.000976562ZM52.0128 15.2058C49.797 15.2058 48.1114 13.4166 48.1114 11.2117C48.1114 9.00693 49.7129 7.38454 51.9286 7.38454C53.7474 7.38454 55.5131 8.41308 56.0876 10.0591V12.3482C55.5304 13.9995 53.8252 15.2058 52.0128 15.2058Z" fill="white"></path><path d="M82.8943 5.26465H79.9182L78.7049 7.16643V5.26465H77.0672H76.1006V17.2877L78.7049 17.2999V7.38576L82.8943 7.38519V5.26465Z" fill="white"></path><path d="M121.993 7.38422V5.27868H119.016L117.849 7.10718V0.0166016H116.236L115.24 1.58651L115.223 13.6847V14.1296H115.23C115.294 14.9974 115.683 15.8089 116.319 16.4013C116.956 16.9936 117.792 17.3232 118.661 17.3237H121.972V15.2251H118.934C118.646 15.2246 118.37 15.1099 118.167 14.906C117.964 14.7021 117.849 14.4258 117.849 14.1377V7.3848L121.993 7.38422Z" fill="white"></path><path d="M71.025 13.0138C70.6822 13.6728 70.1651 14.2247 69.5303 14.6093C68.8956 14.9938 68.1674 15.1962 67.4256 15.1944C65.1914 15.1944 63.3801 13.4052 63.3801 11.194C63.3801 8.98288 65.1914 7.1937 67.4256 7.1937C68.1736 7.19176 68.9076 7.39759 69.5459 7.7882C70.1842 8.1788 70.702 8.739 71.0417 9.40657H73.6924C72.9085 6.71403 70.4003 4.74414 67.4256 4.74414C63.8233 4.74414 60.9033 7.63004 60.9033 11.194C60.9033 14.7581 63.8227 17.6434 67.4256 17.6434C70.3882 17.6434 72.8891 15.6897 73.6831 13.0138H71.025Z" fill="white"></path><path d="M94.6108 5.28906L90.9867 15.1928L87.6043 5.28906H84.9604L89.1801 17.6446H90.0892L88.1235 23.0141H90.7674L97.2547 5.28906H94.6108Z" fill="white"></path><path d="M106.435 4.7959C104.821 4.7959 103.316 5.55777 102.183 6.66133L101.302 5.2888H99.6675V23.0034L102.291 23.0161L102.262 15.9538C103.385 16.9667 104.829 17.6461 106.406 17.6461C109.979 17.6461 112.871 14.7636 112.871 11.2077C112.871 7.65171 110.005 4.7959 106.435 4.7959ZM106.406 15.2058C104.555 15.2058 102.781 13.9521 102.248 12.2529L102.239 10.1815C102.758 8.47593 104.529 7.38452 106.389 7.38452C108.603 7.38452 110.256 9.00577 110.256 11.2117C110.256 13.4177 108.62 15.2058 106.406 15.2058Z" fill="white"></path><path d="M21.8244 4.7666C18.2296 4.7666 15.3154 7.64839 15.3154 11.2032C15.3154 14.758 18.2296 17.6399 21.8273 17.6399C25.425 17.6399 28.3392 14.758 28.3392 11.2032C28.3392 7.64839 25.4192 4.7666 21.8244 4.7666ZM21.8244 15.1955C19.5948 15.1955 17.7871 13.4063 17.7871 11.2032C17.7871 9.00015 19.5954 7.21089 21.8244 7.21089C24.0534 7.21089 25.8612 9.00015 25.8612 11.2032C25.8612 13.4063 24.054 15.1955 21.8244 15.1955Z" fill="white"></path><path d="M36.8366 4.7666C33.2419 4.7666 30.3276 7.64839 30.3276 11.2032C30.3276 14.758 33.2419 17.6399 36.8395 17.6399C40.4372 17.6399 43.3514 14.758 43.3514 11.2032C43.3514 7.64839 40.4315 4.7666 36.8366 4.7666ZM36.8366 15.1955C34.6071 15.1955 32.7993 13.4063 32.7993 11.2032C32.7993 9.00015 34.6071 7.21089 36.8366 7.21089C39.0663 7.21089 40.8734 9.00015 40.8734 11.2032C40.8734 13.4063 39.0663 15.1955 36.8366 15.1955Z" fill="white"></path><path d="M137.588 12.9457L139.311 11.2199L145.717 4.80116L142.278 4.79077L137.585 9.49181L137.575 9.48203L135.851 11.2089L135.861 11.2182L133.203 13.8789L132.908 14.1745C132.163 14.843 131.196 15.2118 130.195 15.2099C127.967 15.2099 126.161 13.4253 126.161 11.2199C126.161 9.01454 127.967 7.23047 130.195 7.23047C131.263 7.22781 132.288 7.64819 133.048 8.39983L134.342 9.69557L136.066 7.96867L135.131 7.03136C134.933 6.80244 134.719 6.58813 134.491 6.39011L134.456 6.35607C133.269 5.33995 131.758 4.78303 130.196 4.78615C126.604 4.78615 123.691 7.66739 123.691 11.2188C123.691 14.7701 126.604 17.6513 130.196 17.6513C131.745 17.6549 133.246 17.1066 134.429 16.1045L134.451 16.0814C134.705 15.8644 134.942 15.6276 135.159 15.3732L137.586 12.9416L137.588 12.9457Z" fill="url(#paint0_linear_353_1057)"></path><path d="M140.823 12.7334L139.101 14.4591L142.31 17.6688H145.76L140.823 12.7334Z" fill="url(#paint1_linear_353_1057)"></path><path d="M145.718 4.80278L142.278 4.79297L135.334 11.7461L137.035 13.4979L145.718 4.80278Z" fill="url(#paint2_linear_353_1057)"></path></g></g><defs><linearGradient id="paint0_linear_353_1057" x1="123.689" y1="11.2222" x2="145.718" y2="11.2222" gradientUnits="userSpaceOnUse"><stop offset="0.13" stop-color="white"></stop><stop offset="0.48" stop-color="#01EF67"></stop></linearGradient><linearGradient id="paint1_linear_353_1057" x1="140.228" y1="28.6726" x2="144.365" y2="5.05805" gradientUnits="userSpaceOnUse"><stop offset="0.54" stop-color="#01EF67"></stop><stop offset="0.66" stop-color="#01EF67"></stop><stop offset="0.67" stop-color="#092CFB"></stop></linearGradient><linearGradient id="paint2_linear_353_1057" x1="141.335" y1="13.1095" x2="139.976" y2="5.00664" gradientUnits="userSpaceOnUse"><stop offset="0.23" stop-color="#01EF67" stop-opacity="0"></stop><stop offset="1" stop-color="#092CFB"></stop></linearGradient><clipPath id="clip0_353_1057"><rect width="146" height="23.0148" fill="white"></rect></clipPath></defs></svg> 