<?xml version="1.0" encoding="UTF-8"?> <svg xmlns="http://www.w3.org/2000/svg" width="79" height="40" viewBox="0 0 79 40" fill="none"><path d="M36.432 7.3835C36.8132 6.49753 37.6182 5.80717 38.5674 5.55234C38.9761 5.44269 39.7206 5.44059 40.1562 5.54796C40.774 5.70027 41.2738 5.99997 41.7259 6.48917C42.0677 6.85911 42.2821 7.22705 42.444 7.72132C42.6055 8.21493 42.645 8.91953 42.5407 9.44887C42.1039 11.6652 39.6953 12.771 37.7459 11.6502C37.394 11.4479 36.8125 10.8695 36.6171 10.5273C36.2843 9.94433 36.1635 9.47449 36.1647 8.76695C36.1656 8.18446 36.2294 7.85455 36.432 7.3835Z" fill="white"></path><path fill-rule="evenodd" clip-rule="evenodd" d="M6.37246 29.7007V31.4894H0.700195V6.03221H6.37246V16.5301C7.84194 15.1977 9.45697 14.4375 11.4533 14.4375C13.0873 14.4375 14.7151 14.9754 16.046 15.955C18.2575 17.5832 19.3991 20.4105 19.3991 23.1549C19.3991 25.4652 18.6393 27.7559 17.0616 29.4413C15.7616 30.83 14.1608 31.6696 12.3426 31.9162C10.0348 32.2293 7.9348 31.4464 6.37246 29.7007ZM12.0906 20.3067C11.7451 20.0269 11.2163 19.7483 10.7929 19.6231C10.4164 19.5117 9.48972 19.4786 9.13035 19.5637C8.41688 19.7326 7.87159 20.0305 7.35039 20.5359C6.74859 21.1196 6.36692 21.9018 6.25242 22.7858C6.14324 23.6294 6.39377 24.6283 6.89605 25.3519C7.66124 26.4543 8.97525 27.0646 10.2452 26.9073C11.8547 26.708 13.1594 25.4256 13.4159 23.7908C13.4815 23.3727 13.4437 22.6261 13.3372 22.2396C13.1383 21.5169 12.6497 20.7594 12.0906 20.3067Z" fill="white"></path><path d="M73.8919 14.5588C75.4359 14.4642 76.8766 14.7978 78.2732 15.4541C78.2732 15.9507 78.2547 20.1483 78.2547 20.1483C78.2547 20.1483 76.678 19.0893 74.6547 19.3933C72.7488 19.6796 71.4472 21.3463 71.4432 23.2852C71.4395 25.1064 72.6642 26.6886 74.3809 27.1699C75.9391 27.6065 77.53 26.9445 78.2603 26.4221C78.2806 26.4221 78.2732 30.6329 78.2732 31.1308C76.6768 31.8671 74.9739 32.2 73.2269 31.9564C70.114 31.5224 67.7148 29.8409 66.4209 27.1862C65.8058 25.9244 65.5441 24.7593 65.5445 23.2852C65.545 21.8347 65.7879 20.731 66.3809 19.4847C67.7882 16.5273 70.7157 14.7534 73.8919 14.5588Z" fill="white"></path><path d="M34.0687 14.7305C34.0687 16.6703 34.085 18.6111 34.035 20.5505C32.7704 19.6316 30.672 19.8245 29.4331 20.6995C28.3142 21.4898 27.715 22.8701 27.7101 24.5319L27.6892 31.4894H21.9418V15.0408H27.6923L27.6925 17.7956C29.0243 15.5251 31.5327 14.4577 34.0687 14.7305Z" fill="white"></path><path d="M56.0536 14.7227C57.3788 14.5917 58.6589 14.8237 59.7504 15.3689C61.9055 16.4453 62.9325 18.578 62.9592 20.9769C62.9709 22.0286 62.9774 23.8307 62.9774 25.9294C62.9774 29.117 62.9777 31.4894 62.9777 31.4894H57.229C57.229 31.4894 57.229 23.6869 57.229 21.9978C57.229 20.3087 55.9754 19.3435 54.352 19.3435C52.7285 19.3435 51.7114 20.7511 51.7114 22.4201C51.7114 24.0891 51.7097 31.4894 51.7097 31.4894H45.9609V15.0408H51.7114V17.0071C52.9325 15.7533 54.3049 14.8954 56.0536 14.7227Z" fill="white"></path><path d="M36.4941 31.4894V15.0408H42.2446V31.4894H36.4941Z" fill="white"></path></svg> 